<svg width="300" height="182" viewBox="0 0 300 182" fill="none" xmlns="http://www.w3.org/2000/svg">
<path d="M77.1658 118.102C77.1658 117.981 77.1658 117.868 77.1658 117.779C78.3308 94.5995 79.5363 71.3719 79.7143 48.1686C79.6981 48.1686 79.6819 48.1524 79.6657 48.1362C79.6819 47.9016 79.6981 47.6589 79.7223 47.4243C79.7223 47.3515 79.7385 47.2787 79.7466 47.2058C79.8194 47.2058 79.8922 47.1978 79.9651 47.1897C80.1188 47.1897 80.2644 47.1735 80.4181 47.1573C80.5637 47.1573 80.7175 47.1492 80.8712 47.133V47.1411C92.0764 47.2058 103.621 46.2107 114.333 50.1993C119.317 52.1086 123.694 55.183 127.909 58.403C134.381 63.0145 140.538 68.0387 146.371 73.4269C165.521 90.9427 185.577 107.949 201.103 128.887C207.219 137.527 200.545 145.132 190.869 143.547C187.77 143.021 184.906 141.629 182.155 140.141C179.356 147.64 170.845 153.773 163.046 149.711C162.754 149.534 162.067 149.186 161.258 148.741C160.918 150.076 160.052 151.354 159.324 152.478C157.73 155.342 154.607 157.017 151.444 157.567C148.604 157.931 145.595 157.486 142.925 156.467C142.642 156.346 142.366 156.216 142.099 156.079C141.873 156.257 141.679 156.402 141.566 156.483C136.638 159.614 131.768 160.884 126.356 158.061C114.487 153.263 107.642 141.742 98.9209 133.005C94.8595 128.822 90.7819 124.299 85.5232 121.638C83.5896 120.764 81.6802 119.898 79.6576 119.372C79.6414 119.372 79.6253 119.364 79.6091 119.356C79.6253 119.356 79.6333 119.364 79.6495 119.372C79.3097 119.251 78.9618 119.17 78.614 119.089C78.3874 119.041 78.1609 119 77.9344 118.968C77.7159 118.944 77.4975 118.911 77.279 118.911C77.2224 118.741 77.2062 118.531 77.2062 118.329C77.2062 118.248 77.2062 118.167 77.2062 118.086L77.1658 118.102Z" fill="#FFC19B"/>
<path d="M100.975 70.2556C104.284 63.7752 108.588 57.7236 113.726 52.5457C125.594 39.3017 145.019 40.8146 161.241 41.3243C173.352 41.9392 185.415 43.8485 197.494 44.5362C204.799 45.1511 212.032 45.507 219.306 46.1057C219.783 46.0815 220.285 46.2433 220.754 46.2028C222.744 46.3404 224.872 46.2675 226.854 46.4213C226.854 46.4536 226.854 46.4779 226.854 46.5022C226.854 46.8339 226.886 47.1737 226.894 47.5054C226.878 47.5054 226.854 47.5054 226.838 47.5054C226.854 47.5539 226.862 47.6025 226.862 47.6672C227.032 53.1444 227.25 58.6216 227.566 64.0907C228.585 81.3719 229.597 98.6773 229.678 115.975C229.75 116.46 230.001 117.229 229.338 117.374C229.289 117.382 229.241 117.374 229.192 117.374C224.912 120.546 220.527 123.572 215.819 126.063C211.531 128.07 207.089 129.834 202.704 131.541C202.647 131.589 202.583 131.654 202.526 131.727C202.3 131.444 202.073 131.152 201.846 130.869C201.846 130.869 201.846 130.861 201.863 130.853C201.66 130.537 201.458 130.246 201.248 129.939C192.073 116.937 180.132 106.412 168.757 95.4169C163.749 90.3199 158.571 85.3281 153.539 80.2878C149.51 76.7684 145.836 72.4401 140.917 70.1424H140.926C140.667 70.1505 140.497 69.9968 140.424 69.8107C137.908 68.5648 134.971 68.9531 132.528 70.1909C124.769 74.317 121.217 83.079 114.082 87.9979C105.554 94.0981 97.569 88.7908 97.2939 78.8639C97.6257 75.7248 99.6725 72.9902 100.975 70.2476V70.2556Z" fill="#E67377"/>
<path d="M45.0711 48.4763C45.1035 48.3711 45.1116 48.2579 45.1116 48.1365C45.1116 47.999 45.0954 47.8614 45.0954 47.7239C45.0873 47.4731 45.0954 47.2142 45.0954 46.9634C45.1925 46.9715 45.2977 46.9877 45.4029 46.9796C45.5889 46.9796 45.775 46.9796 45.9611 46.9796C46.0096 46.9796 46.0582 46.9796 46.1067 46.9796C46.1795 46.9796 46.2443 46.9796 46.3171 46.9715C51.0338 46.6964 55.7667 47.0443 60.4834 46.8663C67.0447 46.7935 73.6384 46.5184 80.1755 46.9472C80.1755 46.9796 80.1755 47.02 80.1755 47.0524C80.1755 47.0767 80.1755 47.0928 80.1755 47.1171C80.1755 47.1657 80.1755 47.2142 80.1755 47.2627C80.1755 47.3517 80.1755 47.4488 80.1836 47.5378C80.1836 47.5864 80.1917 47.6349 80.2079 47.6834C80.2079 47.7401 80.2079 47.7967 80.2079 47.8533C80.2079 47.8291 80.2079 47.8048 80.2079 47.7805C80.2079 47.8614 80.2079 47.9423 80.2079 48.0232C80.2079 48.0232 80.2052 48.0232 80.1998 48.0232C80.3373 52.1413 79.8033 56.2431 79.8276 60.3611C79.7791 62.6426 79.8438 64.9241 79.9085 67.2056C79.9732 69.6085 80.046 72.0033 79.9732 74.4061C79.8761 85.8622 78.9134 97.2939 78.4037 108.742C78.2823 111.654 78.0801 114.599 77.983 117.512C77.983 117.512 77.9749 117.528 77.983 117.536C77.983 117.577 77.9668 117.617 77.9668 117.666C77.9506 117.698 77.9425 117.73 77.9344 117.771C77.9183 117.876 77.9183 117.973 77.9264 118.07C77.9264 118.264 77.9264 118.458 77.9344 118.653C77.9344 118.766 77.9344 118.871 77.9425 118.984C77.9425 119.017 77.9425 119.049 77.9425 119.081C77.8616 119.081 77.7726 119.073 77.6836 119.065C77.6836 119.065 77.6675 119.065 77.6594 119.065C77.2468 119.033 76.8422 119.009 76.4377 118.984C76.195 118.968 75.9523 118.936 75.7015 118.944C75.7177 118.944 75.7258 118.944 75.7338 118.944C75.6691 118.944 75.5963 118.944 75.5316 118.944C75.3212 118.928 75.1109 118.92 74.9005 118.92C64.9493 118.127 54.901 118.661 44.9579 118.426C44.8689 118.402 44.7718 118.402 44.6828 118.394C44.4805 118.394 44.2783 118.394 44.076 118.394C43.7767 118.394 43.4854 118.394 43.1861 118.402C43.1861 118.402 43.1456 118.402 43.1214 118.402C43.1456 118.402 43.1699 118.402 43.1861 118.402C43.1214 118.402 43.0647 118.402 43 118.402C44.4239 95.1257 44.9093 71.7605 45.0711 48.4763Z" fill="#FFFFFA"/>
<path d="M226.685 47.7399C226.685 47.4648 226.677 47.1978 226.669 46.9227C226.669 46.769 226.661 46.6072 226.653 46.4454C226.822 46.4454 227 46.4292 227.178 46.4292C227.154 46.4292 227.13 46.4292 227.106 46.4292C227.348 46.4211 227.583 46.4373 227.818 46.4535C228.004 46.4535 228.19 46.4535 228.384 46.4535C228.36 46.4535 228.335 46.4535 228.311 46.4535C228.416 46.4535 228.513 46.4535 228.619 46.4535C228.594 46.4535 228.57 46.4535 228.546 46.4535C228.708 46.4535 228.869 46.4454 229.031 46.4211C229.007 46.4211 228.983 46.4211 228.966 46.4292C229.104 46.413 229.242 46.4049 229.379 46.3888C229.355 46.3888 229.331 46.3888 229.306 46.3888C229.549 46.3645 229.784 46.3321 230.026 46.3079C230.002 46.3079 229.978 46.3079 229.962 46.3159C230.01 46.3159 230.051 46.3079 230.099 46.2998C230.164 46.2998 230.22 46.2755 230.277 46.2512C237.057 45.5231 243.926 45.1347 250.73 45.0053C251.62 45.0053 252.518 44.9487 253.408 44.9001C253.618 44.9163 253.845 44.9082 254.055 44.9001C254.346 44.8839 254.637 44.8678 254.921 44.8435C255.001 44.8435 255.09 44.8273 255.179 44.8192C255.179 44.8839 255.179 44.9406 255.188 44.9972C255.188 45.0538 255.188 45.1186 255.188 45.1752C255.188 45.2156 255.179 45.2561 255.188 45.2965C255.188 45.3855 255.196 45.4826 255.204 45.5716C255.204 45.6687 255.204 45.7739 255.22 45.8791C255.252 57.0196 255.163 68.1358 255.406 79.2763C255.875 89.988 255.851 100.692 256.975 111.355C257.097 112.536 257.17 113.725 257.259 114.907C257.259 114.907 257.259 114.923 257.259 114.931C257.259 115.174 257.283 115.408 257.291 115.643C257.291 115.716 257.291 115.796 257.307 115.877C257.194 115.885 257.089 115.894 256.975 115.902C256.919 115.902 256.862 115.902 256.814 115.902C256.644 115.902 256.466 115.918 256.304 115.934C256.231 115.942 256.158 115.95 256.086 115.966C252.388 115.95 248.699 116.185 244.985 116.072C241.83 116.161 238.513 116.08 235.326 116.508C235.123 116.525 234.921 116.533 234.719 116.557C234.08 116.614 233.44 116.662 232.801 116.719C232.826 116.719 232.85 116.719 232.874 116.719C232.462 116.751 232.065 116.816 231.661 116.897C231.588 116.913 231.507 116.921 231.434 116.937C231.345 116.953 231.248 116.962 231.151 116.978C230.949 117.01 230.746 117.059 230.544 117.099C230.407 117.123 230.269 117.156 230.131 117.196C230.002 117.228 229.873 117.269 229.743 117.301C229.743 117.131 229.727 116.97 229.711 116.8C229.719 116.8 229.727 116.8 229.727 116.8C228.562 93.9362 227.421 71.0241 226.669 48.1525C226.685 48.0068 226.669 47.8693 226.685 47.7318V47.7399Z" fill="#FFFFFA"/>
<path d="M119.657 134.437C118.929 133.53 118.241 132.616 117.561 131.694C117.472 131.581 117.375 131.467 117.286 131.362C117.011 131.03 116.76 130.691 116.477 130.367C116.315 130.181 116.154 129.995 116 129.817C115.806 129.59 115.62 129.364 115.417 129.153C115.417 129.153 115.409 129.145 115.401 129.137C115.158 128.895 114.916 128.66 114.673 128.417C114.495 128.239 114.325 128.061 114.139 127.891C114.05 127.819 113.953 127.754 113.872 127.681C113.694 127.527 113.532 127.365 113.362 127.212C113.37 127.212 113.378 127.22 113.387 127.228C113.37 127.212 113.362 127.204 113.354 127.196H113.346C113.346 127.196 113.346 127.188 113.338 127.179C113.192 127.05 113.047 126.929 112.893 126.807C113.112 127.147 113.314 127.487 113.516 127.843C115.506 130.674 117.513 133.547 119.705 136.241C125.231 143.053 131.21 149.889 138.483 154.881C138.548 154.913 138.604 154.954 138.669 154.986C138.823 155.075 138.977 155.164 139.138 155.261C139.284 155.35 139.438 155.439 139.583 155.528C139.769 155.625 139.964 155.722 140.158 155.811C140.158 155.811 140.166 155.811 140.174 155.811C140.174 155.811 140.182 155.811 140.19 155.811C140.473 155.933 140.765 156.054 141.048 156.175C141.048 156.175 141.056 156.175 141.064 156.175C141.218 156.232 141.371 156.289 141.525 156.345C141.744 156.418 141.962 156.491 142.188 156.556C142.294 156.58 142.407 156.612 142.512 156.629C142.512 156.629 142.52 156.629 142.528 156.629C142.528 156.629 142.536 156.629 142.544 156.629C142.65 156.653 142.755 156.669 142.868 156.685C142.876 156.685 142.884 156.685 142.892 156.685C143.151 156.709 143.402 156.766 143.661 156.798C143.653 156.798 143.637 156.798 143.629 156.798C143.677 156.798 143.726 156.807 143.774 156.815C134.009 151.621 126.493 143.004 119.681 134.437H119.657Z" fill="#2E296D"/>
<path d="M140.094 127.091C139.034 125.796 138.055 124.437 137.092 123.07C136.963 122.924 136.841 122.77 136.712 122.625C136.591 122.471 136.461 122.317 136.34 122.164C136.251 122.05 136.178 121.929 136.097 121.816C136.097 121.816 136.097 121.816 136.105 121.824C136.105 121.816 136.089 121.808 136.081 121.8C135.968 121.654 135.854 121.5 135.741 121.347C135.749 121.363 135.757 121.371 135.765 121.387C135.709 121.298 135.636 121.217 135.571 121.136C135.474 121.031 135.377 120.918 135.288 120.804C135.134 120.643 134.989 120.473 134.835 120.319C134.835 120.319 134.835 120.327 134.843 120.335C134.697 120.198 134.552 120.052 134.39 119.931C134.236 119.809 134.107 119.656 133.953 119.526C133.953 119.526 133.961 119.526 133.969 119.534C133.961 119.526 133.945 119.518 133.937 119.51C133.743 119.356 133.54 119.203 133.346 119.041C133.152 118.871 132.966 118.693 132.764 118.523C132.634 118.418 132.497 118.321 132.351 118.224C132.286 118.175 132.214 118.127 132.149 118.078C134.56 121.104 136.607 124.478 139.042 127.503C144.827 135.044 151.218 142.309 158.766 148.126C158.766 148.126 158.783 148.126 158.783 148.134C158.88 148.182 158.969 148.239 159.066 148.296C159.066 148.296 159.082 148.296 159.082 148.304C159.082 148.304 159.09 148.304 159.098 148.312C159.106 148.312 159.114 148.312 159.122 148.328C159.252 148.401 159.373 148.466 159.511 148.53C159.713 148.627 159.907 148.725 160.109 148.814C160.085 148.814 160.069 148.797 160.045 148.789C160.296 148.886 160.546 148.983 160.797 149.08C161.032 149.161 161.274 149.218 161.517 149.291C161.533 149.291 161.558 149.291 161.574 149.299C161.897 149.388 162.213 149.469 162.537 149.574C162.537 149.574 162.537 149.574 162.528 149.574C162.528 149.574 162.537 149.574 162.545 149.574C153.815 143.474 146.526 135.537 140.086 127.091H140.094Z" fill="#2E296D"/>
<path d="M158.791 148.134C158.791 148.134 158.783 148.134 158.775 148.125C158.775 148.125 158.783 148.134 158.791 148.134Z" fill="#2E296D"/>
<path d="M160.878 149.096C160.878 149.096 160.837 149.08 160.813 149.072C160.837 149.072 160.853 149.088 160.878 149.096Z" fill="#2E296D"/>
<path d="M162.747 150.973C162.796 151.006 162.844 151.038 162.893 151.07C162.949 151.087 163.006 151.095 163.054 151.095C163.006 151.07 162.966 151.054 162.917 151.03C162.86 151.014 162.804 150.99 162.747 150.973Z" fill="#2E296D"/>
<path d="M179.705 139.347C179.705 139.347 179.689 139.331 179.672 139.331C179.689 139.339 179.697 139.347 179.713 139.355L179.705 139.347Z" fill="#2E296D"/>
<path d="M155.919 114.251C155.231 113.474 154.56 112.689 153.888 111.897C153.88 111.888 153.872 111.88 153.856 111.864C153.605 111.613 153.362 111.346 153.12 111.088C152.804 110.764 152.489 110.432 152.157 110.117C151.906 109.874 151.647 109.647 151.38 109.421C151.21 109.275 151.032 109.138 150.854 109.008C150.595 108.83 150.328 108.66 150.069 108.491C150.094 108.507 150.11 108.515 150.134 108.531C149.867 108.361 149.608 108.191 149.333 108.046C149.738 108.547 150.134 109.041 150.531 109.542C153.702 113.418 156.971 117.22 160.393 120.877C166.299 127.276 172.35 133.652 179.211 139.032C179.357 139.129 179.511 139.234 179.664 139.331C179.939 139.501 180.222 139.663 180.506 139.817C180.797 139.962 181.088 140.108 181.379 140.245C181.363 140.229 181.339 140.221 181.323 140.213C181.517 140.31 181.711 140.399 181.905 140.48C182.164 140.577 182.423 140.674 182.69 140.755C182.892 140.812 183.095 140.868 183.297 140.925C183.41 140.957 183.515 140.99 183.629 141.014C183.661 141.014 183.685 141.014 183.718 141.022C173.184 133.571 164.446 123.87 155.919 114.251Z" fill="#2E296D"/>
<path d="M151.379 109.413C151.379 109.413 151.387 109.413 151.396 109.421C151.412 109.429 151.428 109.445 151.436 109.453C151.412 109.437 151.396 109.421 151.379 109.405V109.413Z" fill="#2E296D"/>
<path d="M242.405 52.958C240.107 52.958 237.737 54.7784 237.583 57.165C237.429 60.1099 239.687 61.8089 241.968 61.9141C242.017 76.9137 241.968 91.9619 241.992 106.978C241.92 107.407 242.195 107.852 242.664 107.746C242.931 107.682 243.077 107.439 243.068 107.18C243.052 105.06 243.101 102.908 243.068 100.78C242.988 87.8196 243.206 74.7941 243.012 61.8494C244.703 61.5581 246.207 60.3203 246.491 57.9741C246.491 55.2557 245.269 53.2169 242.405 52.958Z" fill="#2E296D"/>
<path d="M62.676 54.7138C60.4593 55.4095 58.2506 57.0843 58.3072 59.6247C58.0402 62.2459 60.3217 64.5113 62.7731 64.9643C62.9107 64.9805 63.0482 64.9886 63.1857 64.9805C62.9026 69.4222 62.8298 73.9123 62.4495 78.3378C61.5191 87.836 61.6567 97.4069 60.791 106.921C60.7667 107.633 61.8589 107.633 61.867 106.954C62.0612 103.167 62.4495 99.381 62.5628 95.5785C62.9673 85.336 63.6954 75.0854 64.3103 64.8592C66.6323 64.3414 68.574 62.1974 68.3555 59.7136C68.4445 56.7445 65.5805 54.3092 62.668 54.7138H62.676Z" fill="#2E296D"/>
<path d="M207.171 128.037C207.018 127.859 206.872 127.681 206.718 127.503C206.726 127.511 206.734 127.519 206.743 127.535C206.726 127.519 206.71 127.495 206.686 127.471C206.678 127.454 206.662 127.446 206.654 127.43C206.451 127.179 206.249 126.929 206.047 126.678C205.99 126.613 205.942 126.548 205.893 126.492C205.893 126.492 205.885 126.484 205.877 126.476C205.877 126.476 205.877 126.476 205.877 126.467C205.877 126.467 205.869 126.459 205.861 126.451C205.262 125.715 204.639 125.003 204.04 124.259C203.717 123.862 203.393 123.474 203.061 123.086C202.738 122.705 202.43 122.325 202.107 121.953C202.123 121.969 202.139 121.985 202.155 122.001C201.856 121.67 201.565 121.338 201.273 120.998C201.29 121.014 201.306 121.031 201.322 121.047C200.885 120.545 200.448 120.052 200.019 119.542C199.793 119.275 199.566 119 199.34 118.741C199.105 118.474 198.879 118.215 198.652 117.948C198.199 117.398 197.762 116.832 197.301 116.298C196.88 115.82 196.435 115.351 195.99 114.89C196.007 114.906 196.023 114.922 196.039 114.939C195.521 114.413 194.987 113.903 194.461 113.385C193.895 112.819 193.345 112.236 192.787 111.67C192.317 111.201 191.864 110.723 191.403 110.254C191.152 109.987 190.877 109.736 190.618 109.486C190.343 109.227 190.076 108.96 189.809 108.685C189.397 108.28 188.976 107.876 188.555 107.479C188.207 107.156 187.876 106.816 187.528 106.492C186.921 105.934 186.355 105.327 185.748 104.761C185.764 104.777 185.78 104.793 185.796 104.809C185.319 104.364 184.85 103.919 184.397 103.45C183.984 103.021 183.572 102.584 183.151 102.164C183.167 102.18 183.183 102.196 183.199 102.212C182.795 101.816 182.374 101.428 181.97 101.031C181.46 100.53 180.942 100.036 180.441 99.5263C179.729 98.8063 179.049 98.0619 178.369 97.3014C178.086 96.9859 177.787 96.6947 177.496 96.3953C176.59 95.5377 175.675 94.6801 174.761 93.8307C183.661 95.028 192.957 93.4909 200.893 89.3243C200.505 89.4618 200.125 89.5994 199.736 89.7045C199.113 89.8825 198.49 90.0524 197.859 90.2061C197.568 90.279 197.285 90.3437 196.994 90.4165C196.694 90.4974 196.403 90.5864 196.104 90.6592C195.497 90.8129 194.898 90.9505 194.291 91.0961C194.308 91.0961 194.316 91.088 194.332 91.0799C194.049 91.1446 193.774 91.2174 193.49 91.2822C190.942 92.0912 188.313 92.609 185.643 92.7465C181.614 93.2481 177.455 93.2562 173.418 92.5847C170.344 89.7126 167.237 86.8729 164.106 84.0655C157.472 78.6935 151.525 71.5739 142.82 69.7293C141.323 69.1468 139.77 69.082 138.201 68.9607C138.071 68.9688 137.942 68.9769 137.82 68.9931C137.804 68.9931 137.796 68.9931 137.78 68.9931C137.764 68.9931 137.747 68.9931 137.731 68.9931C137.513 69.0173 137.294 69.0335 137.068 69.0497C137.238 69.074 137.408 69.0982 137.578 69.1306C137.731 69.1549 137.893 69.1872 138.047 69.2196C138.265 69.2681 138.476 69.349 138.678 69.4218C139.058 69.5513 139.414 69.705 139.77 69.8749C140.029 70.0044 140.304 70.1257 140.555 70.2713C140.563 70.2713 140.571 70.2794 140.579 70.2875C140.652 70.328 140.733 70.3684 140.806 70.417C140.838 70.4331 140.87 70.4574 140.903 70.4736C141.137 70.6111 141.364 70.7568 141.582 70.9105C141.736 71.0238 141.882 71.137 142.035 71.2584C146.558 74.0415 150.352 77.9734 154.389 81.4038C160.603 87.2693 166.315 93.6041 172.666 99.324C183.191 109.591 193.159 120.343 202.56 131.629C202.681 131.589 202.803 131.54 202.924 131.5C203.037 131.467 203.15 131.427 203.264 131.386C203.377 131.346 203.49 131.314 203.604 131.281C203.62 131.273 203.636 131.265 203.652 131.265C203.652 131.265 203.66 131.265 203.668 131.265C203.676 131.265 203.692 131.265 203.701 131.265C203.838 131.216 203.976 131.168 204.105 131.119C204.615 130.941 205.116 130.755 205.626 130.561C205.626 130.561 205.634 130.561 205.642 130.561C205.642 130.561 205.645 130.561 205.65 130.561H205.658C206.087 130.391 206.516 130.221 206.937 130.035C207.398 129.841 207.851 129.631 208.312 129.445C207.916 128.975 207.511 128.498 207.115 128.029C207.131 128.045 207.147 128.061 207.163 128.077L207.171 128.037Z" fill="#2E296D"/>
</svg>
