<svg width="130" height="26" viewBox="0 0 130 26" fill="none" xmlns="http://www.w3.org/2000/svg">
<g clip-path="url(#clip0_2392_310)">
<path d="M8.38012 1.12628C14.9447 1.12628 17.4578 3.77318 17.4578 9.48308C17.4578 10.6673 17.109 12.9653 15.677 14.532C17.108 15.194 18.1564 16.9352 18.1564 19.0935C18.1564 23.4111 16.2365 25.5 9.67196 25.5H0V1.12628H8.38012ZM9.21781 20.5561C10.8943 20.5561 11.732 20.3817 11.732 18.7456C11.732 17.1096 10.9638 16.8658 9.28736 16.8658H5.97029V20.5572H9.21781V20.5561ZM8.93858 11.8505C10.615 11.8505 11.4527 11.6414 11.4527 9.48308C11.4527 7.32479 10.615 7.11569 8.93858 7.11569H5.99031V11.8515H8.93858V11.8505Z" fill="#F8F6FC"/>
<path d="M26.3974 1.12628V25.5H20.4619V1.12628H26.3974Z" fill="#F8F6FC"/>
<path d="M48.464 1.12628V25.5H41.46C41.4863 25.1207 41.5 24.7382 41.5 24.3526C41.5 19.456 39.3325 15.0637 35.9017 12.0785L35.8943 12.0596V12.0711C35.8943 12.0711 35.8911 12.068 35.889 12.0669C34.9586 14.1149 34.4402 16.3888 34.4402 18.7835C34.4402 21.1782 34.9586 23.4531 35.8901 25.5H29.8882V1.12628H36.9417L42.4589 14.4627V1.12628H48.464Z" fill="#F8F6FC"/>
<path d="M57.9621 1.12628V19.5106H67.8437V25.5H51.957V1.12628H57.9621Z" fill="#F83D48"/>
<path d="M86.9434 25.5H80.9383V20.3817H75.8405V25.5H69.8354V9.55241C69.8354 5.16543 70.533 0.5 78.3894 0.5C86.2459 0.5 86.9434 5.16543 86.9434 9.55241V25.5ZM80.9383 9.55241C80.9383 7.88063 80.6939 7.04527 78.3894 7.04527C76.085 7.04527 75.8405 7.88063 75.8405 9.55241V14.3576H80.9383V9.55241Z" fill="#F83D48"/>
<path d="M97.3137 1.12628L102.831 14.4627V1.12628H108.837V25.5H101.784L96.2663 12.0596V25.5H90.2612V1.12628H97.3137Z" fill="#F83D48"/>
<path d="M121.162 1.12628C127.727 1.12628 129.891 3.77318 129.891 9.48308V17.1085C129.891 22.8195 127.727 25.5 121.162 25.5H112.328V1.12628H121.162ZM121.267 19.5106C122.943 19.5106 123.781 19.2322 123.781 17.1432V9.48308C123.781 7.32479 122.943 7.11569 121.267 7.11569H118.333V19.5117H121.267V19.5106Z" fill="#F83D48"/>
</g>
<defs>
<clipPath id="clip0_2392_310">
<rect width="129.891" height="25" fill="white" transform="translate(0 0.5)"/>
</clipPath>
</defs>
</svg>
