<svg width="345" height="129" viewBox="0 0 345 129" fill="none" xmlns="http://www.w3.org/2000/svg">
<path d="M291.594 116V68.256H291.658L315.913 102.688L313.29 102.176L337.482 68.256H337.609V116H331.465V82.336L331.85 85.472L314.378 110.176H314.249L296.521 85.472L297.609 82.592V116H291.594Z" fill="#1A1A1A"/>
<path d="M258.131 100.576L240.979 69.728H248.595L262.355 95.264L260.435 95.392L274.067 69.728H281.619L264.34 100.576V116H258.131V100.576Z" fill="#1A1A1A"/>
<path d="M185.031 116V68.256H185.095L209.351 102.688L206.727 102.176L230.919 68.256H231.047V116H224.903V82.336L225.287 85.472L207.815 110.176H207.687L189.959 85.472L191.047 82.592V116H185.031Z" fill="#1A1A1A"/>
<path d="M134.048 116L154.272 67.808H154.656L174.816 116H167.712L152.608 77.536L157.024 74.656L140.128 116H134.048ZM145.888 98.464H163.104L165.152 103.84H144.096L145.888 98.464Z" fill="#1A1A1A"/>
<path d="M272.958 33.768C272.958 30.5253 273.576 27.4747 274.814 24.616C276.051 21.7573 277.758 19.2187 279.934 17C282.11 14.7813 284.627 13.0533 287.486 11.816C290.387 10.536 293.48 9.896 296.766 9.896C300.008 9.896 303.059 10.536 305.918 11.816C308.819 13.0533 311.358 14.7813 313.534 17C315.752 19.2187 317.48 21.7573 318.718 24.616C319.998 27.4747 320.638 30.5253 320.638 33.768C320.638 37.0533 319.998 40.1253 318.718 42.984C317.48 45.8427 315.752 48.3813 313.534 50.6C311.358 52.776 308.819 54.4827 305.918 55.72C303.059 56.9147 300.008 57.512 296.766 57.512C293.438 57.512 290.344 56.9147 287.486 55.72C284.627 54.4827 282.11 52.7973 279.934 50.664C277.758 48.488 276.051 45.9707 274.814 43.112C273.576 40.2107 272.958 37.096 272.958 33.768ZM280.638 33.768C280.638 36.072 281.043 38.2267 281.854 40.232C282.707 42.2373 283.88 44.008 285.374 45.544C286.867 47.0373 288.595 48.2107 290.558 49.064C292.52 49.9173 294.654 50.344 296.958 50.344C299.176 50.344 301.246 49.9173 303.166 49.064C305.128 48.2107 306.835 47.0373 308.286 45.544C309.736 44.008 310.867 42.2373 311.678 40.232C312.531 38.2267 312.958 36.072 312.958 33.768C312.958 31.4213 312.531 29.2453 311.678 27.24C310.824 25.2347 309.672 23.464 308.222 21.928C306.771 20.392 305.064 19.1973 303.102 18.344C301.139 17.4907 299.027 17.064 296.766 17.064C294.504 17.064 292.392 17.4907 290.43 18.344C288.467 19.1973 286.739 20.392 285.246 21.928C283.795 23.464 282.664 25.256 281.854 27.304C281.043 29.3093 280.638 31.464 280.638 33.768Z" fill="#064C36"/>
<path d="M245.832 10.4081C248.392 10.4081 250.739 10.7494 252.872 11.4321C255.006 12.0721 256.819 13.0321 258.312 14.3121C259.806 15.5921 260.958 17.1707 261.768 19.0481C262.622 20.8827 263.048 22.9948 263.048 25.3841C263.048 27.2187 262.771 29.0534 262.216 30.8881C261.662 32.7227 260.744 34.3867 259.464 35.8801C258.227 37.3734 256.584 38.5681 254.536 39.4641C252.488 40.3601 249.95 40.8081 246.92 40.8081H240.2V57.0001H232.712V10.4081H245.832ZM246.856 33.6401C248.52 33.6401 249.907 33.3841 251.016 32.8721C252.126 32.3174 252.979 31.6348 253.576 30.8241C254.216 30.0134 254.664 29.1601 254.92 28.2641C255.219 27.3254 255.368 26.4508 255.368 25.6401C255.368 24.8721 255.24 24.0401 254.984 23.1441C254.728 22.2054 254.302 21.3307 253.704 20.5201C253.107 19.6667 252.254 18.9627 251.144 18.4081C250.078 17.8534 248.734 17.5761 247.112 17.5761H240.2V33.6401H246.856ZM254.92 38.0561L266.824 57.0001H258.184L246.024 38.2481L254.92 38.0561Z" fill="#064C36"/>
<path d="M219.894 52.712C219.296 53.3093 218.4 53.8853 217.206 54.44C216.054 54.9947 214.752 55.5067 213.302 55.976C211.851 56.4453 210.358 56.808 208.822 57.064C207.286 57.3627 205.835 57.512 204.47 57.512C200.715 57.512 197.323 56.936 194.294 55.784C191.307 54.632 188.726 53.0533 186.55 51.048C184.416 49 182.774 46.5893 181.622 43.816C180.512 41.0427 179.958 38.0347 179.958 34.792C179.958 30.7387 180.598 27.176 181.878 24.104C183.158 20.9893 184.907 18.3867 187.126 16.296C189.344 14.1627 191.883 12.5627 194.742 11.496C197.643 10.4293 200.694 9.896 203.894 9.896C206.71 9.896 209.312 10.216 211.702 10.856C214.134 11.496 216.203 12.3067 217.91 13.288L215.478 20.2C214.667 19.7307 213.622 19.2827 212.342 18.856C211.062 18.3867 209.76 18.024 208.438 17.768C207.158 17.512 205.963 17.384 204.854 17.384C202.166 17.384 199.755 17.768 197.622 18.536C195.531 19.2613 193.739 20.3493 192.246 21.8C190.752 23.2507 189.6 25.0213 188.79 27.112C188.022 29.16 187.638 31.5067 187.638 34.152C187.638 36.5413 188.043 38.7173 188.854 40.68C189.707 42.6427 190.88 44.328 192.374 45.736C193.91 47.144 195.702 48.232 197.75 49C199.84 49.7253 202.144 50.088 204.662 50.088C206.112 50.088 207.52 49.96 208.886 49.704C210.251 49.448 211.403 49.0427 212.342 48.488V40.744H203.638V33.576H219.894V52.712Z" fill="#064C36"/>
<path d="M133.536 57L154.144 8.48804H154.592L175.2 57H166.624L152.096 20.2L157.472 16.552L140.896 57H133.536ZM146.464 39.72H162.4L164.96 46.056H144.224L146.464 39.72Z" fill="#064C36"/>
<path d="M85.6833 60.8781C85.5333 58.6881 85.1933 56.4681 84.6033 54.2881C84.2633 53.0481 83.8533 51.8281 83.3333 50.6481C79.7433 42.3581 71.4933 35.6081 54.1633 35.5381C54.0733 35.5381 53.9733 35.5381 53.8833 35.5381C47.6233 35.5381 42.2533 36.4181 37.7933 38.1681C36.7733 38.5681 35.8033 39.0081 34.8833 39.4981C32.0433 41.0081 29.6633 42.9381 27.7433 45.2981C27.1133 46.0681 26.5433 46.8881 26.0133 47.7481C25.9233 47.8981 25.8233 48.0481 25.7333 48.1981C18.2233 61.1281 23.2833 81.5381 31.6233 96.0381C38.5033 107.998 47.2733 115.728 53.9633 115.728C60.1333 115.728 68.0733 109.188 74.7033 98.6581C81.6033 87.6981 85.7333 74.6781 85.7533 63.8481C85.7533 63.8181 85.7533 63.7981 85.7533 63.7681C85.7733 62.8181 85.7433 61.8481 85.6833 60.8781ZM34.3733 59.3781C34.3733 58.0681 35.4433 56.9981 36.7533 56.9981C38.0633 56.9981 39.1333 58.0681 39.1333 59.3781C39.1333 60.6881 38.0633 61.7581 36.7533 61.7581C35.4333 61.7481 34.3733 60.6881 34.3733 59.3781ZM39.9333 85.7181C38.6233 85.7181 37.5533 84.6481 37.5533 83.3381C37.5533 82.0281 38.6233 80.9581 39.9333 80.9581C41.2433 80.9581 42.3133 82.0281 42.3133 83.3381C42.3133 84.6481 41.2433 85.7181 39.9333 85.7181ZM49.8333 73.4681C49.8333 72.1581 50.9033 71.0881 52.2133 71.0881C53.5233 71.0881 54.5933 72.1581 54.5933 73.4681C54.5933 74.7781 53.5233 75.8481 52.2133 75.8481C50.9033 75.8481 49.8333 74.7781 49.8333 73.4681ZM53.0733 104.218C51.7633 104.218 50.6933 103.148 50.6933 101.838C50.6933 100.528 51.7633 99.4581 53.0733 99.4581C54.3833 99.4581 55.4533 100.528 55.4533 101.838C55.4533 103.148 54.3933 104.218 53.0733 104.218ZM53.9233 51.8581C52.6133 51.8581 51.5433 50.7881 51.5433 49.4781C51.5433 48.1681 52.6133 47.0981 53.9233 47.0981C55.2333 47.0981 56.3033 48.1681 56.3033 49.4781C56.2933 50.7881 55.2333 51.8581 53.9233 51.8581ZM59.1233 89.7781C57.8133 89.7781 56.7433 88.7081 56.7433 87.3981C56.7433 86.0881 57.8133 85.0181 59.1233 85.0181C60.4333 85.0181 61.5033 86.0881 61.5033 87.3981C61.5033 88.7181 60.4333 89.7781 59.1233 89.7781ZM67.8633 64.8281C67.8633 63.5181 68.9333 62.4481 70.2433 62.4481C71.5533 62.4481 72.6233 63.5181 72.6233 64.8281C72.6233 66.1381 71.5533 67.2081 70.2433 67.2081C68.9333 67.2081 67.8633 66.1381 67.8633 64.8281ZM71.3033 83.4581C69.9933 83.4581 68.9233 82.3881 68.9233 81.0781C68.9233 79.7681 69.9933 78.6981 71.3033 78.6981C72.6133 78.6981 73.6833 79.7681 73.6833 81.0781C73.6833 82.3981 72.6133 83.4581 71.3033 83.4581Z" fill="#72D632"/>
<path d="M24.8033 44.838C27.4533 41.128 31.0033 38.268 35.4333 36.288C35.4633 36.278 35.5033 36.258 35.5333 36.248C35.7733 30.268 34.2933 22.888 30.7533 17.558C28.6733 14.418 25.4733 11.458 20.8033 11.458C18.1533 11.458 15.0333 12.408 11.3733 14.828C5.96331 18.398 3.36331 22.478 3.63331 26.938C4.06331 33.888 11.3833 40.538 18.4533 44.048C20.3333 44.978 22.1833 45.688 23.9133 46.158C24.2033 45.708 24.4933 45.268 24.8033 44.838ZM12.5133 29.998C11.2033 29.998 10.1333 28.928 10.1333 27.618C10.1333 26.308 11.2033 25.238 12.5133 25.238C13.8233 25.238 14.8933 26.308 14.8933 27.618C14.8933 28.928 13.8233 29.998 12.5133 29.998ZM20.8333 21.768C19.5233 21.768 18.4533 20.698 18.4533 19.388C18.4533 18.078 19.5233 17.008 20.8333 17.008C22.1433 17.008 23.2133 18.078 23.2133 19.388C23.2133 20.698 22.1433 21.768 20.8333 21.768ZM22.9733 31.788C22.9733 30.478 24.0433 29.408 25.3533 29.408C26.6633 29.408 27.7333 30.478 27.7333 31.788C27.7333 33.098 26.6633 34.168 25.3533 34.168C24.0433 34.168 22.9733 33.098 22.9733 31.788Z" fill="#72D632"/>
<path d="M98.8134 42.8481C98.7734 42.8481 98.7334 42.8481 98.6934 42.8481C94.0934 42.8481 89.3134 47.3081 86.5334 51.8481C87.5834 54.8981 88.2034 58.2681 88.3534 61.9081C88.3734 62.4181 88.3834 62.9381 88.3934 63.4581C92.6834 64.5081 99.1934 64.0981 103.703 61.5781C107.163 59.6481 110.463 55.8481 106.513 48.7181C104.393 44.8681 101.803 42.8981 98.8134 42.8481ZM93.8034 58.8081C92.4934 58.8081 91.4234 57.7381 91.4234 56.4281C91.4234 55.1181 92.4934 54.0481 93.8034 54.0481C95.1134 54.0481 96.1834 55.1181 96.1834 56.4281C96.1834 57.7381 95.1134 58.8081 93.8034 58.8081ZM98.7034 51.8581C97.3934 51.8581 96.3234 50.7881 96.3234 49.4781C96.3234 48.1681 97.3934 47.0981 98.7034 47.0981C100.013 47.0981 101.083 48.1681 101.083 49.4781C101.073 50.7881 100.013 51.8581 98.7034 51.8581Z" fill="#72D632"/>
<path d="M98.7035 47.1082C97.3935 47.1082 96.3235 48.1782 96.3235 49.4882C96.3235 50.7982 97.3935 51.8682 98.7035 51.8682C100.013 51.8682 101.083 50.7982 101.083 49.4882C101.073 48.1682 100.013 47.1082 98.7035 47.1082Z" fill="#1A1A1A" stroke="#1A1A1A" stroke-width="2"/>
<path d="M53.0735 101.588C52.9335 101.588 52.8235 101.698 52.8235 101.838C52.8235 101.978 52.9335 102.088 53.0735 102.088C53.2135 102.088 53.3235 101.978 53.3235 101.838C53.3335 101.698 53.2135 101.588 53.0735 101.588Z" fill="#1A1A1A" stroke="#1A1A1A" stroke-width="2"/>
<path d="M102.553 41.0581C102.603 41.0081 102.643 40.9581 102.683 40.8981L106.593 34.8581C106.983 34.2481 106.813 33.4381 106.203 33.0381C105.593 32.6481 104.783 32.8181 104.383 33.4281L100.483 39.4481L99.4634 31.6081C99.3734 30.8881 98.7134 30.3881 97.9934 30.4781C97.2734 30.5681 96.7634 31.2281 96.8634 31.9481L97.9234 40.1481C97.9234 40.1781 97.9334 40.2081 97.9434 40.2381C92.8934 40.6181 88.2834 44.7381 85.3434 48.8881C85.2034 48.5881 85.0634 48.2781 84.9034 47.9781C83.7734 45.8081 82.3834 43.8381 80.7434 42.1281C79.0934 40.4181 77.1934 38.9481 75.0734 37.7081L78.8434 31.2281C79.2034 30.5981 78.9934 29.7981 78.3734 29.4281C77.7434 29.0681 76.9434 29.2781 76.5734 29.8981L72.7434 36.4781C67.6834 34.1181 61.4834 32.9081 54.1834 32.8781C53.7934 32.8781 53.4134 32.8881 53.0234 32.8881L54.3534 27.5181C54.5234 26.8181 54.0934 26.0981 53.3934 25.9281C52.6934 25.7581 51.9734 26.1881 51.8034 26.8881L50.2934 32.9781C50.1134 32.9881 49.9334 32.9881 49.7534 33.0081L46.3434 26.1381C46.0234 25.4881 45.2334 25.2281 44.5834 25.5481C43.9334 25.8681 43.6634 26.6581 43.9934 27.3081L46.9534 33.2681C43.7534 33.6381 40.8134 34.2781 38.1534 35.1881C38.2034 28.7481 36.4534 21.3681 32.9334 16.0781C29.6934 11.1981 25.4434 8.76809 20.6034 8.83809L21.6434 2.52809C21.7634 1.80809 21.2734 1.13809 20.5634 1.01809C19.8534 0.898095 19.1734 1.38809 19.0534 2.09809L17.8934 9.12809C17.5134 9.19809 17.1434 9.28809 16.7634 9.38809L12.5734 2.38809C12.2034 1.76809 11.3934 1.56809 10.7734 1.93809C10.1534 2.30809 9.95337 3.11809 10.3234 3.73809L14.2334 10.2581C12.8234 10.8481 11.3834 11.6281 9.93337 12.5881C2.15337 17.7281 0.793374 23.2881 1.02337 27.0481C1.54337 35.5881 10.1234 42.7781 17.3034 46.3481C18.9534 47.1681 20.7834 47.8981 22.6334 48.4481C19.9434 53.8981 19.1034 60.1581 19.5134 66.5681L12.4834 67.2681C11.7634 67.3381 11.2334 67.9881 11.3034 68.7081C11.3734 69.3881 11.9434 69.8881 12.6134 69.8881C12.6534 69.8881 12.7034 69.8881 12.7434 69.8781L19.7334 69.1781C20.8734 79.2381 24.8634 89.4481 29.3734 97.2881C36.8334 110.248 46.2634 118.298 53.9934 118.298C61.1634 118.298 69.7434 111.458 76.9534 99.9981C79.3134 96.2381 81.3534 92.2481 83.0434 88.1781L87.1334 91.7681C87.3834 91.9881 87.6934 92.0981 87.9934 92.0981C88.3634 92.0981 88.7234 91.9481 88.9834 91.6481C89.4634 91.0981 89.4034 90.2681 88.8634 89.7981L84.0634 85.5881C84.3334 84.8681 84.5934 84.1481 84.8334 83.4181L92.4134 83.5381C92.4234 83.5381 92.4234 83.5381 92.4334 83.5381C93.1534 83.5381 93.7334 82.9681 93.7434 82.2481C93.7534 81.5181 93.1734 80.9281 92.4534 80.9181L85.6734 80.8081C87.1834 75.7481 88.1034 70.7281 88.3334 66.0181C89.8534 66.3381 91.6834 66.5481 93.3934 66.5481C97.3934 66.5481 101.683 65.6681 104.993 63.8181C111.273 60.3181 112.673 54.3281 108.823 47.3881C106.843 43.8781 104.613 41.9981 102.553 41.0581ZM18.4634 44.0381C11.3934 40.5281 4.06337 33.8781 3.64337 26.9381C3.37337 22.4681 5.97337 18.3981 11.3834 14.8281C15.0434 12.4181 18.1634 11.4581 20.8134 11.4581C25.4734 11.4581 28.6834 14.4181 30.7634 17.5581C34.3034 22.8881 35.7834 30.2681 35.5434 36.2481C35.5134 36.2581 35.4734 36.2781 35.4434 36.2881C31.0134 38.2781 27.4634 41.1281 24.8134 44.8381C24.5134 45.2681 24.2234 45.7081 23.9334 46.1481C22.1934 45.6781 20.3434 44.9781 18.4634 44.0381ZM74.7234 98.6581C68.1034 109.188 60.1534 115.728 53.9834 115.728C47.2934 115.728 38.5234 107.998 31.6434 96.0381C23.3034 81.5381 18.2434 61.1181 25.7534 48.1981C25.8434 48.0481 25.9334 47.8981 26.0334 47.7481C26.5634 46.8881 27.1334 46.0681 27.7634 45.2981C29.6834 42.9381 32.0634 41.0081 34.9034 39.4981C35.8234 39.0081 36.7934 38.5681 37.8134 38.1681C42.2734 36.4181 47.6334 35.5381 53.9034 35.5381C53.9934 35.5381 54.0934 35.5381 54.1834 35.5381C71.5134 35.6081 79.7634 42.3681 83.3534 50.6481C83.8634 51.8381 84.2834 53.0581 84.6234 54.2881C85.2134 56.4581 85.5534 58.6881 85.7034 60.8781C85.7734 61.8481 85.8034 62.8181 85.8034 63.7781C85.8034 63.8081 85.8034 63.8281 85.8034 63.8581C85.7534 74.6781 81.6234 87.6981 74.7234 98.6581ZM103.713 61.5781C99.1934 64.0881 92.6834 64.4981 88.4034 63.4581C88.4034 62.9381 88.3834 62.4181 88.3634 61.9081C88.2134 58.2681 87.5934 54.8981 86.5434 51.8481C89.3234 47.3081 94.0934 42.8481 98.7034 42.8481C98.7434 42.8481 98.7834 42.8481 98.8234 42.8481C101.813 42.8981 104.403 44.8681 106.533 48.7181C110.473 55.8481 107.173 59.6481 103.713 61.5781Z" fill="#1A1A1A" stroke="#1A1A1A" stroke-width="2"/>
<path d="M39.1233 59.378C39.1233 58.068 38.0533 56.998 36.7433 56.998C35.4333 56.998 34.3633 58.068 34.3633 59.378C34.3633 60.688 35.4333 61.758 36.7433 61.758C38.0533 61.748 39.1233 60.688 39.1233 59.378Z" fill="#1A1A1A" stroke="#1A1A1A" stroke-width="2"/>
<path d="M27.7334 31.7881C27.7334 30.4781 26.6634 29.4081 25.3534 29.4081C24.0434 29.4081 22.9734 30.4781 22.9734 31.7881C22.9734 33.0981 24.0434 34.1681 25.3534 34.1681C26.6634 34.1681 27.7334 33.0981 27.7334 31.7881Z" fill="#1A1A1A" stroke="#1A1A1A" stroke-width="2"/>
<path d="M54.5935 73.4681C54.5935 72.1581 53.5235 71.0881 52.2135 71.0881C50.9035 71.0881 49.8335 72.1581 49.8335 73.4681C49.8335 74.7781 50.9035 75.8481 52.2135 75.8481C53.5235 75.8481 54.5935 74.7781 54.5935 73.4681Z" fill="#1A1A1A" stroke="#1A1A1A" stroke-width="2"/>
<path d="M39.9335 80.9681C38.6235 80.9681 37.5535 82.0381 37.5535 83.3481C37.5535 84.6581 38.6235 85.7281 39.9335 85.7281C41.2435 85.7281 42.3135 84.6581 42.3135 83.3481C42.3135 82.0381 41.2435 80.9681 39.9335 80.9681Z" fill="#1A1A1A" stroke="#1A1A1A" stroke-width="2"/>
<path d="M53.0734 99.4581C51.7634 99.4581 50.6934 100.528 50.6934 101.838C50.6934 103.148 51.7634 104.218 53.0734 104.218C54.3834 104.218 55.4534 103.148 55.4534 101.838C55.4534 100.528 54.3934 99.4581 53.0734 99.4581ZM53.0734 102.088C52.9334 102.088 52.8234 101.978 52.8234 101.838C52.8234 101.698 52.9334 101.588 53.0734 101.588C53.2134 101.588 53.3234 101.698 53.3234 101.838C53.3334 101.978 53.2134 102.088 53.0734 102.088Z" fill="#1A1A1A" stroke="#1A1A1A" stroke-width="2"/>
<path d="M53.9235 47.1082C52.6135 47.1082 51.5435 48.1782 51.5435 49.4882C51.5435 50.7982 52.6135 51.8682 53.9235 51.8682C55.2335 51.8682 56.3035 50.7982 56.3035 49.4882C56.2935 48.1682 55.2335 47.1082 53.9235 47.1082Z" fill="#1A1A1A" stroke="#1A1A1A" stroke-width="2"/>
<path d="M20.8334 17.0081C19.5234 17.0081 18.4534 18.0781 18.4534 19.3881C18.4534 20.6981 19.5234 21.7681 20.8334 21.7681C22.1434 21.7681 23.2134 20.6981 23.2134 19.3881C23.2134 18.0781 22.1434 17.0081 20.8334 17.0081Z" fill="#1A1A1A" stroke="#1A1A1A" stroke-width="2"/>
<path d="M72.6233 64.8281C72.6233 63.5181 71.5533 62.4481 70.2433 62.4481C68.9333 62.4481 67.8633 63.5181 67.8633 64.8281C67.8633 66.1381 68.9333 67.2081 70.2433 67.2081C71.5533 67.2081 72.6233 66.1381 72.6233 64.8281Z" fill="#1A1A1A" stroke="#1A1A1A" stroke-width="2"/>
<path d="M71.3033 78.7081C69.9933 78.7081 68.9233 79.7781 68.9233 81.0881C68.9233 82.3981 69.9933 83.4681 71.3033 83.4681C72.6133 83.4681 73.6833 82.3981 73.6833 81.0881C73.6833 79.7781 72.6133 78.7081 71.3033 78.7081Z" fill="#1A1A1A" stroke="#1A1A1A" stroke-width="2"/>
<path d="M12.5133 25.248C11.2033 25.248 10.1333 26.318 10.1333 27.628C10.1333 28.938 11.2033 30.008 12.5133 30.008C13.8233 30.008 14.8933 28.938 14.8933 27.628C14.8933 26.318 13.8233 25.248 12.5133 25.248Z" fill="#1A1A1A" stroke="#1A1A1A" stroke-width="2"/>
<path d="M93.8033 54.0581C92.4933 54.0581 91.4233 55.1281 91.4233 56.4381C91.4233 57.7481 92.4933 58.8181 93.8033 58.8181C95.1133 58.8181 96.1833 57.7481 96.1833 56.4381C96.1833 55.1281 95.1133 54.0581 93.8033 54.0581Z" fill="#1A1A1A" stroke="#1A1A1A" stroke-width="2"/>
<path d="M59.1234 85.0281C57.8134 85.0281 56.7434 86.0981 56.7434 87.4081C56.7434 88.7181 57.8134 89.7881 59.1234 89.7881C60.4334 89.7881 61.5034 88.7181 61.5034 87.4081C61.5034 86.0881 60.4334 85.0281 59.1234 85.0281Z" fill="#1A1A1A" stroke="#1A1A1A" stroke-width="2"/>
</svg>
