<?xml version="1.0" encoding="UTF-8"?>
<svg id="Capa_2" data-name="Capa 2" xmlns="http://www.w3.org/2000/svg" xmlns:xlink="http://www.w3.org/1999/xlink" viewBox="0 0 598.93 171.85">
  <defs>
    <style>
      .cls-1, .cls-2 {
        fill: #83cff4;
      }

      .cls-3 {
        fill: #adfe52;
      }

      .cls-3, .cls-4, .cls-2, .cls-5, .cls-6, .cls-7, .cls-8 {
        stroke-width: 0px;
      }

      .cls-9 {
        clip-path: url(#clippath-2);
      }

      .cls-10, .cls-6 {
        fill: #fe870c;
      }

      .cls-11 {
        clip-path: url(#clippath-1);
      }

      .cls-4, .cls-12 {
        fill: #76a53e;
      }

      .cls-13 {
        clip-path: url(#clippath);
      }

      .cls-5 {
        fill: #212a31;
      }

      .cls-7 {
        fill: #8ef9fd;
      }

      .cls-8 {
        fill: #eeab12;
      }
    </style>
    <clipPath id="clippath">
      <path class="cls-2" d="M101.75,74.32c0,23.35-18.93,42.28-42.28,42.28s-42.28-18.93-42.28-42.28c0-.86.02-1.71.08-2.56,16.55-11.82,30.7-25.02,42.2-39.72,11.49,14.7,25.65,27.89,42.2,39.72.05.85.08,1.7.08,2.56Z"/>
    </clipPath>
    <clipPath id="clippath-1">
      <path class="cls-6" d="M80.83,139.97h-42.7c3.41-8.44,11.68-14.4,21.35-14.4s17.94,5.96,21.35,14.4Z"/>
    </clipPath>
    <clipPath id="clippath-2">
      <path class="cls-4" d="M82.39,146.36v15.34h-45.93v-13.11c0-3.05.59-5.96,1.67-8.62h42.7c.81,2.01,1.35,4.15,1.56,6.39Z"/>
    </clipPath>
  </defs>
  <g id="Capa_2-2" data-name="Capa 2">
    <g>
      <g>
        <g>
          <path class="cls-1" d="M101.75,74.32c0,23.35-18.93,42.28-42.28,42.28s-42.28-18.93-42.28-42.28c0-.86.02-1.71.08-2.56,16.55-11.82,30.7-25.02,42.2-39.72,11.49,14.7,25.65,27.89,42.2,39.72.05.85.08,1.7.08,2.56Z"/>
          <g class="cls-13">
            <circle class="cls-7" cx="91.38" cy="45.58" r="45.58"/>
          </g>
        </g>
        <g>
          <path class="cls-10" d="M80.83,139.97h-42.7c3.41-8.44,11.68-14.4,21.35-14.4s17.94,5.96,21.35,14.4Z"/>
          <g class="cls-11">
            <circle class="cls-8" cx="80.47" cy="144.19" r="27.66"/>
          </g>
        </g>
        <g>
          <path class="cls-12" d="M82.39,146.36v15.34h-45.93v-13.11c0-3.05.59-5.96,1.67-8.62h42.7c.81,2.01,1.35,4.15,1.56,6.39Z"/>
          <g class="cls-9">
            <circle class="cls-3" cx="80.47" cy="144.19" r="27.66"/>
          </g>
        </g>
        <circle class="cls-2" cx="94.22" cy="41.95" r="8.13"/>
      </g>
      <g>
        <path class="cls-4" d="M67.86,104.21c0,4.51-1.99,8.56-5.15,11.31h0c-11-.68-20.11-8.31-23.03-18.54-.63-2.23-.97-4.58-.97-7.01,0-14.15,11.47-25.62,25.62-25.62h.02s0,0,0,0c-.17.24-.38.45-.62.63-4.4,3.25-7.25,8.47-7.25,14.36,0,2.78.64,5.42,1.77,7.76,1.06,2.2,2.57,4.14,4.39,5.72.01.01.02.02.03.03,3.18,2.75,5.19,6.82,5.19,11.35Z"/>
        <path class="cls-3" d="M79.94,100.56c0,7.64-5.71,13.95-13.1,14.89h0c-.74.07-1.48.11-2.23.12h-.07c-.58-.01-1.15-.06-1.71-.14,3.1-2.75,5.05-6.76,5.05-11.22s-2.01-8.6-5.19-11.35c-.01-.01-.02-.02-.03-.03-1.82-1.58-3.33-3.53-4.39-5.72-1.13-2.35-1.77-4.98-1.77-7.76,0-6.06,3.02-11.41,7.63-14.63-1.55,2.36-2.45,5.18-2.45,8.21,0,6.19,3.74,11.5,9.08,13.8.04.01.07.03.11.04,4.11,1.77,7.28,5.33,8.51,9.69.37,1.31.57,2.68.57,4.1Z"/>
      </g>
      <g>
        <path class="cls-5" d="M93.87,52.28c5.66,0,10.27-4.61,10.27-10.27s-4.61-10.27-10.27-10.27-10.27,4.61-10.27,10.27,4.61,10.27,10.27,10.27ZM93.87,36.03c3.3,0,5.98,2.68,5.98,5.98s-2.68,5.98-5.98,5.98-5.98-2.68-5.98-5.98,2.68-5.98,5.98-5.98Z"/>
        <path class="cls-5" d="M117.24,79.83c-5.11-3.16-10.05-6.44-14.67-9.74-16.59-11.85-30.64-25.07-41.76-39.29-.41-.52-1.03-.82-1.69-.82s-1.28.3-1.69.82c-2.09,2.67-4.27,5.3-6.56,7.89-1.48,1.67-3,3.33-4.55,4.97-4.08,4.3-8.44,8.48-13.07,12.54-.5.44-1.01.88-1.52,1.31-.42.36-.83.72-1.25,1.08-.51.43-1.03.86-1.55,1.29-.43.36-.85.72-1.29,1.07-3.82,3.13-7.81,6.18-11.96,9.14,0,0,0,0,0,0h0c-4.64,3.32-9.58,6.6-14.67,9.74-1.01.62-1.32,1.94-.7,2.95.4.66,1.11,1.02,1.82,1.02.38,0,.77-.1,1.12-.32,3.94-2.43,7.78-4.94,11.48-7.49.82,23.05,19.27,41.68,42.25,42.77v4.83c-9.42.79-17.6,6.75-21.19,15.65,0,0,0,0,0,0-1.21,2.99-1.83,6.16-1.83,9.42v13.11c0,1.18.96,2.14,2.14,2.14h45.93c1.18,0,2.14-.96,2.14-2.14v-15.34c0-.07,0-.14,0-.2,0,0,0,0,0,0,0,0,0-.01,0-.02-.23-2.4-.8-4.74-1.7-6.96,0,0,0,0,0,0-3.59-8.89-11.77-14.86-21.19-15.65v-4.83c22.98-1.1,41.43-19.73,42.25-42.77,3.68,2.54,7.53,5.05,11.48,7.49,1.01.62,2.33.31,2.95-.7.62-1.01.31-2.33-.7-2.95ZM54.73,84.82l-3-1.54c-.88-.45-1.95-.1-2.4.77-.45.88-.1,1.95.77,2.4l6.93,3.55c1.04,1.67,2.32,3.17,3.83,4.47,0,0,.02.02.03.03,0,0,0,0,0,0,0,0,.01.01.02.02,1.14.99,2.08,2.15,2.8,3.44l-7.46-2.89c-.92-.36-1.95.1-2.31,1.02-.36.92.1,1.95,1.02,2.31l10.26,3.97c.09.62.14,1.25.14,1.88,0,.22,0,.44-.02.67,0,.07-.01.13-.01.2-.01.16-.02.31-.04.47,0,.07-.02.15-.03.22-.02.15-.04.29-.06.44-.01.08-.03.15-.04.23-.02.14-.05.28-.08.43-.02.07-.03.15-.05.22-.03.14-.07.28-.1.42-.02.07-.04.14-.06.21-.04.14-.08.28-.13.42-.02.07-.05.14-.07.21-.05.14-.1.28-.15.42-.03.07-.05.13-.08.2-.06.14-.11.28-.17.41-.03.06-.06.13-.08.19-.06.14-.13.27-.2.41-.03.06-.06.12-.09.18-.07.14-.15.27-.22.4-.03.06-.06.12-.1.17-.08.13-.16.27-.25.4-.03.05-.07.11-.1.16-.09.14-.18.27-.28.4-.03.05-.06.09-.1.14-.11.15-.22.29-.34.44-.02.03-.04.06-.07.09-.14.17-.28.34-.43.5-.03.04-.07.07-.1.11-.11.12-.22.23-.33.34-9.51-.96-17.57-7.66-20.2-16.92-.59-2.08-.89-4.25-.89-6.43,0-10.9,7.47-20.09,17.57-22.72-.31.4-.59.82-.86,1.24-.04.06-.07.11-.11.17-.4.64-.77,1.3-1.1,1.98-.02.04-.03.07-.05.11-.32.67-.6,1.36-.85,2.06-.03.08-.05.15-.08.23-.07.21-.14.43-.2.64-.03.11-.06.21-.09.32-.09.32-.17.64-.24.96-.04.17-.08.35-.11.52-.03.16-.06.31-.09.47-.05.29-.09.57-.13.86-.01.1-.02.2-.04.3-.03.29-.06.58-.08.87,0,.1-.01.21-.02.31-.02.36-.03.71-.03,1.07,0,1.86.25,3.67.74,5.42ZM67.12,113.25s.06-.09.08-.14c.05-.08.1-.16.14-.24.11-.2.22-.39.33-.59.04-.08.08-.16.12-.24.08-.17.17-.34.25-.51.04-.09.08-.18.12-.27.1-.22.19-.43.28-.65.03-.08.06-.16.09-.25.06-.17.13-.34.18-.51.03-.09.06-.18.09-.27.07-.23.14-.46.21-.69.02-.08.04-.16.07-.25.05-.19.1-.38.14-.57.02-.07.03-.15.05-.22.05-.25.1-.49.14-.74.01-.07.02-.15.04-.22.04-.23.07-.45.09-.68,0-.04.01-.08.02-.13.02-.22.04-.44.06-.65l3.99-1.38c.93-.32,1.43-1.34,1.1-2.27-.32-.93-1.34-1.42-2.27-1.1l-2.98,1.03c-.59-3.91-2.51-7.51-5.49-10.18l.91-.46c.88-.44,1.24-1.51.8-2.39-.44-.88-1.51-1.24-2.39-.8l-1.88.94c-.61-.81-1.14-1.67-1.58-2.59-1.04-2.14-1.56-4.44-1.56-6.83,0-.28,0-.56.03-.84,0-.07,0-.14.01-.21.02-.23.04-.46.06-.69,0-.05.01-.1.02-.15.07-.59.18-1.18.32-1.75,0,0,0,0,0,0,.14-.56.31-1.12.5-1.66.41,6.42,4.38,12.1,10.37,14.68.04.02.09.04.13.05,3.5,1.53,6.21,4.62,7.25,8.3.32,1.13.49,2.31.49,3.51,0,6.16-4.38,11.43-10.33,12.62ZM79.9,146.53v13.09h-7.27v-9.53c0-1.18-.96-2.14-2.14-2.14s-2.14.96-2.14,2.14v9.53h-7.14v-9.53c0-1.18-.96-2.14-2.14-2.14s-2.14.96-2.14,2.14v9.53h-7.14v-9.53c0-1.18-.96-2.14-2.14-2.14s-2.14.96-2.14,2.14v9.53h-7.27v-10.97c0-2.23.34-4.4,1.02-6.48h39.71c.46,1.41.77,2.87.92,4.36ZM77.03,137.89h-35.8c3.73-6.24,10.45-10.12,17.9-10.12s14.17,3.88,17.9,10.12ZM79.59,108.9c1.36-2.47,2.14-5.29,2.14-8.28,0-1.6-.22-3.18-.65-4.69-1.41-4.99-4.96-9.03-9.73-11.08-.04-.02-.07-.03-.11-.04h0c-4.73-2.03-7.79-6.68-7.79-11.83,0-2.51.73-4.95,2.1-7.04.03-.04.04-.09.07-.13.04-.05.07-.09.11-.13l.02-.03c.44-.62.52-1.44.19-2.14-.35-.76-1.12-1.25-1.96-1.25-15.3,0-27.76,12.45-27.76,27.76,0,2.58.35,5.13,1.05,7.6,1.84,6.49,5.94,11.91,11.31,15.49-17.03-4.64-29.6-20.24-29.6-38.73,0-.48,0-.96.03-1.42.37-.27.73-.54,1.1-.8.48-.35.96-.7,1.43-1.05.5-.37,1-.75,1.5-1.12.47-.35.94-.71,1.4-1.06.5-.38.98-.76,1.47-1.14.46-.36.92-.71,1.37-1.07.49-.39.97-.77,1.45-1.16.45-.36.9-.72,1.34-1.08.48-.39.95-.79,1.43-1.18.44-.36.88-.72,1.31-1.09.47-.4.94-.8,1.41-1.2.42-.36.85-.73,1.27-1.09.47-.41.93-.82,1.39-1.22.41-.37.83-.73,1.24-1.1.46-.41.91-.83,1.37-1.25.4-.37.8-.73,1.2-1.1.45-.42.9-.85,1.35-1.28.39-.37.78-.73,1.16-1.1.45-.43.89-.87,1.34-1.31.37-.36.75-.73,1.11-1.09.45-.44.88-.89,1.33-1.34.36-.36.72-.72,1.07-1.08.44-.46.88-.92,1.32-1.38.34-.36.68-.71,1.02-1.07.45-.48.89-.96,1.33-1.45.31-.34.63-.68.94-1.03.46-.51.91-1.02,1.36-1.54.28-.32.57-.64.85-.96.5-.57.99-1.15,1.48-1.73.22-.26.45-.52.67-.79.71-.84,1.41-1.69,2.09-2.54.69.85,1.39,1.7,2.09,2.54.23.27.46.54.69.81.49.57.97,1.15,1.47,1.71.28.33.58.65.87.98.45.51.89,1.02,1.35,1.52.32.35.64.7.96,1.05.44.48.87.95,1.31,1.42.34.36.69.72,1.03,1.09.43.45.86.91,1.3,1.36.36.37.73.74,1.09,1.11.43.44.86.88,1.3,1.32.38.37.76.75,1.14,1.12.44.43.87.86,1.31,1.28.39.37.79.75,1.18,1.12.44.42.88.84,1.33,1.25.4.37.81.75,1.22,1.12.45.41.89.82,1.35,1.23.42.37.84.74,1.26,1.12.45.4.91.81,1.37,1.21.43.37.86.74,1.29,1.11.46.4.92.79,1.39,1.19.44.37.88.73,1.32,1.1.47.39.94.79,1.42,1.18.44.36.89.72,1.34,1.08.48.39.97.78,1.45,1.16.45.36.91.71,1.36,1.06.49.38.99.77,1.49,1.15.46.35.92.7,1.38,1.05.51.38,1.01.76,1.52,1.14.46.34.93.68,1.4,1.02.38.27.75.55,1.13.82.02.47.03.94.03,1.42,0,14.66-7.9,27.51-19.67,34.51Z"/>
      </g>
    </g>
    <g>
      <g>
        <path class="cls-2" d="M211.63,62.55c-1.24,0-2.19.34-2.85,1.02-.66.68-.99,1.64-.99,2.88v28.11l-22.85-29.65c-.68-.85-1.27-1.46-1.76-1.82-.49-.36-1.23-.54-2.21-.54-1.07,0-1.93.35-2.59,1.06-.66.7-.99,1.72-.99,3.04v38.08c0,1.28.33,2.26.99,2.94.66.68,1.61,1.02,2.85,1.02s2.18-.34,2.82-1.02c.64-.68.96-1.66.96-2.94v-28.19l22.85,29.73c.68.85,1.31,1.47,1.89,1.86.58.38,1.35.58,2.34.58s1.83-.34,2.43-1.02c.6-.68.9-1.62.9-2.82v-38.4c0-1.24-.32-2.2-.96-2.88-.64-.68-1.58-1.02-2.82-1.02Z"/>
        <path class="cls-2" d="M248.88,66.01c-.56-1.24-1.23-2.12-2.02-2.66-.79-.53-1.67-.8-2.66-.8s-1.93.27-2.72.8c-.79.53-1.46,1.42-2.02,2.66l-16.9,37.44c-.43.98-.58,1.87-.45,2.66.13.79.5,1.42,1.12,1.89.62.47,1.44.7,2.46.7,1.11,0,1.96-.28,2.56-.83.6-.55,1.17-1.45,1.73-2.69l3.15-7.42h22.01l3.2,7.42c.51,1.19,1.1,2.08,1.76,2.66.66.58,1.59.86,2.78.86.98,0,1.77-.22,2.37-.67.6-.45.96-1.08,1.09-1.89s-.04-1.71-.51-2.69l-16.96-37.44ZM244.08,71.96h.13l8.16,19.26h-16.38l8.1-19.26Z"/>
        <path class="cls-2" d="M299.44,63.06h-33.15c-1.11,0-1.97.29-2.59.86-.62.58-.93,1.42-.93,2.53s.31,1.91.93,2.53c.62.62,1.48.93,2.59.93h12.48v34.56c0,1.32.35,2.36,1.06,3.1.7.75,1.72,1.12,3.04,1.12s2.39-.37,3.07-1.12c.68-.75,1.02-1.78,1.02-3.1v-34.56h12.48c1.11,0,1.97-.31,2.59-.93.62-.62.93-1.46.93-2.53s-.31-1.95-.93-2.53c-.62-.58-1.48-.86-2.59-.86Z"/>
        <path class="cls-2" d="M341.29,62.55c-1.32,0-2.34.34-3.04,1.02-.7.68-1.06,1.73-1.06,3.14v22.91c0,4.05-.92,7.09-2.75,9.12-1.83,2.03-4.52,3.04-8.06,3.04s-6.24-1.01-8.1-3.04c-1.86-2.03-2.78-5.07-2.78-9.12v-22.91c0-1.41-.35-2.45-1.06-3.14-.7-.68-1.72-1.02-3.04-1.02s-2.34.34-3.04,1.02c-.7.68-1.06,1.73-1.06,3.14v22.98c0,3.16.41,5.93,1.22,8.32.81,2.39,2.03,4.38,3.65,5.98,1.62,1.6,3.62,2.81,5.98,3.62,2.37.81,5.11,1.22,8.22,1.22,4.14,0,7.62-.71,10.43-2.14,2.82-1.43,4.94-3.57,6.37-6.43,1.43-2.86,2.14-6.38,2.14-10.56v-22.98c0-1.41-.35-2.45-1.06-3.14-.7-.68-1.7-1.02-2.98-1.02Z"/>
        <path class="cls-2" d="M385.13,94.29c-.98-1.83-2.12-3.18-3.42-4.03-.61-.4-1.26-.69-1.97-.9,1.1-.26,2.15-.58,3.09-1.02,2.3-1.07,4.06-2.6,5.28-4.61,1.21-2,1.82-4.39,1.82-7.17,0-4.27-1.34-7.58-4.03-9.95-2.69-2.37-6.51-3.55-11.46-3.55h-15.42c-1.32,0-2.35.35-3.07,1.06-.73.7-1.09,1.74-1.09,3.1v37.25c0,1.32.35,2.36,1.06,3.1.7.75,1.72,1.12,3.04,1.12s2.39-.37,3.07-1.12c.68-.75,1.02-1.78,1.02-3.1v-14.34h6.08c1.62,0,2.95.25,4,.74,1.04.49,1.95,1.46,2.72,2.91l6.46,11.9c.55,1.02,1.2,1.78,1.92,2.27.73.49,1.66.74,2.82.74s2.03-.27,2.62-.8c.6-.53.92-1.23.96-2.08.04-.85-.19-1.73-.7-2.62l-4.8-8.9ZM373.03,84.05h-9.98v-14.53h9.98c2.94,0,5.17.61,6.69,1.82s2.27,3.02,2.27,5.41-.76,4.26-2.27,5.47-3.74,1.82-6.69,1.82Z"/>
        <path class="cls-2" d="M421.55,66.01c-.55-1.24-1.23-2.12-2.02-2.66-.79-.53-1.68-.8-2.66-.8s-1.93.27-2.72.8c-.79.53-1.46,1.42-2.02,2.66l-16.9,37.44c-.43.98-.58,1.87-.45,2.66.13.79.5,1.42,1.12,1.89.62.47,1.44.7,2.46.7,1.11,0,1.96-.28,2.56-.83.6-.55,1.17-1.45,1.73-2.69l3.15-7.42h22.01l3.2,7.42c.51,1.19,1.1,2.08,1.76,2.66.66.58,1.59.86,2.78.86.98,0,1.77-.22,2.37-.67s.96-1.08,1.09-1.89-.04-1.71-.51-2.69l-16.96-37.44ZM416.75,71.96h.13l8.16,19.26h-16.38l8.1-19.26Z"/>
        <path class="cls-2" d="M472.3,101.21h-18.56v-34.18c0-1.36-.35-2.4-1.06-3.1-.7-.7-1.72-1.06-3.04-1.06s-2.34.35-3.04,1.06-1.06,1.74-1.06,3.1v36.93c0,1.32.36,2.36,1.09,3.1.73.75,1.75,1.12,3.07,1.12h22.59c1.15,0,2.04-.31,2.66-.93s.93-1.48.93-2.59-.31-1.96-.93-2.56c-.62-.6-1.5-.9-2.66-.9Z"/>
        <path class="cls-2" d="M508.71,69.59c1.07,0,1.89-.29,2.46-.86s.86-1.4.86-2.46-.29-1.81-.86-2.37c-.58-.55-1.4-.83-2.46-.83h-22.85c-1.41,0-2.49.37-3.23,1.12s-1.12,1.82-1.12,3.23v36.42c0,1.41.37,2.49,1.12,3.23.75.75,1.82,1.12,3.23,1.12h22.85c1.07,0,1.89-.28,2.46-.83.58-.55.86-1.37.86-2.43s-.29-1.88-.86-2.43c-.58-.55-1.4-.83-2.46-.83h-19.33v-13.12h17.92c1.11,0,1.94-.28,2.5-.83.55-.55.83-1.36.83-2.43s-.28-1.88-.83-2.43c-.55-.55-1.39-.83-2.5-.83h-17.92v-12.42h19.33Z"/>
        <path class="cls-2" d="M549.03,101.33h-21.66l22.56-30.53c.73-.98,1.21-1.94,1.44-2.88.23-.94.23-1.77,0-2.5-.24-.72-.68-1.3-1.34-1.73-.66-.43-1.53-.64-2.59-.64h-26.5c-1.19,0-2.1.29-2.72.86-.62.58-.93,1.42-.93,2.53s.31,1.96.93,2.56c.62.6,1.53.9,2.72.9h20.66l-22.51,30.53c-.73.98-1.21,1.93-1.44,2.85-.23.92-.23,1.75,0,2.5.23.75.68,1.33,1.34,1.76.66.43,1.52.64,2.59.64h27.46c1.19,0,2.1-.3,2.72-.9.62-.6.93-1.45.93-2.56s-.31-1.95-.93-2.53c-.62-.58-1.53-.86-2.72-.86Z"/>
        <path class="cls-2" d="M598.38,103.45l-16.96-37.44c-.55-1.24-1.23-2.12-2.02-2.66-.79-.53-1.68-.8-2.66-.8s-1.93.27-2.72.8c-.79.53-1.46,1.42-2.02,2.66l-16.9,37.44c-.43.98-.58,1.87-.45,2.66.13.79.5,1.42,1.12,1.89.62.47,1.44.7,2.46.7,1.11,0,1.96-.28,2.56-.83.6-.55,1.17-1.45,1.73-2.69l3.15-7.42h22.01l3.2,7.42c.51,1.19,1.1,2.08,1.76,2.66.66.58,1.59.86,2.78.86.98,0,1.77-.22,2.37-.67s.96-1.08,1.09-1.89-.04-1.71-.51-2.69ZM576.62,71.96h.13l8.16,19.26h-16.38l8.1-19.26Z"/>
      </g>
      <g>
        <g>
          <path class="cls-4" d="M195.74,133.36c.5,0,.88-.13,1.14-.4.26-.26.4-.64.4-1.14,0-.47-.13-.84-.4-1.1-.26-.26-.65-.4-1.14-.4h-16.37c-.65,0-1.14.17-1.47.51-.34.34-.51.83-.51,1.47v27.06c0,.65.17,1.14.51,1.47.34.34.83.51,1.47.51h16.37c.5,0,.88-.13,1.14-.4.26-.26.4-.64.4-1.14,0-.47-.13-.84-.4-1.1-.26-.26-.65-.4-1.14-.4h-14.83v-11.18h13.9c.5,0,.88-.13,1.14-.4.26-.26.4-.64.4-1.14s-.13-.87-.4-1.12c-.26-.25-.65-.37-1.14-.37h-13.9v-10.74h14.83Z"/>
          <path class="cls-4" d="M226.14,155.8c-.24-.21-.53-.31-.88-.33-.35-.01-.75.12-1.19.42-1.09.85-2.27,1.49-3.56,1.91-1.29.43-2.66.64-4.09.64-2.32,0-4.28-.49-5.9-1.47-1.61-.98-2.83-2.42-3.65-4.31-.82-1.89-1.23-4.17-1.23-6.84s.41-4.94,1.23-6.82c.82-1.88,2.04-3.31,3.65-4.29,1.61-.98,3.58-1.47,5.9-1.47,1.47,0,2.83.21,4.09.62,1.26.41,2.42,1.04,3.48,1.89.44.29.84.44,1.19.44s.65-.11.9-.33c.25-.22.42-.5.53-.84.1-.34.09-.69-.04-1.06s-.39-.7-.77-.99c-1.2-1-2.63-1.75-4.27-2.27-1.64-.51-3.37-.77-5.19-.77-2.26,0-4.3.37-6.12,1.12-1.82.75-3.35,1.8-4.6,3.17-1.25,1.36-2.2,3.02-2.86,4.97-.66,1.95-.99,4.16-.99,6.62,0,3.29.58,6.12,1.74,8.49,1.16,2.38,2.82,4.21,4.99,5.5,2.17,1.29,4.78,1.94,7.83,1.94,1.88,0,3.64-.27,5.3-.81s3.1-1.34,4.33-2.4c.35-.26.58-.57.68-.92.1-.35.1-.69,0-1.01-.1-.32-.27-.59-.51-.79Z"/>
          <path class="cls-4" d="M252.21,131.86c-2.13-1.29-4.66-1.94-7.59-1.94-2.17,0-4.13.37-5.87,1.12-1.75.75-3.23,1.8-4.47,3.17-1.23,1.36-2.18,3.02-2.84,4.97-.66,1.95-.99,4.16-.99,6.62,0,3.26.58,6.07,1.74,8.45,1.16,2.38,2.8,4.22,4.93,5.52,2.13,1.3,4.63,1.96,7.5,1.96,2.2,0,4.17-.37,5.92-1.12,1.74-.75,3.23-1.81,4.47-3.19s2.19-3.05,2.86-5.02c.67-1.96,1.01-4.18,1.01-6.64,0-3.26-.58-6.06-1.74-8.43-1.16-2.36-2.8-4.19-4.93-5.48ZM253.82,152.67c-.82,1.91-2,3.36-3.54,4.36s-3.42,1.5-5.65,1.5c-3.26,0-5.79-1.12-7.61-3.37-1.82-2.24-2.73-5.36-2.73-9.35,0-2.67.41-4.95,1.23-6.84.82-1.89,2-3.34,3.54-4.33,1.54-1,3.39-1.5,5.57-1.5,3.34,0,5.92,1.11,7.72,3.32,1.8,2.21,2.71,5.33,2.71,9.35,0,2.67-.41,4.96-1.23,6.86Z"/>
          <path class="cls-4" d="M287.17,148.14h-9.9c-.44,0-.81.14-1.1.42-.29.28-.44.64-.44,1.08,0,.41.15.76.44,1.03.29.28.66.42,1.1.42h9.9c.41,0,.76-.14,1.06-.42.29-.28.44-.62.44-1.03,0-.44-.15-.8-.44-1.08-.29-.28-.65-.42-1.06-.42Z"/>
        </g>
        <g>
          <path class="cls-6" d="M321.05,131.64c-.24-.59-.54-1-.9-1.25-.37-.25-.77-.37-1.21-.37s-.84.12-1.21.37c-.37.25-.68.67-.95,1.25l-12.1,27.54c-.21.47-.29.89-.24,1.25.04.37.21.66.48.88.28.22.65.33,1.12.33s.85-.13,1.14-.4.57-.67.84-1.23l2.82-6.6h16.15l2.86,6.6c.21.53.47.93.79,1.21s.75.42,1.28.42c.47,0,.84-.1,1.1-.31.26-.21.42-.5.46-.88.04-.38-.05-.81-.29-1.28l-12.14-27.54ZM318.89,134.55h.09l6.73,15.84h-13.55l6.73-15.84Z"/>
          <path class="cls-6" d="M367.07,130.01c-.5,0-.88.1-1.14.29-.26.19-.51.51-.75.95l-11.35,21.46-11.39-21.46c-.24-.44-.49-.75-.77-.95-.28-.19-.65-.29-1.12-.29-.53,0-.94.15-1.23.44-.29.29-.44.73-.44,1.32v28.12c0,.56.15.99.44,1.3.29.31.7.46,1.23.46s.93-.15,1.21-.46c.28-.31.42-.74.42-1.3v-22.81l10.08,18.72c.18.35.38.62.62.79.23.18.56.26.97.26s.73-.08.95-.24c.22-.16.43-.43.64-.81l9.94-18.66v22.75c0,.56.15.99.44,1.3.29.31.7.46,1.23.46.56,0,.97-.15,1.25-.46.28-.31.42-.74.42-1.3v-28.12c0-.59-.15-1.03-.44-1.32s-.69-.44-1.19-.44Z"/>
          <path class="cls-6" d="M378.2,130.01c-.59,0-1.03.16-1.34.48-.31.32-.46.79-.46,1.41v27.85c0,.59.15,1.05.46,1.39s.75.51,1.34.51c.62,0,1.07-.17,1.36-.51.29-.34.44-.8.44-1.39v-27.85c0-.62-.15-1.08-.46-1.41-.31-.32-.75-.48-1.34-.48Z"/>
          <path class="cls-6" d="M410.72,145.19h-7.88c-.53,0-.92.12-1.19.35-.26.24-.4.59-.4,1.06,0,.44.13.79.4,1.06s.66.4,1.19.4h6.29v9.17c-.97.36-1.97.66-3.04.88-1.35.28-2.73.42-4.14.42-3.87,0-6.77-1.08-8.69-3.26-1.92-2.17-2.88-5.31-2.88-9.42,0-2.7.42-4.99,1.25-6.86s2.07-3.31,3.7-4.31c1.63-1,3.62-1.5,5.96-1.5,1.64,0,3.14.21,4.49.64,1.35.43,2.62,1.11,3.83,2.05.35.23.7.34,1.03.31.34-.03.62-.15.84-.37.22-.22.38-.49.48-.81.1-.32.11-.64.02-.97-.09-.32-.31-.62-.66-.88-1.35-1.11-2.89-1.93-4.62-2.44-1.73-.51-3.52-.77-5.37-.77-2.32,0-4.39.37-6.23,1.12-1.83.75-3.39,1.8-4.66,3.17-1.28,1.36-2.24,3.03-2.9,4.99-.66,1.97-.99,4.18-.99,6.64,0,3.32.59,6.16,1.76,8.54,1.17,2.38,2.9,4.2,5.17,5.46,2.27,1.26,5.07,1.89,8.38,1.89,1.61,0,3.28-.17,4.99-.51s3.19-.75,4.42-1.25c.35-.15.6-.37.75-.66.15-.29.22-.66.22-1.1v-11.48c0-.5-.13-.88-.4-1.14-.26-.26-.65-.4-1.14-.4Z"/>
          <path class="cls-6" d="M433.99,131.64c-.24-.59-.54-1-.9-1.25-.37-.25-.77-.37-1.21-.37s-.84.12-1.21.37c-.37.25-.68.67-.95,1.25l-12.1,27.54c-.21.47-.29.89-.24,1.25.04.37.21.66.48.88.28.22.65.33,1.12.33s.85-.13,1.14-.4.57-.67.84-1.23l2.82-6.6h16.15l2.86,6.6c.21.53.47.93.79,1.21s.75.42,1.28.42c.47,0,.84-.1,1.1-.31.26-.21.42-.5.46-.88.04-.38-.05-.81-.29-1.28l-12.14-27.54ZM431.84,134.55h.09l6.73,15.84h-13.55l6.73-15.84Z"/>
          <path class="cls-6" d="M469.17,145.44c1.33-.47,2.44-1.2,3.3-2.18,1.13-1.29,1.69-2.9,1.69-4.84,0-1.73-.4-3.2-1.19-4.4-.79-1.2-1.93-2.12-3.41-2.75-1.48-.63-3.29-.95-5.43-.95h-10.43c-.65,0-1.14.17-1.47.51-.34.34-.51.83-.51,1.47v27.06c0,.65.17,1.14.51,1.47.34.34.83.51,1.47.51h10.96c3.26,0,5.78-.73,7.57-2.2,1.79-1.47,2.68-3.58,2.68-6.34,0-2.17-.62-3.92-1.87-5.24-.99-1.04-2.29-1.74-3.87-2.13ZM455.24,133.23h8.36c2.29,0,4.03.46,5.21,1.39,1.19.92,1.78,2.3,1.78,4.11s-.59,3.11-1.78,4.05c-1.19.94-2.93,1.41-5.21,1.41h-8.36v-10.96ZM469.59,157.03c-1.17.94-2.93,1.41-5.28,1.41h-9.06v-11.35h9.06c2.35,0,4.11.46,5.28,1.39,1.17.92,1.76,2.35,1.76,4.29s-.59,3.33-1.76,4.27Z"/>
          <path class="cls-6" d="M499.51,158.17h-14.43v-26.18c0-.62-.15-1.08-.46-1.41-.31-.32-.75-.48-1.34-.48s-1.03.16-1.34.48c-.31.32-.46.79-.46,1.41v27.46c0,.59.16,1.05.48,1.39.32.34.78.51,1.36.51h16.19c.53,0,.94-.14,1.23-.42.29-.28.44-.67.44-1.17s-.15-.89-.44-1.17c-.29-.28-.7-.42-1.23-.42Z"/>
          <path class="cls-6" d="M523.71,158.31h-14.83v-11.18h13.9c.5,0,.88-.13,1.14-.4s.4-.64.4-1.14-.13-.87-.4-1.12c-.26-.25-.65-.37-1.14-.37h-13.9v-10.74h14.83c.5,0,.88-.13,1.14-.4.26-.26.4-.64.4-1.14,0-.47-.13-.84-.4-1.1-.26-.26-.65-.4-1.14-.4h-16.37c-.65,0-1.14.17-1.47.51-.34.34-.51.83-.51,1.47v27.06c0,.65.17,1.14.51,1.47.34.34.83.51,1.47.51h16.37c.5,0,.88-.13,1.14-.4s.4-.64.4-1.14c0-.47-.13-.84-.4-1.1s-.65-.4-1.14-.4Z"/>
        </g>
      </g>
    </g>
  </g>
</svg>