<svg xmlns="http://www.w3.org/2000/svg" id="Capa_2" data-name="Capa 2" viewBox="0 0 598.92 133.93"><defs/><g data-name="Capa 2"><g id="Capa_2-2" data-name="Capa 2-2"><g id="Capa_2-2-2" data-name="Capa 2-2"><path d="M93.88 22.31a10.28 10.28 0 1 0-.02-20.56 10.28 10.28 0 0 0 .02 20.56Zm0-16.25a5.99 5.99 0 1 1-.01 11.97 5.99 5.99 0 0 1 .01-11.97ZM117.24 49.86a266.64 266.64 0 0 1-14.67-9.74C85.99 28.26 71.94 15.04 60.82.82a2.15 2.15 0 0 0-3.38 0 170.2 170.2 0 0 1-11.11 12.86 200.1 200.1 0 0 1-13.07 12.54l-1.53 1.31-1.25 1.08-1.55 1.29c-.43.36-.85.72-1.29 1.07a225.2 225.2 0 0 1-11.96 9.14c-4.64 3.32-9.58 6.6-14.67 9.74a2.14 2.14 0 1 0 2.25 3.65c3.94-2.43 7.79-4.95 11.48-7.49a44.47 44.47 0 0 0 42.24 42.77v4.83a25.05 25.05 0 0 0-21.19 15.64 25 25 0 0 0-1.82 9.42v13.11c0 1.18.96 2.14 2.14 2.14h45.93c1.18 0 2.14-.96 2.14-2.14v-15.34l-.01-.2v-.03a25.06 25.06 0 0 0-22.9-22.61v-4.83A44.47 44.47 0 0 0 103.51 46c3.68 2.54 7.53 5.05 11.48 7.49a2.14 2.14 0 1 0 2.25-3.65Zm-62.5 4.99-2.99-1.54a1.78 1.78 0 1 0-1.62 3.18l6.93 3.56a19.44 19.44 0 0 0 3.83 4.47l.03.03.03.03c1.14.98 2.08 2.15 2.8 3.44l-7.46-2.89A1.78 1.78 0 1 0 55 68.46l10.26 3.97c.09.62.14 1.25.14 1.88 0 .22 0 .45-.02.67l-.01.19-.04.47c0 .08-.02.15-.03.23l-.06.43-.04.23-.08.43-.05.22-.1.43-.06.21-.13.42-.07.21-.15.42-.08.2-.17.41-.08.19-.19.41-.09.18-.22.4-.1.17-.25.4-.1.16a5.7 5.7 0 0 1-.38.54 7.13 7.13 0 0 1-.4.51l-.43.5-.1.11-.33.34a23.48 23.48 0 0 1-3.52-46.07c-.3.4-.59.81-.87 1.24l-.11.17c-.4.64-.77 1.3-1.1 1.98l-.05.11c-.32.67-.6 1.36-.85 2.06l-.08.23a15.7 15.7 0 0 0-.53 1.92l-.11.52-.09.47c-.05.28-.1.57-.13.86l-.03.3-.08.87-.02.31a20.03 20.03 0 0 0 .71 6.49h-.03Zm12.39 28.43.08-.14.14-.24c.12-.19.23-.39.33-.59l.12-.24.25-.5.12-.27.28-.65.09-.25.19-.51.09-.27.21-.69c.03-.08.05-.16.06-.25l.14-.57.05-.22.14-.74.03-.22.09-.68.01-.12c.03-.22.05-.43.06-.65l3.99-1.38a1.8 1.8 0 0 0 1.11-2.27 1.8 1.8 0 0 0-2.27-1.11l-2.98 1.03a17.16 17.16 0 0 0-5.48-10.18l.91-.46a1.78 1.78 0 0 0-1.59-3.19l-1.88.94a15.64 15.64 0 0 1-3.11-10.26l.01-.21.06-.69.02-.15a15.86 15.86 0 0 1 .82-3.41 17.17 17.17 0 0 0 10.37 14.68l.13.05a12.87 12.87 0 0 1 7.73 11.81c0 6.16-4.38 11.43-10.33 12.62Zm12.77 33.28v13.09h-7.27v-9.53a2.14 2.14 0 0 0-4.28 0v9.53h-7.14v-9.53a2.14 2.14 0 0 0-4.28 0v9.53h-7.14v-9.53a2.14 2.14 0 0 0-4.28 0v9.53h-7.27v-10.97c0-2.22.34-4.4 1.02-6.48h39.71c.46 1.41.77 2.87.92 4.36Zm-2.87-8.65h-35.8c3.73-6.23 10.46-10.12 17.9-10.12s14.17 3.88 17.9 10.12Zm2.57-28.99a17.11 17.11 0 0 0 1.48-12.97 17.06 17.06 0 0 0-9.82-11.13 12.88 12.88 0 0 1-5.63-19l.1-.14.02-.03a2.16 2.16 0 0 0-1.76-3.39 27.78 27.78 0 0 0-26.7 35.35A27.74 27.74 0 0 0 48.6 83.1a40.2 40.2 0 0 1-29.59-38.72c0-.48 0-.96.03-1.42l1.1-.8 1.44-1.05 1.5-1.13 1.4-1.06 1.47-1.14 1.37-1.07 1.45-1.16 1.34-1.08 1.43-1.18 1.31-1.09 1.41-1.2 1.27-1.09 1.39-1.22 1.24-1.1 1.36-1.25 1.2-1.1 1.35-1.27 1.16-1.1 1.34-1.31a113.07 113.07 0 0 0 2.44-2.43l1.07-1.09 1.32-1.38 1.02-1.07 1.33-1.45.94-1.03 1.36-1.54.85-.96 1.48-1.73.67-.79c.71-.85 1.41-1.69 2.09-2.54.69.85 1.38 1.7 2.09 2.54l.69.81c.48.58.97 1.14 1.47 1.71l.87.98c.45.5.89 1.02 1.35 1.52l.96 1.05 1.31 1.42 1.03 1.09 1.3 1.36 1.09 1.11 1.3 1.32 1.14 1.12 1.31 1.28 1.18 1.12 1.33 1.25 1.22 1.12 1.35 1.23c.41.38.83.74 1.25 1.11l1.36 1.21 1.29 1.11 1.39 1.19c.43.37.88.73 1.32 1.09l1.42 1.18 1.34 1.08 1.45 1.16 1.36 1.07 1.49 1.15 1.38 1.05 1.53 1.14c.47.34.93.69 1.4 1.02l1.13.83A40.14 40.14 0 0 1 79.6 78.9l-.04.03Z" class="cls-2"/></g><path d="M211.63 32.57c-1.24 0-2.19.34-2.85 1.02s-.99 1.64-.99 2.88v28.11l-22.85-29.65a10.3 10.3 0 0 0-1.76-1.82 3.73 3.73 0 0 0-2.21-.54c-1.07 0-1.93.35-2.59 1.06-.66.7-.99 1.72-.99 3.04v38.08c0 1.28.33 2.26.99 2.94s1.61 1.02 2.85 1.02 2.18-.34 2.82-1.02c.64-.68.96-1.66.96-2.94V46.56l22.85 29.73a9.03 9.03 0 0 0 1.89 1.86c.58.38 1.35.58 2.34.58s1.83-.34 2.43-1.02c.6-.68.9-1.62.9-2.82v-38.4c0-1.24-.32-2.2-.96-2.88-.64-.68-1.58-1.02-2.82-1.02v-.02ZM248.88 36.03a6.2 6.2 0 0 0-2.02-2.66c-.79-.53-1.67-.8-2.66-.8s-1.93.27-2.72.8a6.13 6.13 0 0 0-2.02 2.66l-16.9 37.44c-.43.98-.58 1.87-.45 2.66s.5 1.42 1.12 1.89 1.44.7 2.46.7c1.11 0 1.96-.28 2.56-.83a8.32 8.32 0 0 0 1.73-2.69l3.15-7.42h22.01l3.2 7.42c.51 1.19 1.1 2.08 1.76 2.66s1.59.86 2.78.86c.98 0 1.77-.22 2.37-.67s.96-1.08 1.09-1.89-.04-1.71-.51-2.69l-16.96-37.44h.01Zm-4.8 5.95h.13l8.16 19.26h-16.38l8.1-19.26h-.01ZM299.44 33.08h-33.15c-1.11 0-1.97.29-2.59.86-.62.58-.93 1.42-.93 2.53s.31 1.91.93 2.53a3.5 3.5 0 0 0 2.59.93h12.48v34.56a4.3 4.3 0 0 0 1.06 3.1c.7.75 1.72 1.12 3.04 1.12s2.39-.37 3.07-1.12 1.02-1.78 1.02-3.1V39.93h12.48c1.11 0 1.97-.31 2.59-.93s.93-1.46.93-2.53-.31-1.95-.93-2.53-1.48-.86-2.59-.86ZM341.29 32.57c-1.32 0-2.34.34-3.04 1.02s-1.06 1.73-1.06 3.14v22.91c0 4.05-.92 7.09-2.75 9.12-1.83 2.03-4.52 3.04-8.06 3.04s-6.24-1.01-8.1-3.04c-1.86-2.03-2.78-5.07-2.78-9.12V36.73c0-1.41-.35-2.45-1.06-3.14-.7-.68-1.72-1.02-3.04-1.02s-2.34.34-3.04 1.02-1.06 1.73-1.06 3.14v22.98c0 3.16.41 5.93 1.22 8.32s2.03 4.38 3.65 5.98a15.57 15.57 0 0 0 5.98 3.62 25.4 25.4 0 0 0 8.22 1.22c4.14 0 7.62-.71 10.43-2.14 2.82-1.43 4.94-3.57 6.37-6.43s2.14-6.38 2.14-10.56V36.74c0-1.41-.35-2.45-1.06-3.14a4.11 4.11 0 0 0-2.98-1.02h.02ZM385.13 64.31a10.71 10.71 0 0 0-3.42-4.03 7.33 7.33 0 0 0-1.97-.9 16 16 0 0 0 3.09-1.02 11.8 11.8 0 0 0 5.28-4.61 13.6 13.6 0 0 0 1.82-7.17c0-4.27-1.34-7.58-4.03-9.95-2.69-2.37-6.51-3.55-11.46-3.55h-15.42c-1.32 0-2.35.35-3.07 1.06-.73.7-1.09 1.74-1.09 3.1v37.25a4.3 4.3 0 0 0 1.06 3.1c.7.75 1.72 1.12 3.04 1.12s2.39-.37 3.07-1.12 1.02-1.78 1.02-3.1V60.15h6.08c1.62 0 2.95.25 4 .74a6.3 6.3 0 0 1 2.72 2.91l6.46 11.9a6.3 6.3 0 0 0 1.92 2.27c.73.49 1.66.74 2.82.74s2.03-.27 2.62-.8c.6-.53.92-1.23.96-2.08a4.8 4.8 0 0 0-.7-2.62l-4.8-8.9Zm-12.1-10.24h-9.98V39.54h9.98c2.94 0 5.17.61 6.69 1.82s2.27 3.02 2.27 5.41-.76 4.26-2.27 5.47-3.74 1.82-6.69 1.82ZM421.55 36.03a6.12 6.12 0 0 0-2.02-2.66 4.87 4.87 0 0 0-5.38 0 6.13 6.13 0 0 0-2.02 2.66l-16.9 37.44a4.73 4.73 0 0 0-.45 2.66c.13.79.5 1.42 1.12 1.89s1.44.7 2.46.7c1.11 0 1.96-.28 2.56-.83s1.17-1.45 1.73-2.69l3.15-7.42h22.01l3.2 7.42c.51 1.19 1.1 2.08 1.76 2.66s1.59.86 2.78.86c.98 0 1.77-.22 2.37-.67s.96-1.08 1.09-1.89-.04-1.71-.51-2.69l-16.96-37.44Zm-4.8 5.95h.13l8.16 19.26h-16.38l8.1-19.26h-.01ZM472.3 71.23h-18.56V37.05c0-1.36-.35-2.4-1.06-3.1-.7-.7-1.72-1.06-3.04-1.06s-2.34.35-3.04 1.06c-.7.71-1.06 1.74-1.06 3.1v36.93c0 1.32.36 2.36 1.09 3.1a4.08 4.08 0 0 0 3.07 1.12h22.59c1.15 0 2.04-.31 2.66-.93s.93-1.48.93-2.59-.31-1.96-.93-2.56-1.5-.9-2.66-.9h.01ZM508.71 39.61c1.07 0 1.89-.29 2.46-.86s.86-1.4.86-2.46-.29-1.81-.86-2.37a3.44 3.44 0 0 0-2.46-.83h-22.85c-1.41 0-2.49.37-3.23 1.12s-1.12 1.82-1.12 3.23v36.42c0 1.41.37 2.49 1.12 3.23.75.75 1.82 1.12 3.23 1.12h22.85c1.07 0 1.89-.28 2.46-.83.58-.55.86-1.37.86-2.43s-.29-1.88-.86-2.43a3.44 3.44 0 0 0-2.46-.83h-19.33V58.57h17.92c1.11 0 1.94-.28 2.5-.83.55-.55.83-1.36.83-2.43s-.28-1.88-.83-2.43-1.39-.83-2.5-.83h-17.92V39.63h19.33v-.02ZM549.03 71.35h-21.66l22.56-30.53a8.1 8.1 0 0 0 1.44-2.88 4.6 4.6 0 0 0 0-2.5 3.23 3.23 0 0 0-1.34-1.73 4.69 4.69 0 0 0-2.59-.64h-26.5c-1.19 0-2.1.29-2.72.86-.62.58-.93 1.42-.93 2.53s.31 1.96.93 2.56 1.53.9 2.72.9h20.66l-22.51 30.53c-.73.98-1.21 1.93-1.44 2.85s-.23 1.75 0 2.5.68 1.33 1.34 1.76c.66.43 1.52.64 2.59.64h27.46c1.19 0 2.1-.3 2.72-.9s.93-1.45.93-2.56-.31-1.95-.93-2.53-1.53-.86-2.72-.86h-.01ZM598.38 73.47l-16.96-37.44a6.12 6.12 0 0 0-2.02-2.66 4.87 4.87 0 0 0-5.38 0 6.13 6.13 0 0 0-2.02 2.66l-16.9 37.44c-.43.98-.58 1.87-.45 2.66s.5 1.42 1.12 1.89 1.44.7 2.46.7c1.11 0 1.96-.28 2.56-.83s1.17-1.45 1.73-2.69l3.15-7.42h22.01l3.2 7.42a7.36 7.36 0 0 0 1.76 2.66c.66.58 1.59.86 2.78.86.98 0 1.77-.22 2.37-.67s.96-1.08 1.09-1.89-.04-1.71-.51-2.69Zm-21.76-31.49h.13l8.16 19.26h-16.38l8.1-19.26ZM195.74 103.38c.5 0 .88-.13 1.14-.4.26-.26.4-.64.4-1.14 0-.47-.13-.84-.4-1.1-.26-.26-.65-.4-1.14-.4h-16.37c-.65 0-1.14.17-1.47.51-.34.34-.51.83-.51 1.47v27.06c0 .65.17 1.14.51 1.47.34.34.83.51 1.47.51h16.37c.5 0 .88-.13 1.14-.4.26-.26.4-.64.4-1.14 0-.47-.13-.84-.4-1.1-.26-.26-.65-.4-1.14-.4h-14.83v-11.18h13.9c.5 0 .88-.13 1.14-.4.26-.26.4-.64.4-1.14s-.13-.87-.4-1.12c-.26-.25-.65-.37-1.14-.37h-13.9v-10.74h14.83ZM226.14 125.82a1.4 1.4 0 0 0-.88-.33c-.35 0-.75.12-1.19.42a11.58 11.58 0 0 1-3.56 1.91c-1.29.43-2.66.64-4.09.64-2.32 0-4.28-.49-5.9-1.47a9.15 9.15 0 0 1-3.65-4.31c-.82-1.89-1.23-4.17-1.23-6.84s.41-4.94 1.23-6.82c.82-1.88 2.04-3.31 3.65-4.29s3.58-1.47 5.9-1.47c1.47 0 2.83.21 4.09.62 1.26.41 2.42 1.04 3.48 1.89.44.29.84.44 1.19.44s.65-.11.9-.33.42-.5.53-.84c.1-.34.09-.69-.04-1.06s-.39-.7-.77-.99c-1.2-1-2.63-1.75-4.27-2.27a17.38 17.38 0 0 0-5.19-.77c-2.26 0-4.3.37-6.12 1.12-1.82.75-3.35 1.8-4.6 3.17-1.25 1.36-2.2 3.02-2.86 4.97s-.99 4.16-.99 6.62c0 3.29.58 6.12 1.74 8.49 1.16 2.38 2.82 4.21 4.99 5.5s4.78 1.94 7.83 1.94c1.88 0 3.64-.27 5.3-.81s3.1-1.34 4.33-2.4c.35-.26.58-.57.68-.92a1.74 1.74 0 0 0-.51-1.8h.01ZM252.21 101.88a14.37 14.37 0 0 0-7.59-1.94c-2.17 0-4.13.37-5.87 1.12-1.75.75-3.23 1.8-4.47 3.17-1.23 1.36-2.18 3.02-2.84 4.97s-.99 4.16-.99 6.62c0 3.26.58 6.07 1.74 8.45a12.92 12.92 0 0 0 4.93 5.52 14.12 14.12 0 0 0 7.5 1.96c2.2 0 4.17-.37 5.92-1.12a12.66 12.66 0 0 0 4.47-3.19 14.27 14.27 0 0 0 2.86-5.02 20.49 20.49 0 0 0 1.01-6.64c0-3.26-.58-6.06-1.74-8.43a12.87 12.87 0 0 0-4.93-5.48Zm1.61 20.81c-.82 1.91-2 3.36-3.54 4.36s-3.42 1.5-5.65 1.5c-3.26 0-5.79-1.12-7.61-3.37-1.82-2.24-2.73-5.36-2.73-9.35 0-2.67.41-4.95 1.23-6.84.82-1.89 2-3.34 3.54-4.33 1.54-1 3.39-1.5 5.57-1.5 3.34 0 5.92 1.11 7.72 3.32s2.71 5.33 2.71 9.35c0 2.67-.41 4.96-1.23 6.86h-.01ZM287.17 118.16h-9.9c-.44 0-.81.14-1.1.42s-.44.64-.44 1.08c0 .41.15.76.44 1.03.29.28.66.42 1.1.42h9.9c.41 0 .76-.14 1.06-.42.29-.28.44-.62.44-1.03a1.48 1.48 0 0 0-1.5-1.5ZM321.05 101.66a2.7 2.7 0 0 0-.9-1.25c-.37-.25-.77-.37-1.21-.37s-.84.12-1.21.37-.68.67-.95 1.25l-12.1 27.54c-.21.47-.29.89-.24 1.25.04.37.21.66.48.88.28.22.65.33 1.12.33s.85-.13 1.14-.4.57-.67.84-1.23l2.82-6.6h16.15l2.86 6.6c.21.53.47.93.79 1.21s.75.42 1.28.42c.47 0 .84-.1 1.1-.31.26-.21.42-.5.46-.88a2.3 2.3 0 0 0-.29-1.28l-12.14-27.54Zm-2.16 2.91h.09l6.73 15.84h-13.55l6.73-15.84ZM367.07 100.03c-.5 0-.88.1-1.14.29-.26.19-.51.51-.75.95l-11.35 21.46-11.39-21.46a2.74 2.74 0 0 0-.77-.95 1.96 1.96 0 0 0-1.12-.29c-.53 0-.94.15-1.23.44-.29.29-.44.73-.44 1.32v28.12c0 .56.15.99.44 1.3s.7.46 1.23.46.93-.15 1.21-.46c.28-.31.42-.74.42-1.3V107.1l10.08 18.72c.18.35.38.62.62.79.23.18.56.26.97.26s.73-.08.95-.24.43-.43.64-.81l9.94-18.66v22.75c0 .56.15.99.44 1.3s.7.46 1.23.46c.56 0 .97-.15 1.25-.46.28-.31.42-.74.42-1.3v-28.12c0-.59-.15-1.03-.44-1.32s-.69-.44-1.19-.44h-.02ZM378.2 100.03c-.59 0-1.03.16-1.34.48-.31.32-.46.79-.46 1.41v27.85c0 .59.15 1.05.46 1.39s.75.51 1.34.51c.62 0 1.07-.17 1.36-.51.29-.34.44-.8.44-1.39v-27.85c0-.62-.15-1.08-.46-1.41-.31-.32-.75-.48-1.34-.48ZM410.72 115.21h-7.88c-.53 0-.92.12-1.19.35-.26.24-.4.59-.4 1.06 0 .44.13.79.4 1.06s.66.4 1.19.4h6.29v9.17a20.6 20.6 0 0 1-7.18 1.3c-3.87 0-6.77-1.08-8.69-3.26-1.92-2.17-2.88-5.31-2.88-9.42 0-2.7.42-4.99 1.25-6.86s2.07-3.31 3.7-4.31 3.62-1.5 5.96-1.5c1.64 0 3.14.21 4.49.64 1.35.43 2.62 1.11 3.83 2.05.35.23.7.34 1.03.31.34-.03.62-.15.84-.37s.38-.49.48-.81c.1-.32.11-.64.02-.97a1.69 1.69 0 0 0-.66-.88 12.98 12.98 0 0 0-4.62-2.44 18.9 18.9 0 0 0-5.37-.77c-2.32 0-4.39.37-6.23 1.12-1.83.75-3.39 1.8-4.66 3.17a13.4 13.4 0 0 0-2.9 4.99 20.82 20.82 0 0 0-.99 6.64c0 3.32.59 6.16 1.76 8.54a12.3 12.3 0 0 0 5.17 5.46c2.27 1.26 5.07 1.89 8.38 1.89 1.61 0 3.28-.17 4.99-.51s3.19-.75 4.42-1.25c.35-.15.6-.37.75-.66.15-.29.22-.66.22-1.1v-11.48c0-.5-.13-.88-.4-1.14-.26-.26-.65-.4-1.14-.4l.02-.02ZM433.99 101.66a2.7 2.7 0 0 0-.9-1.25c-.37-.25-.77-.37-1.21-.37s-.84.12-1.21.37-.68.67-.95 1.25l-12.1 27.54c-.21.47-.29.89-.24 1.25.04.37.21.66.48.88.28.22.65.33 1.12.33s.85-.13 1.14-.4.57-.67.84-1.23l2.82-6.6h16.15l2.86 6.6c.21.53.47.93.79 1.21s.75.42 1.28.42c.47 0 .84-.1 1.1-.31.26-.21.42-.5.46-.88a2.3 2.3 0 0 0-.29-1.28l-12.14-27.54Zm-2.15 2.91h.09l6.73 15.84h-13.55l6.73-15.84ZM469.17 115.46a7.07 7.07 0 0 0 4.99-7.02c0-1.73-.4-3.2-1.19-4.4s-1.93-2.12-3.41-2.75-3.29-.95-5.43-.95H453.7c-.65 0-1.14.17-1.47.51-.34.34-.51.83-.51 1.47v27.06c0 .65.17 1.14.51 1.47.34.34.83.51 1.47.51h10.96c3.26 0 5.78-.73 7.57-2.2s2.68-3.58 2.68-6.34c0-2.17-.62-3.92-1.87-5.24a7.77 7.77 0 0 0-3.87-2.13Zm-13.93-12.21h8.36c2.29 0 4.03.46 5.21 1.39 1.19.92 1.78 2.3 1.78 4.11s-.59 3.11-1.78 4.05-2.93 1.41-5.21 1.41h-8.36v-10.96Zm14.35 23.8c-1.17.94-2.93 1.41-5.28 1.41h-9.06v-11.35h9.06c2.35 0 4.11.46 5.28 1.39 1.17.92 1.76 2.35 1.76 4.29s-.59 3.33-1.76 4.27ZM499.51 128.19h-14.43v-26.18c0-.62-.15-1.08-.46-1.41-.31-.32-.75-.48-1.34-.48s-1.03.16-1.34.48c-.31.32-.46.79-.46 1.41v27.46c0 .59.16 1.05.48 1.39s.78.51 1.36.51h16.19c.53 0 .94-.14 1.23-.42s.44-.67.44-1.17-.15-.89-.44-1.17-.7-.42-1.23-.42ZM523.71 128.33h-14.83v-11.18h13.9c.5 0 .88-.13 1.14-.4s.4-.64.4-1.14-.13-.87-.4-1.12c-.26-.25-.65-.37-1.14-.37h-13.9v-10.74h14.83c.5 0 .88-.13 1.14-.4.26-.26.4-.64.4-1.14 0-.47-.13-.84-.4-1.1-.26-.26-.65-.4-1.14-.4h-16.37c-.65 0-1.14.17-1.47.51-.34.34-.51.83-.51 1.47v27.06c0 .65.17 1.14.51 1.47.34.34.83.51 1.47.51h16.37c.5 0 .88-.13 1.14-.4s.4-.64.4-1.14c0-.47-.13-.84-.4-1.1s-.65-.4-1.14-.4Z" class="cls-1"/></g></g></svg>