<svg width="125" height="63" viewBox="0 0 125 63" fill="none" xmlns="http://www.w3.org/2000/svg">
<path d="M15.3082 10.0473L23.1424 9.59095L23.4467 8.60216C23.2945 8.0951 22.9751 7.08096 22.9142 7.08096C22.8534 7.08096 21.9255 5.35693 21.4691 4.49491L19.4915 2.59341L17.6661 1.30039L14.0913 0.615845L11.7334 0.996146L9.67977 2.21311L9.14734 4.34279L10.7446 6.6246L9.14734 6.47248L6.48524 7.08096L3.74707 9.2867L3.97525 11.5685L8.15856 14.3827L15.3082 10.0473Z" fill="#EC352F"/>
<path d="M9.07129 4.03879L11.201 6.92907C10.5925 5.02757 10.2883 3.88667 11.5052 2.89788C15.8406 0.387898 21.209 5.30499 23.0664 9.51512V7.46149L22.0776 5.78817L20.7085 4.03879L19.1112 2.59364L16.9055 1.22456L15.08 0.692139H13.0264L10.5925 1.22456L9.67977 2.44152L9.07129 4.03879Z" fill="white"/>
<path d="M4.35454 30.5841L2.45304 22.7499L1.46426 24.0429L0.931835 25.412L0.551534 27.4656L0.399414 29.4432L0.931835 32.1053V33.018C0.931835 33.1701 1.08396 33.6265 1.16002 33.7786C1.23608 33.9307 1.31214 34.3871 1.46426 34.6913C1.61638 34.9956 1.69244 35.604 1.69244 35.9083C1.69244 36.1517 1.79385 36.5675 1.84456 36.745L1.69244 37.4295L2.30092 38.7225L4.35454 43.8946L6.17999 50.1315L7.70119 56.2164L8.08149 60.7039L10.6675 57.1291L11.9606 51.6527V48.0779L10.1351 42.1452L6.71241 36.2886L4.35454 30.5841Z" fill="black"/>
<path d="M25.956 23.2062L26.7166 21.3808H26.9447C26.6151 21.1779 25.956 20.7571 25.956 20.6962C25.956 20.6354 25.1447 20.4173 24.739 20.3159L23.9784 21.0765L22.8375 22.4456L20.0993 24.1189L17.8175 24.4992H15.916L16.3724 24.9556C16.778 25.2852 17.635 25.9748 17.8175 26.0965C18.0457 26.2486 19.2627 27.3895 19.4908 27.6177C19.6734 27.8002 21.1895 29.0121 21.9248 29.5953C23.1924 31.4461 25.7734 35.1477 25.956 35.1477C26.1385 35.1477 26.894 35.4012 27.249 35.528L29.3787 35.1477L31.1281 32.6377L30.2914 30.4319L27.7814 27.998L25.956 24.9556V23.2062Z" fill="#EC352F"/>
<path d="M28.0853 35.3752L27.3247 34.9949C30.6494 33.5883 29.3023 31.0398 26.6402 27.7692C26.1449 27.1607 24.9668 25.2592 25.195 24.1943L26.488 25.6395L28.7699 28.5298L29.7586 29.5185L30.8235 31.1158V32.4088L30.4432 33.6258L29.9108 34.9949L28.0853 35.3752Z" fill="white"/>
<path d="M15.0787 10.1993L10.8193 12.7093C10.1094 13.115 8.64401 13.9415 8.46146 14.0023C8.27892 14.0632 7.82763 14.839 7.6248 15.2193L6.8642 16.7405L6.33178 18.1096C6.12895 19.0477 5.70809 20.9542 5.64724 21.0759C5.58639 21.1976 5.52047 22.3436 5.49512 22.9014L7.2445 28.9101L10.2869 34.3865L13.5575 39.4064L15.7632 43.894L17.2084 48.8379L17.5887 50.8915V53.4776L16.9041 57.1285L19.8705 54.8467L23.9017 50.6633L24.6623 49.3703L25.2708 48.0012L26.792 45.7194L27.7047 40.7755L27.1723 37.2768L24.7383 33.6259L23.2171 31.9525L21.6959 30.1271L16.9802 25.7917L15.3829 24.2705L19.7944 24.0423L22.0762 23.2056L24.1299 21.6844L26.0314 18.9462L26.4877 17.349L26.6398 15.2193L26.4877 13.546L26.0314 11.9487L24.6623 10.7317L23.1411 9.81902L21.1635 9.43872H17.969L15.0787 10.1993Z" fill="white"/>
<path d="M16.7517 57.8141C19.8549 48.2001 13.3078 38.5709 10.2105 34.0833C3.56829 24.4597 5.12801 18.3378 8.38563 14.6119C4.18716 25.6255 11.9604 33.0185 15.5352 38.4188C20.0988 47.0136 19.3122 53.8083 16.7517 57.8141Z" fill="#D9D9D9"/>
<path d="M29.3795 14.6875L26.7174 13.2423V15.6002L26.4892 17.5017L25.1201 20.1638L25.8807 20.7723H28.6189L32.2698 19.4032L36.5291 17.2735H35.2361L31.9655 16.3608L29.3795 14.6875Z" fill="#FDA800"/>
<path d="M34.855 17.8059C29.3026 18.1101 26.8687 13.698 26.8687 13.698C26.7559 13.6702 26.6507 13.6441 26.5645 13.6226L26.8687 13.698C27.2868 13.801 27.8096 13.9268 27.8575 13.9268C27.9335 13.9268 29.9111 15.2959 29.9872 15.3719C30.048 15.4328 31.6351 16.1072 32.4211 16.4368L34.7029 17.4256L34.855 17.8059Z" fill="white"/>
<path d="M2.98444 21.7924C3.2069 24.8323 4.78367 31.1354 7.02018 35.2358L7.63921 36.3323C9.18806 39.0015 11.3624 42.4353 12.331 46.3204C13.4574 50.8389 12.9776 55.9955 8.31773 61.4777L7.06198 62.9553L7.2485 61.0243C7.42908 59.1564 7.06617 55.9623 6.34648 52.5878C5.62919 49.2247 4.57744 45.7716 3.42821 43.3989L3.41695 43.3764L3.40892 43.3539L2.3429 40.6157V40.6141C-1.59439 30.4229 0.279038 24.2449 1.8525 21.5319L2.84134 19.826L2.98444 21.7924ZM13.6124 0.00744345C17.2374 -0.122018 19.7503 1.45293 21.425 3.51098C22.9907 5.43523 23.8181 7.77708 24.2034 9.54208C25.5381 10.2362 26.3127 11.2509 26.7455 12.2931C27.4989 12.7511 28.2211 13.2624 28.9209 13.7563C29.6824 14.2937 30.4215 14.8102 31.1928 15.2516C32.7208 16.126 34.3443 16.6871 36.3798 16.4414L38.6356 16.1681L36.8171 17.5316C35.7339 18.344 34.2649 19.3062 32.6335 20.0591C31.0629 20.784 29.3035 21.3319 27.5719 21.3358C27.0006 21.6886 26.6562 22.1252 26.4737 22.5979C26.2749 23.1131 26.2497 23.7127 26.3885 24.3521C26.6694 25.6451 27.6033 27.0006 28.8244 27.8637L29.2023 28.1338C29.3356 28.2334 29.4718 28.343 29.5994 28.4618C30.8346 29.612 31.4897 30.7705 31.6494 31.8657C31.811 32.9738 31.4538 33.9465 30.8101 34.6666C29.9251 35.6564 28.4872 36.1744 27.0911 35.9786C27.2678 36.3499 27.411 36.7124 27.514 37.0623C27.8104 37.713 27.9953 38.3348 28.1041 38.8711L28.1716 39.2426C28.3096 40.1126 28.3191 40.9938 28.2649 41.8441C28.0645 44.9882 26.2956 48.2698 24.115 51.1424C22.1968 53.6691 19.913 55.9398 17.952 57.6092L17.1336 58.2877L15.5499 59.5611L16.1738 57.6269C17.6663 53.0028 16.8485 48.3447 15.2412 44.2478C14.0354 41.1745 12.3991 38.4491 11.0029 36.3323L9.71174 34.4286C6.34677 29.5532 5.01299 25.4994 4.97819 22.1413C4.94695 19.126 5.96383 16.7263 7.40285 14.8529C5.33907 13.9381 4.06232 12.9545 3.44911 11.9121C3.09761 11.3143 2.96537 10.7011 3.03428 10.1C3.10233 9.50656 3.36109 8.96869 3.71763 8.50018C4.42216 7.57443 5.56686 6.8451 6.72916 6.36816C7.50922 6.04811 8.34015 5.82609 9.1104 5.73948C8.76873 5.02526 8.60428 4.35864 8.60714 3.7393C8.61141 2.84884 8.95759 2.11759 9.49307 1.55582C10.5256 0.472713 12.2364 0.0276849 13.6124 0.00905132V0.00744345ZM2.05349 24.0402C1.009 27.0564 0.444071 32.3219 3.47805 40.1751L4.53281 42.8892C5.73732 45.3833 6.8105 48.9308 7.5363 52.3338C8.07173 54.8442 8.42639 57.325 8.4962 59.2814C11.8425 54.6586 12.0914 50.3943 11.1492 46.6146C10.2246 42.9063 8.17249 39.6848 6.59409 36.9578L5.95095 35.8194C4.06967 32.3703 2.65149 27.4772 2.05349 24.0402ZM23.4204 10.5116C22.0918 9.89872 20.0347 9.60728 16.8716 10.1113C16.8675 10.1124 16.8634 10.1148 16.8587 10.1161C16.8244 10.1256 16.7713 10.1406 16.7027 10.1611C16.5656 10.2021 16.3632 10.2662 16.1094 10.3541C15.601 10.5302 14.887 10.8044 14.0723 11.1934C12.5385 11.9256 10.6744 13.0525 9.14577 14.6792L8.8451 15.012C7.29869 16.7808 6.16404 19.1019 6.19534 22.1284C6.22684 25.1687 7.43462 28.989 10.7118 33.7372L11.3325 34.6392C12.8614 36.8858 14.9184 40.0907 16.3747 43.8025C17.8282 47.507 18.7002 51.7616 17.8266 56.1026C19.5695 54.5517 21.5005 52.5728 23.1455 50.406C25.2786 47.5959 26.8735 44.5508 27.051 41.7669C27.1014 40.9759 27.0887 40.1892 26.969 39.4339L26.9111 39.1123C26.8165 38.6464 26.6563 38.1012 26.3933 37.5318L26.3724 37.4884L26.3596 37.4434C26.2208 36.9558 25.9702 36.4016 25.6216 35.7953L25.2421 35.173C22.898 31.5403 17.9084 26.9545 15.0161 24.7557L13.3359 23.4774L15.4373 23.664C16.7675 23.7822 17.8444 23.7467 18.6595 23.6382C19.4869 23.5281 20.0092 23.3484 20.2561 23.2089L20.2963 23.1864L20.3397 23.1703C22.7858 22.2368 25.1401 20.0743 25.8917 16.3176L25.8949 16.3048L25.8965 16.2935L25.8997 16.2822C25.9021 16.2717 25.9063 16.2539 25.911 16.2308C25.9205 16.1837 25.9335 16.1113 25.948 16.0186C25.977 15.8318 26.0104 15.5622 26.0235 15.2387C26.0467 14.6672 26.0077 13.9486 25.7936 13.2289L25.6907 12.9218C25.3702 12.0588 24.7695 11.2106 23.6503 10.6258L23.4204 10.5116ZM25.189 20.9467C23.9936 22.5688 22.4297 23.6645 20.814 24.2894C20.3744 24.5271 19.6952 24.7277 18.8203 24.8441C18.3499 24.9067 17.8129 24.9448 17.2108 24.9519C20.1327 27.3808 24.0735 31.1824 26.1811 34.39C27.4155 35.1424 29.0479 34.8114 29.9033 33.8546C30.3237 33.3841 30.5511 32.7674 30.4452 32.0409C30.3372 31.3015 29.8721 30.3791 28.7698 29.3526C28.6792 29.2682 28.5814 29.1898 28.4739 29.1098L28.1218 28.8574C26.6826 27.8401 25.5533 26.2359 25.2003 24.611C25.0224 23.7921 25.0366 22.9433 25.3386 22.1606C25.4773 21.8012 25.6754 21.4653 25.9303 21.1589C25.6809 21.1026 25.4335 21.0331 25.189 20.9467ZM27.1924 14.0328C27.2465 14.494 27.2538 14.9222 27.2391 15.287C27.2238 15.6647 27.1856 15.9823 27.1506 16.2067C27.1332 16.319 27.1168 16.4087 27.104 16.472C27.0977 16.5032 27.0919 16.528 27.0879 16.5459C27.0859 16.555 27.0844 16.563 27.0831 16.5684C27.0825 16.571 27.0819 16.5731 27.0815 16.5749L27.0799 16.5781C26.8265 17.8334 26.4074 18.9331 25.8724 19.8887C26.3679 20.0334 26.8836 20.1079 27.4143 20.1186L27.9948 20.1074C29.3567 20.0254 30.7779 19.5757 32.1238 18.9545C32.9629 18.5672 33.7592 18.116 34.4793 17.6618C33.0175 17.4987 31.7507 16.9732 30.5883 16.308C29.7596 15.8337 28.9753 15.2842 28.2183 14.75C27.8724 14.5058 27.5322 14.2654 27.1924 14.0328ZM13.6558 1.2246H13.6414C12.4339 1.2382 11.0949 1.64065 10.3742 2.39673C10.0315 2.75637 9.82522 3.196 9.82269 3.74573C9.82013 4.31029 10.0336 5.04937 10.6459 5.98709L11.3276 7.0322L10.0848 6.92608C9.3174 6.86077 8.24026 7.06296 7.19061 7.49366C6.14026 7.92467 5.21109 8.54608 4.68556 9.23659C4.42721 9.57605 4.28081 9.91265 4.2434 10.2383C4.20693 10.5563 4.26888 10.9077 4.49744 11.2963C4.94685 12.0601 6.04295 12.9615 8.22608 13.8817C9.90098 12.0868 11.9253 10.8699 13.5481 10.0952C14.4111 9.68317 15.169 9.39265 15.7123 9.20443C15.984 9.11032 16.2031 9.04096 16.3554 8.99541C16.4314 8.9727 16.491 8.95546 16.5323 8.94395C16.5529 8.93822 16.5692 8.93414 16.5805 8.93109C16.5859 8.92966 16.5902 8.92873 16.5934 8.92788C16.595 8.92744 16.5972 8.92654 16.5982 8.92627H16.5998L16.6288 8.91823L16.6561 8.91341C19.2772 8.49336 21.2853 8.57873 22.8174 9.00505C22.4015 7.50204 21.6713 5.74224 20.4812 4.27954C19.0108 2.47238 16.8456 1.11068 13.6558 1.2246Z" fill="black"/>
<path d="M22.1139 15.752H16.6006C16.7581 17.3272 18.4383 17.931 19.3572 17.8785C21.7988 17.739 22.1139 15.752 22.1139 15.752Z" fill="black"/>
<path d="M22.2997 15.5944L22.2707 15.776V15.7777L22.2691 15.7793C22.2689 15.7807 22.2695 15.7833 22.2691 15.7857C22.2683 15.7904 22.2659 15.7968 22.2643 15.805C22.261 15.8217 22.2571 15.8461 22.2498 15.8757C22.2353 15.935 22.2117 16.0188 22.1758 16.1185C22.1042 16.318 21.9815 16.5847 21.7787 16.8565C21.4198 17.3372 20.8148 17.8241 19.8187 17.9869L19.3669 18.0351C18.8747 18.0632 18.1926 17.917 17.6111 17.5592C17.0258 17.1988 16.5303 16.6153 16.4454 15.768L16.4277 15.5944H22.2997ZM16.7863 15.9095C16.904 16.5443 17.2962 16.9948 17.7767 17.2907C18.3044 17.6154 18.9225 17.7459 19.3492 17.7216L19.7641 17.6765C20.678 17.5282 21.2133 17.0876 21.5263 16.6684C21.7068 16.4266 21.8148 16.188 21.8784 16.0108C21.8914 15.9745 21.8995 15.94 21.9089 15.9095H16.7863Z" fill="black"/>
<path d="M43.0774 31V17H49.1174C49.9974 17 50.7774 17.2 51.4574 17.6C52.1507 18 52.6974 18.5467 53.0974 19.24C53.5107 19.9333 53.7174 20.7133 53.7174 21.58C53.7174 22.4867 53.5107 23.3 53.0974 24.02C52.6974 24.7267 52.1507 25.2867 51.4574 25.7C50.7774 26.1133 49.9974 26.32 49.1174 26.32H46.4774V31H43.0774ZM46.4174 23.34H48.6374C48.9307 23.34 49.1974 23.2667 49.4374 23.12C49.6774 22.9733 49.8707 22.7733 50.0174 22.52C50.164 22.2667 50.2374 21.9733 50.2374 21.64C50.2374 21.2933 50.164 21 50.0174 20.76C49.8707 20.52 49.6774 20.3333 49.4374 20.2C49.1974 20.0667 48.9307 20 48.6374 20H46.4174V23.34ZM62.6996 31.2C61.6329 31.2 60.6596 31.02 59.7796 30.66C58.8996 30.3 58.1329 29.7933 57.4796 29.14C56.8262 28.4867 56.3196 27.72 55.9596 26.84C55.5996 25.96 55.4196 24.9933 55.4196 23.94C55.4196 22.8867 55.5996 21.92 55.9596 21.04C56.3196 20.16 56.8262 19.3933 57.4796 18.74C58.1329 18.0867 58.8996 17.58 59.7796 17.22C60.6596 16.86 61.6262 16.68 62.6796 16.68C63.7329 16.68 64.6996 16.86 65.5796 17.22C66.4596 17.58 67.2262 18.0867 67.8796 18.74C68.5329 19.3933 69.0329 20.16 69.3796 21.04C69.7396 21.92 69.9196 22.8867 69.9196 23.94C69.9196 24.98 69.7396 25.9467 69.3796 26.84C69.0329 27.72 68.5329 28.4867 67.8796 29.14C67.2262 29.7933 66.4596 30.3 65.5796 30.66C64.6996 31.02 63.7396 31.2 62.6996 31.2ZM62.6796 28C63.2262 28 63.7262 27.9 64.1796 27.7C64.6462 27.5 65.0462 27.22 65.3796 26.86C65.7262 26.4867 65.9929 26.0533 66.1796 25.56C66.3662 25.0667 66.4596 24.5267 66.4596 23.94C66.4596 23.3533 66.3662 22.8133 66.1796 22.32C65.9929 21.8267 65.7262 21.4 65.3796 21.04C65.0462 20.6667 64.6462 20.38 64.1796 20.18C63.7262 19.98 63.2262 19.88 62.6796 19.88C62.1329 19.88 61.6262 19.98 61.1596 20.18C60.7062 20.38 60.3062 20.6667 59.9596 21.04C59.6129 21.4 59.3462 21.8267 59.1596 22.32C58.9862 22.8133 58.8996 23.3533 58.8996 23.94C58.8996 24.5267 58.9862 25.0733 59.1596 25.58C59.3462 26.0733 59.6129 26.5 59.9596 26.86C60.3062 27.22 60.7062 27.5 61.1596 27.7C61.6262 27.9 62.1329 28 62.6796 28ZM72.55 31V17H75.95V28H82.19V31H72.55ZM84.7375 31V17H88.1375V28H94.3775V31H84.7375ZM102.914 31.2C101.848 31.2 100.874 31.02 99.9944 30.66C99.1144 30.3 98.3477 29.7933 97.6944 29.14C97.0411 28.4867 96.5344 27.72 96.1744 26.84C95.8144 25.96 95.6344 24.9933 95.6344 23.94C95.6344 22.8867 95.8144 21.92 96.1744 21.04C96.5344 20.16 97.0411 19.3933 97.6944 18.74C98.3477 18.0867 99.1144 17.58 99.9944 17.22C100.874 16.86 101.841 16.68 102.894 16.68C103.948 16.68 104.914 16.86 105.794 17.22C106.674 17.58 107.441 18.0867 108.094 18.74C108.748 19.3933 109.248 20.16 109.594 21.04C109.954 21.92 110.134 22.8867 110.134 23.94C110.134 24.98 109.954 25.9467 109.594 26.84C109.248 27.72 108.748 28.4867 108.094 29.14C107.441 29.7933 106.674 30.3 105.794 30.66C104.914 31.02 103.954 31.2 102.914 31.2ZM102.894 28C103.441 28 103.941 27.9 104.394 27.7C104.861 27.5 105.261 27.22 105.594 26.86C105.941 26.4867 106.208 26.0533 106.394 25.56C106.581 25.0667 106.674 24.5267 106.674 23.94C106.674 23.3533 106.581 22.8133 106.394 22.32C106.208 21.8267 105.941 21.4 105.594 21.04C105.261 20.6667 104.861 20.38 104.394 20.18C103.941 19.98 103.441 19.88 102.894 19.88C102.348 19.88 101.841 19.98 101.374 20.18C100.921 20.38 100.521 20.6667 100.174 21.04C99.8277 21.4 99.5611 21.8267 99.3744 22.32C99.2011 22.8133 99.1144 23.3533 99.1144 23.94C99.1144 24.5267 99.2011 25.0733 99.3744 25.58C99.5611 26.0733 99.8277 26.5 100.174 26.86C100.521 27.22 100.921 27.5 101.374 27.7C101.841 27.9 102.348 28 102.894 28ZM117.405 31.2C116.485 31.2 115.652 31.0933 114.905 30.88C114.172 30.6533 113.518 30.3333 112.945 29.92C112.372 29.4933 111.858 28.9933 111.405 28.42L113.465 26.08C114.132 26.9733 114.798 27.5733 115.465 27.88C116.145 28.1867 116.845 28.34 117.565 28.34C117.925 28.34 118.252 28.2933 118.545 28.2C118.838 28.1067 119.065 27.9733 119.225 27.8C119.385 27.6133 119.465 27.3867 119.465 27.12C119.465 26.92 119.412 26.74 119.305 26.58C119.212 26.42 119.078 26.28 118.905 26.16C118.732 26.04 118.525 25.9333 118.285 25.84C118.045 25.7333 117.792 25.6467 117.525 25.58C117.258 25.5 116.985 25.4333 116.705 25.38C115.932 25.2067 115.258 24.9933 114.685 24.74C114.112 24.4867 113.632 24.18 113.245 23.82C112.872 23.4467 112.592 23.0267 112.405 22.56C112.218 22.08 112.125 21.5467 112.125 20.96C112.125 20.3333 112.265 19.76 112.545 19.24C112.838 18.7067 113.225 18.2533 113.705 17.88C114.198 17.4933 114.765 17.2 115.405 17C116.045 16.7867 116.712 16.68 117.405 16.68C118.325 16.68 119.112 16.78 119.765 16.98C120.432 17.1667 120.998 17.44 121.465 17.8C121.945 18.16 122.352 18.5933 122.685 19.1L120.585 21.12C120.305 20.7733 119.998 20.4867 119.665 20.26C119.345 20.0333 118.998 19.86 118.625 19.74C118.265 19.62 117.892 19.56 117.505 19.56C117.105 19.56 116.758 19.6133 116.465 19.72C116.185 19.8133 115.965 19.9533 115.805 20.14C115.645 20.3133 115.565 20.5267 115.565 20.78C115.565 21.0067 115.632 21.2 115.765 21.36C115.898 21.52 116.078 21.6667 116.305 21.8C116.532 21.92 116.792 22.0267 117.085 22.12C117.378 22.2 117.685 22.2667 118.005 22.32C118.738 22.4667 119.398 22.66 119.985 22.9C120.585 23.14 121.098 23.4333 121.525 23.78C121.965 24.1267 122.298 24.54 122.525 25.02C122.765 25.4867 122.885 26.0333 122.885 26.66C122.885 27.6333 122.645 28.46 122.165 29.14C121.698 29.8067 121.052 30.32 120.225 30.68C119.412 31.0267 118.472 31.2 117.405 31.2Z" fill="#FDA800"/>
<path d="M47.9894 47.16C47.1147 47.16 46.3094 47.016 45.5734 46.728C44.8374 46.44 44.1974 46.04 43.6534 45.528C43.12 45.0053 42.704 44.392 42.4054 43.688C42.1174 42.9733 41.9734 42.1893 41.9734 41.336C41.9734 40.4933 42.1227 39.72 42.4214 39.016C42.7307 38.3013 43.1574 37.6827 43.7014 37.16C44.2454 36.6373 44.8907 36.232 45.6374 35.944C46.384 35.656 47.2 35.512 48.0854 35.512C48.6187 35.512 49.136 35.5813 49.6374 35.72C50.1494 35.848 50.6294 36.04 51.0774 36.296C51.5254 36.552 51.9254 36.872 52.2774 37.256L50.3734 39.464C50.192 39.2613 49.9894 39.08 49.7654 38.92C49.5414 38.76 49.2854 38.6373 48.9974 38.552C48.72 38.456 48.4107 38.408 48.0694 38.408C47.6747 38.408 47.3014 38.4773 46.9494 38.616C46.608 38.744 46.3094 38.936 46.0534 39.192C45.7974 39.448 45.5947 39.7573 45.4454 40.12C45.3067 40.4827 45.2374 40.8987 45.2374 41.368C45.2374 41.816 45.3067 42.2213 45.4454 42.584C45.5947 42.936 45.8027 43.24 46.0694 43.496C46.3467 43.7413 46.672 43.9333 47.0454 44.072C47.4294 44.2107 47.856 44.28 48.3254 44.28C48.656 44.28 48.9654 44.232 49.2534 44.136C49.5521 44.04 49.8241 43.912 50.0694 43.752C50.3147 43.592 50.5334 43.416 50.7254 43.224L52.2294 45.608C51.9627 45.9067 51.6 46.1733 51.1414 46.408C50.6934 46.6427 50.192 46.8293 49.6374 46.968C49.0934 47.096 48.544 47.16 47.9894 47.16ZM59.1441 47.16C58.2801 47.16 57.4855 47.016 56.7601 46.728C56.0348 46.44 55.4055 46.0347 54.8721 45.512C54.3388 44.9893 53.9228 44.376 53.6241 43.672C53.3361 42.9573 53.1921 42.1787 53.1921 41.336C53.1921 40.4827 53.3361 39.704 53.6241 39C53.9228 38.296 54.3388 37.6827 54.8721 37.16C55.4055 36.6373 56.0348 36.232 56.7601 35.944C57.4855 35.656 58.2801 35.512 59.1441 35.512C60.0081 35.512 60.7975 35.656 61.5121 35.944C62.2375 36.232 62.8668 36.6373 63.4001 37.16C63.9441 37.6827 64.3601 38.296 64.6481 39C64.9361 39.704 65.0801 40.4773 65.0801 41.32C65.0801 42.1733 64.9361 42.9573 64.6481 43.672C64.3601 44.376 63.9441 44.9893 63.4001 45.512C62.8668 46.0347 62.2375 46.44 61.5121 46.728C60.7975 47.016 60.0081 47.16 59.1441 47.16ZM59.1441 44.216C59.5281 44.216 59.8855 44.1467 60.2161 44.008C60.5468 43.8693 60.8348 43.672 61.0801 43.416C61.3255 43.1493 61.5121 42.84 61.6401 42.488C61.7788 42.136 61.8481 41.752 61.8481 41.336C61.8481 40.92 61.7788 40.536 61.6401 40.184C61.5121 39.832 61.3255 39.528 61.0801 39.272C60.8348 39.0053 60.5468 38.8027 60.2161 38.664C59.8855 38.5253 59.5281 38.456 59.1441 38.456C58.7495 38.456 58.3868 38.5253 58.0561 38.664C57.7255 38.8027 57.4375 39.0053 57.1921 39.272C56.9468 39.528 56.7548 39.832 56.6161 40.184C56.4881 40.5253 56.4241 40.9093 56.4241 41.336C56.4241 41.752 56.4881 42.136 56.6161 42.488C56.7548 42.84 56.9468 43.1493 57.1921 43.416C57.4375 43.672 57.7255 43.8693 58.0561 44.008C58.3868 44.1467 58.7495 44.216 59.1441 44.216ZM67.0673 47V35.8H69.8993L75.3393 43.256L74.6833 43.096C74.6299 42.7013 74.5819 42.344 74.5393 42.024C74.5073 41.704 74.4753 41.4 74.4433 41.112C74.4219 40.824 74.4006 40.536 74.3793 40.248C74.3686 39.96 74.3633 39.6453 74.3633 39.304C74.3633 38.9627 74.3633 38.5787 74.3633 38.152V35.8H77.4193V47H74.5553L68.6993 39L69.8033 39.272C69.8566 39.7093 69.8993 40.088 69.9313 40.408C69.9739 40.728 70.0059 41.016 70.0273 41.272C70.0486 41.528 70.0646 41.7733 70.0753 42.008C70.0966 42.2427 70.1073 42.4933 70.1073 42.76C70.1179 43.0267 70.1233 43.3307 70.1233 43.672V47H67.0673ZM82.6429 47V38.536H79.2509V35.8H89.3149V38.536H85.8109V47H82.6429ZM91.1454 47V35.8H96.3134C97.0707 35.8 97.7481 35.9547 98.3454 36.264C98.9427 36.5733 99.4067 36.9947 99.7374 37.528C100.079 38.0613 100.249 38.6747 100.249 39.368C100.249 40.1147 100.079 40.776 99.7374 41.352C99.4067 41.928 98.9427 42.3813 98.3454 42.712C97.7481 43.032 97.0707 43.192 96.3134 43.192H94.1214V47H91.1454ZM97.1454 47L94.2974 41.944L97.5454 41.544L100.713 47H97.1454ZM94.1214 40.92H95.8814C96.1587 40.92 96.388 40.8667 96.5694 40.76C96.7614 40.6427 96.9054 40.488 97.0014 40.296C97.108 40.0933 97.1614 39.8587 97.1614 39.592C97.1614 39.336 97.108 39.1173 97.0014 38.936C96.8947 38.744 96.7347 38.6 96.5214 38.504C96.3187 38.3973 96.0627 38.344 95.7534 38.344H94.1214V40.92ZM107.55 47.16C106.686 47.16 105.892 47.016 105.166 46.728C104.441 46.44 103.812 46.0347 103.278 45.512C102.745 44.9893 102.329 44.376 102.03 43.672C101.742 42.9573 101.598 42.1787 101.598 41.336C101.598 40.4827 101.742 39.704 102.03 39C102.329 38.296 102.745 37.6827 103.278 37.16C103.812 36.6373 104.441 36.232 105.166 35.944C105.892 35.656 106.686 35.512 107.55 35.512C108.414 35.512 109.204 35.656 109.918 35.944C110.644 36.232 111.273 36.6373 111.806 37.16C112.35 37.6827 112.766 38.296 113.054 39C113.342 39.704 113.486 40.4773 113.486 41.32C113.486 42.1733 113.342 42.9573 113.054 43.672C112.766 44.376 112.35 44.9893 111.806 45.512C111.273 46.0347 110.644 46.44 109.918 46.728C109.204 47.016 108.414 47.16 107.55 47.16ZM107.55 44.216C107.934 44.216 108.292 44.1467 108.622 44.008C108.953 43.8693 109.241 43.672 109.486 43.416C109.732 43.1493 109.918 42.84 110.046 42.488C110.185 42.136 110.254 41.752 110.254 41.336C110.254 40.92 110.185 40.536 110.046 40.184C109.918 39.832 109.732 39.528 109.486 39.272C109.241 39.0053 108.953 38.8027 108.622 38.664C108.292 38.5253 107.934 38.456 107.55 38.456C107.156 38.456 106.793 38.5253 106.462 38.664C106.132 38.8027 105.844 39.0053 105.598 39.272C105.353 39.528 105.161 39.832 105.022 40.184C104.894 40.5253 104.83 40.9093 104.83 41.336C104.83 41.752 104.894 42.136 105.022 42.488C105.161 42.84 105.353 43.1493 105.598 43.416C105.844 43.672 106.132 43.8693 106.462 44.008C106.793 44.1467 107.156 44.216 107.55 44.216ZM115.474 47V35.8H118.642V44.264H123.522V47H115.474Z" fill="black"/>
</svg>
