<svg xmlns="http://www.w3.org/2000/svg" width="24" height="24" fill="none" xmlns:v="https://vecta.io/nano"><path fill-rule="evenodd" d="M7.999 8.998a1 1 0 0 1-1-1v-.996a2 2 0 0 0-2 2v1.333h13.331V9.002a2 2 0 0 0-2-2v1a1 1 0 0 1-1 1 1 1 0 0 1-1-1v-1H8.999v.996a1 1 0 0 1-1 1zm6.332-3.995H8.999V4a1 1 0 0 0-1-1 1 1 0 0 0-1 1v1.003A4 4 0 0 0 3 9.002v7.999A4 4 0 0 0 6.999 21h9.332a4 4 0 0 0 3.999-3.999V9.002a4 4 0 0 0-3.999-3.999v-1a1 1 0 0 0-1-1 1 1 0 0 0-1 1v1zM5 12.335v4.666a2 2 0 0 0 2 2h9.332a2 2 0 0 0 2-2v-4.666H5z" fill="#424242"/></svg>