<svg xmlns="http://www.w3.org/2000/svg" width="60" height="49" fill="#fff" xmlns:v="https://vecta.io/nano"><path d="M29.737 2.083c-1.368 0-2.722.269-3.986.793a10.42 10.42 0 0 0-3.379 2.258A10.41 10.41 0 0 0 19.32 12.5c0 4.604 2.99 8.51 7.125 9.896.521.083.688-.24.688-.521v-1.76c-2.885.625-3.5-1.396-3.5-1.396-.479-1.208-1.156-1.531-1.156-1.531-.948-.646.073-.625.073-.625 1.042.073 1.594 1.073 1.594 1.073.906 1.583 2.438 1.115 3.031.865.094-.677.365-1.135.656-1.396-2.312-.261-4.74-1.156-4.74-5.125 0-1.156.396-2.083 1.073-2.823-.104-.26-.469-1.344.104-2.75 0 0 .875-.281 2.865 1.063.823-.229 1.719-.344 2.604-.344s1.781.115 2.604.344c1.989-1.344 2.864-1.062 2.864-1.062.573 1.406.208 2.49.104 2.75.677.74 1.073 1.667 1.073 2.823 0 3.979-2.437 4.854-4.76 5.114.375.323.719.958.719 1.927v2.854c0 .281.167.615.698.521 4.135-1.396 7.115-5.292 7.115-9.896 0-1.368-.27-2.722-.793-3.986s-1.291-2.412-2.258-3.379-2.116-1.735-3.379-2.258a10.42 10.42 0 0 0-3.986-.793zM11.55 39.848H6.578c-.128 0-.232.104-.232.232v2.431c0 .128.104.233.232.233h1.939v3.02s-.435.148-1.639.148c-1.42 0-3.405-.519-3.405-4.882s2.066-4.938 4.006-4.938c1.679 0 2.402.296 2.863.438.145.044.278-.1.278-.228l.555-2.349c0-.06-.02-.132-.089-.181C10.9 33.638 9.759 33 6.878 33 3.559 33 .155 34.412.155 41.2S4.052 49 7.337 49c2.72 0 4.369-1.162 4.369-1.162.068-.038.075-.133.075-.176v-7.581c0-.128-.104-.232-.232-.232zm25.622-6.035c0-.13-.102-.234-.231-.234h-2.799c-.128 0-.232.104-.232.234l.001 5.41h-4.363v-5.41c0-.13-.103-.234-.231-.234h-2.799c-.127 0-.231.104-.231.234v14.648c0 .129.104.234.231.234h2.799c.128 0 .231-.105.231-.234v-6.266h4.363l-.008 6.266c0 .129.104.234.232.234h2.806c.128 0 .231-.105.231-.234V33.813zm-20.34 1.923c0-1.008-.808-1.823-1.805-1.823s-1.805.815-1.805 1.823.809 1.824 1.805 1.824 1.805-.817 1.805-1.824zm-.2 9.636V38.61c0-.129-.104-.233-.232-.233h-2.79c-.128 0-.243.132-.243.26v9.688c0 .285.178.369.407.369h2.514c.276 0 .343-.135.343-.374v-2.948zm31.179-6.973h-2.778c-.127 0-.231.105-.231.234v7.182s-.706.516-1.707.516-1.267-.454-1.267-1.435v-6.264c0-.129-.104-.234-.231-.234h-2.819c-.127 0-.232.105-.232.234v6.738c0 2.913 1.624 3.626 3.857 3.626 1.832 0 3.31-1.012 3.31-1.012l.102.597c.032.063.115.127.204.127l1.794-.008c.127 0 .232-.105.232-.234l-.001-9.833c0-.129-.104-.234-.232-.234zm6.496 7.924c-.963-.029-1.617-.467-1.617-.467v-4.639s.645-.395 1.436-.466c1-.09 1.964.212 1.964 2.599 0 2.516-.435 3.013-1.783 2.972zm1.096-8.253c-1.578 0-2.651.704-2.651.704v-4.96c0-.13-.103-.234-.231-.234h-2.807c-.128 0-.231.104-.231.234v14.648c0 .129.104.234.232.234h1.948c.088 0 .154-.045.203-.124s.118-.675.118-.675 1.148 1.088 3.321 1.088c2.551 0 4.014-1.294 4.014-5.809s-2.337-5.105-3.916-5.105zm-30.725.305h-2.1l-.003-2.774c0-.105-.054-.157-.176-.157h-2.861c-.111 0-.171.049-.171.156v2.867l-1.531.374c-.097.028-.168.117-.168.223v1.801c0 .13.104.234.232.234h1.467v4.334c0 3.219 2.258 3.535 3.782 3.535a6.39 6.39 0 0 0 1.666-.274c.083-.031.132-.117.132-.21l.002-1.982c0-.129-.109-.234-.232-.234s-.435.05-.758.05c-1.032 0-1.381-.479-1.381-1.1V41.1h2.1c.128 0 .232-.105.232-.234V38.61c0-.129-.104-.233-.232-.233z"/></svg>