<svg xmlns="http://www.w3.org/2000/svg" viewBox="0 0 16.67 25" xmlns:v="https://vecta.io/nano"><defs><clipPath id="A"><path d="M0 0h16.67v25H0z" fill="none"/></clipPath></defs><g clip-path="url(#A)"><path d="M4.17 25c2.3 0 4.17-1.87 4.17-4.17v-4.17H4.17c-2.3 0-4.17 1.87-4.17 4.17S1.87 25 4.17 25z" fill="#0acf83"/><path d="M0 12.5c0-2.3 1.87-4.17 4.17-4.17h4.17v8.33H4.17c-2.3 0-4.17-1.87-4.17-4.17z" fill="#a259ff"/><path d="M0 4.17C0 1.87 1.87 0 4.17 0h4.17v8.33H4.17C1.87 8.33 0 6.47 0 4.17z" fill="#f24e1e"/><path d="M8.33 0h4.17c2.3 0 4.17 1.87 4.17 4.17S14.8 8.34 12.5 8.34H8.33V0z" fill="#ff7262"/><path d="M16.67 12.5c0 2.3-1.87 4.17-4.17 4.17S8.33 14.8 8.33 12.5s1.87-4.17 4.17-4.17 4.17 1.87 4.17 4.17z" fill="#1abcfe"/></g></svg>