<?xml version="1.0" encoding="UTF-8"?>
<svg id="Capa_2" xmlns="http://www.w3.org/2000/svg" xmlns:xlink="http://www.w3.org/1999/xlink" viewBox="0 0 16.67 25">
  <defs>
    <style>
      .cls-1 {
        fill: #ff7262;
      }

      .cls-2 {
        fill: none;
      }

      .cls-3 {
        fill: #a259ff;
      }

      .cls-4 {
        fill: #1abcfe;
      }

      .cls-5 {
        fill: #f24e1e;
      }

      .cls-6 {
        fill: #0acf83;
      }

      .cls-7 {
        clip-path: url(#clippath);
      }
    </style>
    <clipPath id="clippath">
      <rect class="cls-2" width="16.67" height="25"/>
    </clipPath>
  </defs>
  <g id="Capa_1-2" data-name="Capa_1">
    <g class="cls-7">
      <g>
        <path class="cls-6" d="M4.17,25c2.3,0,4.17-1.87,4.17-4.17v-4.17h-4.17c-2.3,0-4.17,1.87-4.17,4.17s1.87,4.17,4.17,4.17Z"/>
        <path class="cls-3" d="M0,12.5c0-2.3,1.87-4.17,4.17-4.17h4.17v8.33h-4.17c-2.3,0-4.17-1.87-4.17-4.17Z"/>
        <path class="cls-5" d="M0,4.17C0,1.87,1.87,0,4.17,0h4.17v8.33h-4.17C1.87,8.33,0,6.47,0,4.17Z"/>
        <path class="cls-1" d="M8.33,0h4.17c2.3,0,4.17,1.87,4.17,4.17s-1.87,4.17-4.17,4.17h-4.17V0Z"/>
        <path class="cls-4" d="M16.67,12.5c0,2.3-1.87,4.17-4.17,4.17s-4.17-1.87-4.17-4.17,1.87-4.17,4.17-4.17,4.17,1.87,4.17,4.17Z"/>
      </g>
    </g>
  </g>
</svg>