<svg xmlns="http://www.w3.org/2000/svg" width="66" height="49" fill="none" xmlns:v="https://vecta.io/nano"><g clip-path="url(#A)" stroke="#fff" stroke-width="3" stroke-linejoin="round"><path d="M43.535 12.5c.002 1.372-.268 2.731-.795 3.998s-1.299 2.417-2.272 3.384c-.966.964-2.112 1.728-3.373 2.249s-2.612.788-3.977.786A10.42 10.42 0 0 1 22.702 12.5a10.38 10.38 0 0 1 2.865-7.174c.972-1.026 2.143-1.842 3.442-2.4s2.697-.844 4.11-.842c1.364-.002 2.716.265 3.977.786s2.407 1.285 3.373 2.249c.974.967 1.746 2.117 2.272 3.384s.797 2.626.795 3.998z"/><g stroke-linecap="round"><path d="M43.535 12.5c-1.52 0-5.712-.573-9.465 1.075-4.077 1.79-7.028 4.567-8.315 6.294"/><path d="M29.212 2.841c1.63 1.505 5.188 5.335 6.51 9.139s1.813 8.479 2.115 9.81"/><path d="M22.782 11.198c1.968.119 7.177.226 10.51-1.198s6.202-4.042 7.185-4.872M23.483 16.465c.918 2.222 2.573 4.06 4.688 5.204"/><path d="M22.702 12.5a10.38 10.38 0 0 1 2.865-7.174c.972-1.026 2.143-1.842 3.442-2.4s2.697-.844 4.11-.842m4.167.867c1.186.519 2.266 1.254 3.183 2.168.974.967 1.746 2.117 2.272 3.384s.797 2.626.795 3.998a10.39 10.39 0 0 1-.656 3.646m-9.76 6.771c1.364.002 2.716-.265 3.977-.786s2.407-1.285 3.373-2.249"/></g></g><g clip-path="url(#B)"><path d="M65.115 44.08c-.203-.147-.364-.168-.497.112-2.281 4.934-6.123 2.47-5.739 2.687.854-.392 3.093-2.183 2.757-4.668-.203-1.519-1.505-2.19-2.89-1.946-2.414.42-3.296 3.023-2.848 5.326.077.399.217.721.364 1.043-2.722 2.218-3.807-1.981-3.933-2.484-.007-.028 2.107-1.785 2.694-5.976.616-4.388-.784-5.193-2.218-5.165-2.652.049-3.366 5.585-2.407 10.196-.077.021-.455.231-1.057.252-.434-1.365-2.288-2.561-2.771-2.099-1.211 1.155.294 3.408 1.358 3.583-.637 3.926-4.626 2.953-3.884-1.966 1.295-2.408 2.288-5.998 2.107-8.16-.063-.763-.63-1.792-1.911-1.743-2.463.098-2.729 5.634-2.442 9.567-.014-.098-.154.476-1.162.763-.238-1.323-2.372-2.659-2.876-2.016-.938 1.197.693 3.331 1.463 3.478-.637 3.926-4.626 2.953-3.884-1.966 1.302-2.407 2.288-5.991 2.113-8.153-.063-.763-.63-1.792-1.911-1.742-2.463.098-2.729 5.634-2.442 9.566-.014-.098-.154.497-1.204.777-.035-1.722-2.176-2.505-2.694-1.96-.917.98.21 2.988 1.253 3.478-.637 3.926-4.626 2.953-3.884-1.966 1.295-2.407 2.288-5.998 2.107-8.16-.056-.756-.623-1.785-1.904-1.735-2.463.098-2.659 5.913-2.372 9.846-.812 3.478-3.534 7.817-3.177-.882.035-.609.07-.84-.231-1.071-.231-.175-.749-.091-1.029-.084-.343.014-.434.217-.504.518-.175.784-.21 1.547-.238 2.589-.014.49-.056.714-.245 1.379s-1.253 1.875-1.84 1.673c-.812-.28-.546-2.568-.392-4.143.126-1.246-.28-1.798-1.316-2.002-.609-.126-.98-.105-1.61-.308-.602-.189-.735-1.323-2.008-.945-.7.21-.252 1.686-.42 2.785-.826 5.395-2.54 5.542-3.338 2.925 3.583-8.79 1.029-12.254-.462-12.254-1.554 0-3.331 1.071-2.582 7.929-.364-.105-.476-.161-.882-.161-2.26-.007-3.807 1.826-3.807 4.087s1.547 4.094 3.814 4.094c1.337 0 2.274-.609 2.988-1.547.462.665 1.029 1.561 2.064 1.519 3.079-.119 3.975-6.438 4.08-6.795.329.049.644.147.945.196.504.077.546.28.532.784-.133 4.297.658 5.802 2.457 5.802 1.001 0 1.896-.987 2.512-1.687.462.952 1.19 1.659 2.177 1.687 2.379.056 3.296-3.737 3.212-3.24-.063.392.77 3.212 3.226 3.226 3.037.014 3.604-3.324 3.667-3.884.007-.112.014-.098 0 0v.035c.966-.182 1.463-.693 1.463-.693s.777 4.598 3.639 4.549c2.974-.056 3.541-3.072 3.611-3.66.007-.14.014-.126 0 0v.014c1.148-.42 1.449-.833 1.449-.833s.616 4.507 3.639 4.549c2.694.035 3.695-2.729 3.702-3.884.455.007 1.295-.273 1.274-.287 0 0 .987 3.94 3.744 4.143 1.295.098 2.267-.728 2.82-1.106 1.302 1.057 5.634 2.4 8.37-2.239.392-.658-.441-1.449-.588-1.547zM4.02 47.446c-1.323 0-2.17-1.225-2.17-2.54s.777-2.541 2.1-2.541c.595 0 .924.063 1.393.469.084.329.322 1.092.441 1.442.154.462.343.861.525 1.288-.273 1.106-1.141 1.883-2.288 1.883zm3.219-4.577c-.056-.091-.042-.035-.105-.119-.238-.658-.707-2.128-.763-3.8-.063-1.89.252-4.108 1.183-4.108.63 0 1.302 4.493-.315 8.027zm18.622-1.967c-.147-1.12-.154-6.123 1.043-5.983.665.266-.42 4.983-1.043 5.983zm8.769 0c-.147-1.12-.154-6.123 1.043-5.983.665.266-.42 4.983-1.043 5.983zm8.699.07c-.147-1.12-.154-6.123 1.043-5.983.665.259-.42 4.983-1.043 5.983zm9.602-6.354c1.099-.112 1.05 4.682-1.148 7.705-.287-1.092-.721-7.327 1.148-7.705zm4.619 10.322c-.35-1.785.56-2.953 1.498-3.079.329-.049.805.161.896.56.154.749-.021 1.861-2.127 3.268.007.007-.189-.357-.266-.749zM20.326 39.44a1.36 1.36 0 0 0 1.358-1.358 1.36 1.36 0 0 0-1.358-1.358 1.36 1.36 0 0 0-1.358 1.358 1.36 1.36 0 0 0 1.358 1.358z" fill="#fff"/></g><defs><clipPath id="A"><path fill="#fff" transform="translate(20.618)" d="M0 0h25v25H0z"/></clipPath><clipPath id="B"><path fill="#fff" transform="translate(.318 33)" d="M0 0h65.6v16H0z"/></clipPath></defs></svg>