<svg xmlns="http://www.w3.org/2000/svg" viewBox="0 0 25 25" xmlns:v="https://vecta.io/nano"><defs><clipPath id="A"><path d="M0 0h25v25H0z" fill="none"/></clipPath></defs><g clip-path="url(#A)"><path d="M0,2C0,.9.9,0,2,0h21c1.1,0,2,.9,2,2v21c0,1.1-.9,2-2,2H2c-1.1,0-2-.9-2-2V2Z" fill="#f5de19"/><path d="M16.26 18.65a2.26 2.26 0 0 0 .84.92c.36.22.77.34 1.2.33.85 0 1.4-.43 1.4-1.02 0-.7-.56-.95-1.5-1.36l-.51-.22c-1.48-.63-2.47-1.42-2.47-3.1 0-1.54 1.17-2.72 3.01-2.72.6-.04 1.19.09 1.71.38a3 3 0 0 1 1.21 1.26l-1.61 1.03a1.44 1.44 0 0 0-.52-.65 1.42 1.42 0 0 0-.8-.24.94.94 0 0 0-.37.04c-.12.04-.23.1-.32.18s-.17.18-.22.3a.9.9 0 0 0-.08.36c0 .62.38.87 1.26 1.25l.51.22c1.75.75 2.73 1.51 2.73 3.23 0 1.85-1.45 2.86-3.41 2.86a3.86 3.86 0 0 1-2.18-.5c-.66-.37-1.21-.93-1.56-1.61l1.67-.97zM9 18.83c.32.57.62 1.06 1.32 1.06s1.1-.26 1.1-1.29v-6.99h2.06v7.02c0 2.13-1.25 3.1-3.07 3.1-.64.04-1.28-.13-1.83-.46s-.99-.83-1.25-1.42L9 18.84z" fill="#2d2d2d"/></g></svg>