<?xml version="1.0" encoding="UTF-8"?>
<svg id="Capa_2" xmlns="http://www.w3.org/2000/svg" xmlns:xlink="http://www.w3.org/1999/xlink" viewBox="0 0 25 25">
  <defs>
    <style>
      .cls-1 {
        fill: #2d2d2d;
      }

      .cls-2 {
        fill: none;
      }

      .cls-3 {
        fill: #f5de19;
      }

      .cls-4 {
        clip-path: url(#clippath);
      }
    </style>
    <clipPath id="clippath">
      <rect class="cls-2" width="25" height="25"/>
    </clipPath>
  </defs>
  <g id="Capa_1-2" data-name="Capa_1">
    <g class="cls-4">
      <g>
        <path class="cls-3" d="M0,2C0,.9.9,0,2,0h21c1.1,0,2,.9,2,2v21c0,1.1-.9,2-2,2H2c-1.1,0-2-.9-2-2V2Z"/>
        <path class="cls-1" d="M16.26,18.65c.19.38.48.7.84.92.36.22.77.34,1.2.33.85,0,1.4-.43,1.4-1.02,0-.7-.56-.95-1.5-1.36l-.51-.22c-1.48-.63-2.47-1.42-2.47-3.1,0-1.54,1.17-2.72,3.01-2.72.6-.04,1.19.09,1.71.38.52.29.94.73,1.21,1.26l-1.61,1.03c-.1-.26-.29-.49-.52-.65-.24-.16-.51-.24-.8-.24-.12-.01-.25,0-.37.04-.12.04-.23.1-.32.18s-.17.18-.22.3c-.05.11-.08.24-.08.36,0,.62.38.87,1.26,1.25l.51.22c1.75.75,2.73,1.51,2.73,3.23,0,1.85-1.45,2.86-3.41,2.86-.76.05-1.52-.12-2.18-.5-.66-.37-1.21-.93-1.56-1.61l1.67-.97ZM9,18.83c.32.57.62,1.06,1.32,1.06s1.1-.26,1.1-1.29v-6.99h2.06v7.02c0,2.13-1.25,3.1-3.07,3.1-.64.04-1.28-.13-1.83-.46-.55-.33-.99-.83-1.25-1.42l1.67-1.01Z"/>
      </g>
    </g>
  </g>
</svg>