<svg xmlns="http://www.w3.org/2000/svg" viewBox="0 0 22.15 25" xmlns:v="https://vecta.io/nano"><defs><clipPath id="A"><path d="M0 0h22.15v25H0z" fill="none"/></clipPath></defs><g clip-path="url(#A)"><path d="M11.08,24.95c-.34,0-.66-.09-.96-.25l-3.05-1.81c-.46-.25-.23-.34-.09-.39.62-.21.73-.25,1.38-.62.07-.05.16-.02.23.02l2.34,1.4c.09.05.21.05.28,0l9.15-5.3c.09-.05.14-.14.14-.25V7.19c0-.11-.05-.21-.14-.25L11.19,1.66c-.09-.05-.21-.05-.28,0L1.77,6.93c-.09.05-.14.16-.14.25v10.57c0,.09.05.21.14.25l2.5,1.44c1.35.69,2.2-.11,2.2-.92v-10.43c0-.14.11-.28.28-.28h1.17c.14,0,.28.11.28.28v10.43c0,1.81-.99,2.87-2.71,2.87-.53,0-.94,0-2.11-.57l-2.41-1.38C.37,19.11,0,18.47,0,17.78V7.21C0,6.52.37,5.88.97,5.54L10.11.24c.57-.32,1.35-.32,1.93,0l9.15,5.3c.6.34.96.99.96,1.67v10.57c0,.69-.37,1.33-.96,1.67l-9.15,5.3c-.3.14-.64.21-.96.21M13.89,17.69c-4.01,0-4.84-1.83-4.84-3.39,0-.14.11-.27.28-.27h1.19c.14,0,.25.09.25.23.18,1.22.71,1.81,3.14,1.81,1.93,0,2.75-.44,2.75-1.47,0-.6-.23-1.03-3.23-1.33-2.5-.25-4.06-.8-4.06-2.8,0-1.86,1.56-2.96,4.17-2.96,2.93,0,4.38,1.01,4.56,3.21,0,.07-.02.14-.07.21-.05.05-.11.09-.18.09h-1.19c-.11,0-.23-.09-.25-.21-.28-1.26-.99-1.67-2.87-1.67-2.11,0-2.36.73-2.36,1.28,0,.66.3.87,3.14,1.24,2.82.37,4.15.89,4.15,2.87-.02,2.02-1.67,3.16-4.59,3.16Z" fill="#539e43"/></g></svg>