<svg xmlns="http://www.w3.org/2000/svg" viewBox="0 0 25.1 25" xmlns:v="https://vecta.io/nano"><defs><clipPath id="A"><path d="M0 0h25.1v25H0z" fill="none"/></clipPath><linearGradient id="B" x1="233.53" y1="231.2" x2="1474.31" y2="1459.6" gradientUnits="userSpaceOnUse"><stop offset="0" stop-color="#387eb8"/><stop offset="1" stop-color="#366994"/></linearGradient><linearGradient id="C" x1="384.89" y1="364.64" x2="1717.35" y2="1624.25" gradientUnits="userSpaceOnUse"><stop offset="0" stop-color="#ffe052"/><stop offset="1" stop-color="#ffc331"/></linearGradient></defs><g clip-path="url(#A)"><path d="M12.44,0C6.09,0,6.48,2.76,6.48,2.76v2.86h6.07v.86H4.08S.02,6.02.02,12.43s3.55,6.19,3.55,6.19h2.12v-2.98s-.11-3.55,3.49-3.55h6.02s3.38.05,3.38-3.27V3.33S19.09,0,12.44,0ZM9.1,1.93c.14,0,.29.03.42.08.13.05.25.14.35.24.1.1.18.22.24.35.05.13.08.27.08.42,0,.14-.03.29-.08.42-.05.13-.14.25-.24.35-.1.1-.22.18-.35.24-.13.05-.27.08-.42.08-.14,0-.29-.03-.42-.08-.13-.05-.25-.14-.35-.24-.1-.1-.18-.22-.24-.35-.05-.13-.08-.27-.08-.42,0-.14.03-.29.08-.42.05-.13.14-.25.24-.35.1-.1.22-.18.35-.24.13-.05.27-.08.42-.08Z" fill="url(#B)"/><path d="M12.62,24.91c6.36,0,5.96-2.76,5.96-2.76v-2.86h-6.07v-.86h8.47s4.07.46,4.07-5.95-3.55-6.19-3.55-6.19h-2.12v2.98s.11,3.55-3.49,3.55h-6.02s-3.38-.05-3.38,3.27v5.49s-.51,3.32,6.13,3.32M15.97,22.99c-.14,0-.29-.03-.42-.08-.13-.05-.25-.14-.35-.24s-.18-.22-.24-.35c-.05-.13-.08-.27-.08-.42,0-.14.03-.29.08-.42.05-.13.14-.25.24-.35.1-.1.22-.18.35-.24.13-.05.27-.08.42-.08.14,0,.29.03.42.08.13.05.25.14.35.24.1.1.18.22.24.35.05.13.08.27.08.42,0,.14-.03.29-.08.42-.05.13-.14.25-.24.35s-.22.18-.35.24c-.13.05-.27.08-.42.08Z" fill="url(#C)"/></g></svg>