<svg xmlns="http://www.w3.org/2000/svg" viewBox="0 0 25 25" xmlns:v="https://vecta.io/nano"><defs><clipPath id="A"><path d="M0 0h25v25H0z" fill="none"/></clipPath></defs><g clip-path="url(#A)"><path d="M19.14 0H5.86C2.62 0 0 2.62 0 5.86v13.28C0 22.38 2.62 25 5.86 25h13.28c3.24 0 5.86-2.62 5.86-5.86V5.86C25 2.62 22.38 0 19.14 0z" fill="#242938"/><path d="M12.5,14.35c1.01,0,1.82-.82,1.82-1.82s-.82-1.82-1.82-1.82-1.82.82-1.82,1.82.82,1.82,1.82,1.82Z" fill="#00d8ff"/><g fill="none" stroke="#00d8ff" stroke-width="1.57"><path d="M12.5,8.82c2.45,0,4.72.35,6.43.94,2.06.71,3.33,1.79,3.33,2.76s-1.35,2.16-3.56,2.9c-1.68.56-3.88.85-6.2.85s-4.64-.27-6.33-.85c-2.14-.73-3.44-1.89-3.44-2.89s1.21-2.04,3.25-2.75c1.72-.6,4.05-.96,6.52-.96h0Z"/><path d="M9.28,10.69c1.22-2.12,2.66-3.91,4.03-5.1,1.65-1.43,3.21-1.99,4.06-1.51.88.51,1.2,2.24.73,4.53-.36,1.73-1.21,3.78-2.37,5.8-1.19,2.06-2.55,3.88-3.9,5.06-1.71,1.49-3.36,2.03-4.22,1.53-.84-.48-1.16-2.07-.76-4.18.34-1.79,1.19-3.99,2.43-6.13h0Z"/><path d="M9.28,14.41c-1.23-2.12-2.06-4.26-2.41-6.04-.42-2.14-.12-3.78.72-4.27.88-.51,2.54.08,4.29,1.63,1.32,1.17,2.68,2.94,3.84,4.95,1.19,2.06,2.09,4.15,2.43,5.9.44,2.22.08,3.92-.78,4.42-.84.48-2.37-.03-4-1.43-1.38-1.19-2.86-3.02-4.1-5.16Z"/></g></g></svg>