<svg xmlns="http://www.w3.org/2000/svg" fill="none" viewBox="0 0 196 30"><g fill="#F83D48" clip-path="url(#a)"><path d="M50.01.752c7.857 0 10.864 3.177 10.864 10.028 0 1.42-.418 4.178-2.129 6.058 1.711.794 2.966 2.885 2.966 5.474C61.71 27.495 59.413 30 51.56 30H39.986V.752h10.028-.004Zm1.005 23.313c2.007 0 3.008-.211 3.008-2.171 0-1.96-.921-2.256-2.928-2.256h-3.97v4.431h3.886l.004-.004Zm-.338-10.446c2.007 0 3.008-.25 3.008-2.843 0-2.594-1.001-2.843-3.008-2.843H47.15v5.681h3.527v.005ZM71.57.752V30h-7.1V.752h7.1ZM97.975.752V30h-8.38c.03-.456.046-.912.046-1.377a19.495 19.495 0 0 0-6.7-14.73l-.008-.02v.012l-.004-.004a19.458 19.458 0 0 0-1.732 8.06c0 2.872.62 5.605 1.736 8.06h-7.181V.751h8.44l6.602 16.001V.752h7.186-.005ZM109.343.752v22.059h11.823v7.185h-19.009V.752h7.186ZM144.023 30h-7.186v-6.142h-6.099V30h-7.186V10.864c0-5.263.837-10.864 10.235-10.864 9.399 0 10.236 5.597 10.236 10.864V30Zm-7.186-19.136c0-2.006-.291-3.007-3.05-3.007-2.758 0-3.049 1.001-3.049 3.007v5.767h6.099v-5.767ZM156.429.752l6.603 16.001V.752h7.185V30h-8.44l-6.602-16.128V30h-7.186V.752h8.44ZM184.968.752c7.857 0 10.446 3.177 10.446 10.028v9.15c0 6.851-2.589 10.07-10.446 10.07h-10.573V.752h10.573Zm.126 22.059c2.007 0 3.008-.334 3.008-2.843v-9.192c0-2.59-1.001-2.843-3.008-2.843h-3.51v14.873h3.51v.005ZM31.914 17.623A16.154 16.154 0 0 1 19.262 30a34.618 34.618 0 0 0 3.544-3.088 5.7 5.7 0 0 0 3.515-1.276.793.793 0 1 0 .275-1.538.793.793 0 0 0-.634 1.272 5.278 5.278 0 0 1-2.708 1.082 40.588 40.588 0 0 0 4.178-5.12.794.794 0 1 0-.152-.114c-1.534 1.592-3.287 3.105-5.116 4.456a5.39 5.39 0 0 1-.038-.642c0-.992.266-1.934.773-2.767a.786.786 0 0 0 1.174-.692.793.793 0 1 0-1.49.38 5.668 5.668 0 0 0-.892 3.08c0 .312.025.624.076.929a43.479 43.479 0 0 1-4.684 2.957v-.08c.02-.955.16-1.88.397-2.768a11.527 11.527 0 0 1 .667-1.867 11.907 11.907 0 0 1 7.092-6.361c1.175-.389 2.425-.6 3.73-.6 1.014 0 1.998.127 2.94.367l.005.013ZM28.682 5.145c0 3.814-.849 7.434-2.37 10.674a13.52 13.52 0 0 0-6.446 3.245c.11-2.045.41-4.022.9-5.918h.135a5.74 5.74 0 0 0 4.38-2.02h.013a.793.793 0 1 0 0-1.588.793.793 0 0 0-.794.794c0 .266.131.503.33.646a5.316 5.316 0 0 1-3.937 1.737h-.017a26.881 26.881 0 0 1 3.468-7.735.793.793 0 1 0 .372-1.495.793.793 0 0 0-.554 1.364c-1.951 2.083-3.76 4.858-5.094 7.777a5.317 5.317 0 0 1-.482-2.218c0-.65.115-1.28.338-1.875h.021a.793.793 0 1 0 0-1.589.793.793 0 0 0-.435 1.458 5.759 5.759 0 0 0 .325 4.731 27.667 27.667 0 0 0-1.17 3.185 21.996 21.996 0 0 0-2.952-6.814c1.812-4.448 5.83-7.755 10.7-8.566A14.058 14.058 0 0 1 28.289.76c.186 1.044.304 2.108.355 3.19.021.397.03.794.03 1.195h.008ZM16.432 21.577a20.483 20.483 0 0 1-.79 5.618 17.65 17.65 0 0 1-.401 1.238c-1.82-1.779-3.375-3.802-4.689-5.948.705-1.056 1.052-2.332 1.052-3.86 0-.115 0-.229-.009-.343a.794.794 0 0 0 .516-.74.793.793 0 1 0-1.589 0 .79.79 0 0 0 .643.778c.004.102.008.203.008.304 0 1.356-.287 2.497-.87 3.451a39.073 39.073 0 0 1-1.83-3.447c1.217-1.064 2.446-2.703 2.548-5.03a.794.794 0 1 0-1.22-.668c0 .44.345.786.776.79-.13 2.044-1.204 3.514-2.293 4.499-1.285-2.797-2.24-5.656-2.936-8.335a.793.793 0 1 0-.955-.777c0 .44.355.794.794.794.021 0 .047 0 .068-.004a42.794 42.794 0 0 0 1.44 7.223A6.64 6.64 0 0 1 3.9 15.097a.793.793 0 1 0-1.457-.44.793.793 0 0 0 1.123.723 6.949 6.949 0 0 0 3.278 2.256 43.125 43.125 0 0 0 1.677 4.583 6.636 6.636 0 0 1-3.362-2.171.793.793 0 1 0-.482.165h.055a7.064 7.064 0 0 0 4.009 2.509 39.652 39.652 0 0 0 4.186 7.261 15.919 15.919 0 0 1-2.374-.676C4.393 27.03 0 21.104 0 14.155 0 9.86 1.677 5.956 4.41 3.067a20.36 20.36 0 0 1 9.58 8.858 20.159 20.159 0 0 1 2.442 9.652Z"/></g><defs><clipPath id="a"><path fill="#fff" d="M0 0h195.414v30H0z"/></clipPath></defs></svg>