<svg xmlns="http://www.w3.org/2000/svg" fill="none" viewBox="0 0 130 26"><path fill="#424242" d="M8.38 1.126c6.565 0 9.078 2.647 9.078 8.357 0 1.184-.349 3.482-1.781 5.049 1.431.662 2.48 2.403 2.48 4.561 0 4.318-1.92 6.407-8.485 6.407H0V1.126h8.38Zm.838 19.43c1.676 0 2.514-.174 2.514-1.81 0-1.636-.768-1.88-2.445-1.88H5.97v3.691h3.248Zm-.28-8.706c1.677 0 2.515-.209 2.515-2.367s-.838-2.367-2.514-2.367H5.99v4.736H8.94v-.002ZM26.397 1.126V25.5h-5.935V1.126h5.935ZM48.464 1.126V25.5H41.46c.026-.38.04-.762.04-1.147 0-4.897-2.167-9.29-5.598-12.275l-.008-.018v.011l-.005-.004a16.197 16.197 0 0 0-1.449 6.716c0 2.395.519 4.67 1.45 6.717h-6.002V1.126h7.054l5.517 13.337V1.126h6.005Z"/><path fill="#F83D48" d="M57.962 1.126v18.385h9.882V25.5H51.957V1.126h6.005ZM86.943 25.5h-6.005v-5.118h-5.097V25.5h-6.006V9.552c0-4.387.698-9.052 8.554-9.052 7.857 0 8.554 4.665 8.554 9.052V25.5ZM80.938 9.552c0-1.671-.244-2.507-2.549-2.507-2.304 0-2.548.836-2.548 2.507v4.806h5.097V9.552ZM97.314 1.126l5.517 13.337V1.126h6.006V25.5h-7.053l-5.518-13.44V25.5h-6.005V1.126h7.053ZM121.162 1.126c6.565 0 8.729 2.647 8.729 8.357v7.625c0 5.712-2.164 8.392-8.729 8.392h-8.834V1.126h8.834Zm.105 18.385c1.676 0 2.514-.279 2.514-2.368v-7.66c0-2.158-.838-2.367-2.514-2.367h-2.934v12.396h2.934v-.001Z"/></svg>