<svg width="215" height="119" viewBox="0 0 215 119" fill="none" xmlns="http://www.w3.org/2000/svg">
<path d="M34.1658 77.1022C34.1658 76.9809 34.1658 76.8676 34.1658 76.7786C35.3308 53.5995 36.5363 30.3719 36.7143 7.16861C36.6981 7.16861 36.6819 7.15243 36.6657 7.13624C36.6819 6.90162 36.6981 6.65891 36.7223 6.42429C36.7223 6.35147 36.7385 6.27866 36.7466 6.20585C36.8194 6.20585 36.8922 6.19776 36.9651 6.18967C37.1188 6.18967 37.2644 6.17348 37.4181 6.1573C37.5637 6.1573 37.7175 6.14921 37.8712 6.13303V6.14112C49.0764 6.20585 60.6215 5.21072 71.3332 9.1993C76.3169 11.1086 80.6938 14.183 84.9089 17.403C91.3812 22.0145 97.538 27.0387 103.371 32.4269C122.521 49.9427 142.577 66.9487 158.103 87.8867C164.219 96.5273 157.545 104.132 147.869 102.547C144.77 102.021 141.906 100.629 139.155 99.1405C136.356 106.64 127.845 112.773 120.046 108.711C119.754 108.534 119.067 108.186 118.258 107.741C117.918 109.076 117.052 110.354 116.324 111.478C114.73 114.342 111.607 116.017 108.444 116.567C105.604 116.931 102.595 116.486 99.9247 115.467C99.6416 115.346 99.3665 115.216 99.0995 115.079C98.873 115.257 98.6788 115.402 98.5655 115.483C93.6385 118.614 88.768 119.884 83.3555 117.061C71.4869 112.263 64.6424 100.742 55.9209 92.0048C51.8595 87.822 47.7819 83.2995 42.5232 80.6377C40.5896 79.764 38.6802 78.8983 36.6576 78.3724C36.6414 78.3724 36.6253 78.3643 36.6091 78.3562C36.6253 78.3562 36.6333 78.3643 36.6495 78.3724C36.3097 78.2511 35.9618 78.1702 35.614 78.0892C35.3874 78.0407 35.1609 78.0003 34.9344 77.9679C34.7159 77.9436 34.4975 77.9113 34.279 77.9113C34.2224 77.7414 34.2062 77.531 34.2062 77.3288C34.2062 77.2478 34.2062 77.1669 34.2062 77.086L34.1658 77.1022Z" fill="#FFC19B"/>
<path d="M57.9751 29.2556C61.2841 22.7752 65.5882 16.7236 70.7256 11.5457C82.5942 -1.69831 102.019 -0.185399 118.241 0.324298C130.352 0.93917 142.415 2.84851 154.494 3.5362C161.799 4.15107 169.032 4.50705 176.306 5.10574C176.783 5.08147 177.285 5.24327 177.754 5.20282C179.744 5.34036 181.872 5.26755 183.854 5.42126C183.854 5.45363 183.854 5.4779 183.854 5.50217C183.854 5.83388 183.886 6.17367 183.894 6.50538C183.878 6.50538 183.854 6.50538 183.838 6.50538C183.854 6.55392 183.862 6.60246 183.862 6.66719C184.032 12.1444 184.25 17.6216 184.566 23.0907C185.585 40.3719 186.597 57.6773 186.678 74.9746C186.75 75.46 187.001 76.2286 186.338 76.3743C186.289 76.3824 186.241 76.3743 186.192 76.3743C181.912 79.5457 177.527 82.5715 172.819 85.0634C168.531 87.0698 164.089 88.8335 159.704 90.5406C159.647 90.5891 159.583 90.6539 159.526 90.7267C159.3 90.4435 159.073 90.1523 158.846 89.8691C158.846 89.8691 158.846 89.861 158.863 89.8529C158.66 89.5374 158.458 89.2461 158.248 88.9387C149.073 75.9374 137.132 65.4117 125.757 54.4169C120.749 49.3199 115.571 44.3281 110.539 39.2878C106.51 35.7684 102.836 31.4401 97.9175 29.1424H97.9256C97.6667 29.1505 97.4968 28.9968 97.424 28.8107C94.9079 27.5648 91.971 27.9531 89.5277 29.1909C81.769 33.317 78.2173 42.079 71.0816 46.9979C62.5543 53.0981 54.569 47.7908 54.2939 37.8639C54.6257 34.7248 56.6725 31.9902 57.9751 29.2476V29.2556Z" fill="#E67377"/>
<path d="M2.07115 7.47631C2.10351 7.37114 2.1116 7.25787 2.1116 7.13651C2.1116 6.99898 2.09542 6.86144 2.09542 6.7239C2.08733 6.4731 2.09542 6.21421 2.09542 5.9634C2.1925 5.97149 2.29768 5.98767 2.40286 5.97958C2.58894 5.97958 2.77501 5.97958 2.96109 5.97958C3.00964 5.97958 3.05818 5.97958 3.10672 5.97958C3.17954 5.97958 3.24426 5.97958 3.31707 5.97149C8.03379 5.69642 12.7667 6.04431 17.4834 5.86632C24.0447 5.7935 30.6384 5.51843 37.1755 5.94722C37.1755 5.97958 37.1755 6.02004 37.1755 6.0524C37.1755 6.07667 37.1755 6.09285 37.1755 6.11712C37.1755 6.16566 37.1755 6.21421 37.1755 6.26275C37.1755 6.35174 37.1755 6.44883 37.1836 6.53782C37.1836 6.58636 37.1917 6.63491 37.2079 6.68345C37.2079 6.74008 37.2079 6.79672 37.2079 6.85335C37.2079 6.82908 37.2079 6.80481 37.2079 6.78053C37.2079 6.86144 37.2079 6.94234 37.2079 7.02325C37.2079 7.02325 37.2052 7.02325 37.1998 7.02325C37.3373 11.1413 36.8033 15.2431 36.8276 19.3611C36.7791 21.6426 36.8438 23.9241 36.9085 26.2056C36.9732 28.6085 37.046 31.0033 36.9732 33.4061C36.8761 44.8622 35.9134 56.2939 35.4037 67.7419C35.2823 70.6544 35.0801 73.5993 34.983 76.5119C34.983 76.5119 34.9749 76.5281 34.983 76.5361C34.983 76.5766 34.9668 76.6171 34.9668 76.6656C34.9506 76.698 34.9425 76.7303 34.9344 76.7708C34.9183 76.8759 34.9183 76.973 34.9264 77.0701C34.9264 77.2643 34.9264 77.4585 34.9344 77.6526C34.9344 77.7659 34.9344 77.8711 34.9425 77.9843C34.9425 78.0167 34.9425 78.0491 34.9425 78.0814C34.8616 78.0814 34.7726 78.0733 34.6836 78.0652C34.6836 78.0652 34.6675 78.0652 34.6594 78.0652C34.2468 78.0329 33.8422 78.0086 33.4377 77.9843C33.195 77.9682 32.9523 77.9358 32.7015 77.9439C32.7177 77.9439 32.7258 77.9439 32.7338 77.9439C32.6691 77.9439 32.5963 77.9439 32.5316 77.9439C32.3212 77.9277 32.1109 77.9196 31.9005 77.9196C21.9493 77.1267 11.901 77.6607 1.95788 77.4261C1.86889 77.4018 1.7718 77.4018 1.68281 77.3937C1.48055 77.3937 1.27829 77.3937 1.07603 77.3937C0.776681 77.3937 0.485425 77.3937 0.18608 77.4018C0.18608 77.4018 0.145628 77.4018 0.121356 77.4018C0.145628 77.4018 0.169899 77.4018 0.18608 77.4018C0.121356 77.4018 0.0647234 77.4018 0 77.4018C1.42391 54.1257 1.90934 30.7605 2.07115 7.47631Z" fill="#FFFFFA"/>
<path d="M183.685 6.73986C183.685 6.46478 183.677 6.1978 183.669 5.92272C183.669 5.76901 183.661 5.6072 183.653 5.44539C183.822 5.44539 184 5.42921 184.178 5.42921C184.154 5.42921 184.13 5.42921 184.106 5.42921C184.348 5.42112 184.583 5.4373 184.818 5.45348C185.004 5.45348 185.19 5.45348 185.384 5.45348C185.36 5.45348 185.335 5.45348 185.311 5.45348C185.416 5.45348 185.513 5.45348 185.619 5.45348C185.594 5.45348 185.57 5.45348 185.546 5.45348C185.708 5.45348 185.869 5.44539 186.031 5.42112C186.007 5.42112 185.983 5.42112 185.966 5.42921C186.104 5.41303 186.242 5.40494 186.379 5.38876C186.355 5.38876 186.331 5.38876 186.306 5.38876C186.549 5.36448 186.784 5.33212 187.026 5.30785C187.002 5.30785 186.978 5.30785 186.962 5.31594C187.01 5.31594 187.051 5.30785 187.099 5.29976C187.164 5.29976 187.22 5.27549 187.277 5.25122C194.057 4.52308 200.926 4.13474 207.73 4.00529C208.62 4.00529 209.518 3.94866 210.408 3.90012C210.618 3.9163 210.845 3.90821 211.055 3.90012C211.346 3.88394 211.637 3.86776 211.921 3.84349C212.001 3.84349 212.09 3.8273 212.179 3.81921C212.179 3.88394 212.179 3.94057 212.188 3.9972C212.188 4.05384 212.188 4.11856 212.188 4.17519C212.188 4.21564 212.179 4.2561 212.188 4.29655C212.188 4.38554 212.196 4.48263 212.204 4.57162C212.204 4.66871 212.204 4.77388 212.22 4.87906C212.252 16.0196 212.163 27.1358 212.406 38.2763C212.875 48.988 212.851 59.6917 213.975 70.3548C214.097 71.536 214.17 72.7253 214.259 73.9065C214.259 73.9065 214.259 73.9227 214.259 73.9308C214.259 74.1735 214.283 74.4081 214.291 74.6428C214.291 74.7156 214.291 74.7965 214.307 74.8774C214.194 74.8855 214.089 74.8936 213.975 74.9017C213.919 74.9017 213.862 74.9017 213.814 74.9017C213.644 74.9017 213.466 74.9178 213.304 74.934C213.231 74.9421 213.158 74.9502 213.086 74.9664C209.388 74.9502 205.699 75.1848 201.985 75.0716C198.83 75.1606 195.513 75.0797 192.326 75.5084C192.123 75.5246 191.921 75.5327 191.719 75.557C191.08 75.6136 190.44 75.6622 189.801 75.7188C189.826 75.7188 189.85 75.7188 189.874 75.7188C189.462 75.7511 189.065 75.8159 188.661 75.8968C188.588 75.913 188.507 75.9211 188.434 75.9372C188.345 75.9534 188.248 75.9615 188.151 75.9777C187.949 76.01 187.746 76.0586 187.544 76.099C187.407 76.1233 187.269 76.1557 187.131 76.1961C187.002 76.2285 186.873 76.2689 186.743 76.3013C186.743 76.1314 186.727 75.9696 186.711 75.7997C186.719 75.7997 186.727 75.7997 186.727 75.7997C185.562 52.9362 184.421 30.0241 183.669 7.15247C183.685 7.00684 183.669 6.8693 183.685 6.73177V6.73986Z" fill="#FFFFFA"/>
<path d="M76.6567 93.4365C75.9285 92.5304 75.2408 91.6162 74.5612 90.6939C74.4722 90.5806 74.3752 90.4673 74.2862 90.3622C74.0111 90.0305 73.7603 89.6907 73.4771 89.367C73.3153 89.181 73.1535 88.9949 72.9998 88.8169C72.8056 88.5904 72.6195 88.3638 72.4173 88.1535C72.4173 88.1535 72.4092 88.1454 72.4011 88.1373C72.1584 87.8946 71.9157 87.66 71.673 87.4172C71.495 87.2393 71.3251 87.0613 71.139 86.8914C71.05 86.8186 70.9529 86.7538 70.872 86.681C70.694 86.5273 70.5322 86.3655 70.3623 86.2118C70.3704 86.2118 70.3785 86.2199 70.3866 86.228C70.3704 86.2118 70.3623 86.2037 70.3542 86.1956H70.3461C70.3461 86.1956 70.3461 86.1875 70.338 86.1794C70.1924 86.05 70.0468 85.9286 69.8931 85.8073C70.1115 86.147 70.3138 86.4868 70.516 86.8428C72.5063 89.6745 74.5127 92.5466 76.7052 95.2407C82.231 102.053 88.2098 108.889 95.4831 113.881C95.5478 113.913 95.6044 113.954 95.6692 113.986C95.8229 114.075 95.9766 114.164 96.1384 114.261C96.284 114.35 96.4377 114.439 96.5834 114.528C96.7694 114.625 96.9636 114.722 97.1578 114.811C97.1578 114.811 97.1659 114.811 97.174 114.811C97.174 114.811 97.1821 114.811 97.1901 114.811C97.4733 114.933 97.7646 115.054 98.0477 115.175C98.0477 115.175 98.0558 115.175 98.0639 115.175C98.2176 115.232 98.3714 115.289 98.5251 115.345C98.7435 115.418 98.962 115.491 99.1885 115.556C99.2937 115.58 99.4069 115.612 99.5121 115.629C99.5121 115.629 99.5202 115.629 99.5283 115.629C99.5283 115.629 99.5364 115.629 99.5445 115.629C99.6496 115.653 99.7548 115.669 99.8681 115.685C99.8762 115.685 99.8843 115.685 99.8924 115.685C100.151 115.709 100.402 115.766 100.661 115.798C100.653 115.798 100.637 115.798 100.629 115.798C100.677 115.798 100.726 115.807 100.774 115.815C91.0091 110.621 83.4931 102.004 76.6809 93.4365H76.6567Z" fill="#2E296D"/>
<path d="M97.0937 86.0907C96.0339 84.7963 95.0549 83.4371 94.0922 82.0698C93.9627 81.9242 93.8414 81.7705 93.7119 81.6248C93.5906 81.4711 93.4611 81.3174 93.3398 81.1637C93.2508 81.0504 93.178 80.929 93.0971 80.8158C93.0971 80.8158 93.0971 80.8158 93.1051 80.8239C93.1051 80.8158 93.089 80.8077 93.0809 80.7996C92.9676 80.654 92.8543 80.5003 92.7411 80.3465C92.7492 80.3627 92.7573 80.3708 92.7653 80.387C92.7087 80.298 92.6359 80.2171 92.5712 80.1362C92.4741 80.031 92.377 79.9177 92.288 79.8045C92.1343 79.6427 91.9887 79.4728 91.8349 79.3191C91.8349 79.3191 91.8349 79.3271 91.843 79.3352C91.6974 79.1977 91.5518 79.0521 91.39 78.9307C91.2363 78.8094 91.1068 78.6556 90.9531 78.5262C90.9531 78.5262 90.9612 78.5262 90.9693 78.5343C90.9612 78.5262 90.945 78.5181 90.9369 78.51C90.7427 78.3563 90.5405 78.2026 90.3463 78.0408C90.1521 77.8709 89.9661 77.6929 89.7638 77.523C89.6344 77.4178 89.4968 77.3207 89.3512 77.2236C89.2865 77.1751 89.2136 77.1265 89.1489 77.078C91.5599 80.1038 93.6068 83.4775 96.042 86.5033C101.827 94.0436 108.218 101.309 115.766 107.126C115.766 107.126 115.783 107.126 115.783 107.134C115.88 107.182 115.969 107.239 116.066 107.296C116.066 107.296 116.082 107.296 116.082 107.304C116.082 107.304 116.09 107.304 116.098 107.312C116.106 107.312 116.114 107.312 116.122 107.328C116.252 107.401 116.373 107.466 116.511 107.53C116.713 107.627 116.907 107.725 117.109 107.814C117.085 107.814 117.069 107.797 117.045 107.789C117.296 107.886 117.546 107.983 117.797 108.08C118.032 108.161 118.274 108.218 118.517 108.291C118.533 108.291 118.558 108.291 118.574 108.299C118.897 108.388 119.213 108.469 119.537 108.574C119.537 108.574 119.537 108.574 119.528 108.574C119.528 108.574 119.537 108.574 119.545 108.574C110.815 102.474 103.526 94.5371 97.0856 86.0907H97.0937Z" fill="#2E296D"/>
<path d="M115.791 107.134C115.791 107.134 115.783 107.134 115.775 107.125C115.775 107.125 115.783 107.134 115.791 107.134Z" fill="#2E296D"/>
<path d="M117.878 108.096C117.878 108.096 117.837 108.08 117.813 108.072C117.837 108.072 117.853 108.088 117.878 108.096Z" fill="#2E296D"/>
<path d="M119.747 109.973C119.796 110.006 119.844 110.038 119.893 110.07C119.949 110.087 120.006 110.095 120.054 110.095C120.006 110.07 119.966 110.054 119.917 110.03C119.86 110.014 119.804 109.99 119.747 109.973Z" fill="#2E296D"/>
<path d="M136.705 98.3474C136.705 98.3474 136.689 98.3312 136.672 98.3312C136.689 98.3393 136.697 98.3474 136.713 98.3554L136.705 98.3474Z" fill="#2E296D"/>
<path d="M112.919 73.2509C112.231 72.4742 111.56 71.6894 110.888 70.8966C110.88 70.8885 110.872 70.8804 110.856 70.8642C110.605 70.6134 110.362 70.3464 110.12 70.0875C109.804 69.7639 109.489 69.4322 109.157 69.1167C108.906 68.874 108.647 68.6474 108.38 68.4209C108.21 68.2753 108.032 68.1377 107.854 68.0083C107.595 67.8303 107.328 67.6604 107.069 67.4905C107.094 67.5067 107.11 67.5148 107.134 67.531C106.867 67.3611 106.608 67.1912 106.333 67.0455C106.738 67.5471 107.134 68.0407 107.531 68.5423C110.702 72.4176 113.971 76.2201 117.393 79.8769C123.299 86.2765 129.35 92.6517 136.211 98.0318C136.357 98.1289 136.511 98.2341 136.664 98.3312C136.939 98.5011 137.222 98.6629 137.506 98.8166C137.797 98.9622 138.088 99.1079 138.379 99.2454C138.363 99.2292 138.339 99.2211 138.323 99.213C138.517 99.3101 138.711 99.3991 138.905 99.48C139.164 99.5771 139.423 99.6742 139.69 99.7551C139.892 99.8117 140.095 99.8684 140.297 99.925C140.41 99.9574 140.515 99.9897 140.629 100.014C140.661 100.014 140.685 100.014 140.718 100.022C130.184 92.5708 121.446 82.8704 112.919 73.2509Z" fill="#2E296D"/>
<path d="M108.379 68.413C108.379 68.413 108.387 68.413 108.396 68.4211C108.412 68.4292 108.428 68.4454 108.436 68.4534C108.412 68.4373 108.396 68.4211 108.379 68.4049V68.413Z" fill="#2E296D"/>
<path d="M199.405 11.958C197.107 11.958 194.737 13.7784 194.583 16.165C194.429 19.1099 196.687 20.8089 198.968 20.9141C199.017 35.9137 198.968 50.9619 198.992 65.9778C198.92 66.4066 199.195 66.8515 199.664 66.7463C199.931 66.6816 200.077 66.4389 200.068 66.18C200.052 64.0603 200.101 61.9083 200.068 59.7805C199.988 46.8196 200.206 33.7941 200.012 20.8494C201.703 20.5581 203.207 19.3203 203.491 16.9741C203.491 14.2557 202.269 12.2169 199.405 11.958Z" fill="#2E296D"/>
<path d="M19.676 13.7138C17.4593 14.4095 15.2506 16.0843 15.3072 18.6247C15.0402 21.2459 17.3217 23.5113 19.7731 23.9643C19.9107 23.9805 20.0482 23.9886 20.1857 23.9805C19.9026 28.4222 19.8298 32.9123 19.4495 37.3378C18.5191 46.836 18.6567 56.4069 17.791 65.9213C17.7667 66.6332 18.8589 66.6332 18.867 65.9536C19.0612 62.1673 19.4495 58.381 19.5628 54.5785C19.9673 44.336 20.6954 34.0854 21.3103 23.8592C23.6323 23.3414 25.574 21.1974 25.3555 18.7136C25.4445 15.7445 22.5805 13.3092 19.668 13.7138H19.676Z" fill="#2E296D"/>
<path d="M164.171 87.037C164.018 86.859 163.872 86.681 163.718 86.503C163.726 86.5111 163.734 86.5192 163.743 86.5353C163.726 86.5192 163.71 86.4949 163.686 86.4706C163.678 86.4544 163.662 86.4464 163.654 86.4302C163.451 86.1794 163.249 85.9286 163.047 85.6778C162.99 85.613 162.942 85.5483 162.893 85.4917C162.893 85.4917 162.885 85.4836 162.877 85.4755C162.877 85.4755 162.877 85.4755 162.877 85.4674C162.877 85.4674 162.869 85.4593 162.861 85.4512C162.262 84.715 161.639 84.0031 161.04 83.2587C160.717 82.8623 160.393 82.474 160.061 82.0856C159.738 81.7054 159.43 81.3251 159.107 80.953C159.123 80.9691 159.139 80.9853 159.155 81.0015C158.856 80.6698 158.565 80.3381 158.273 79.9983C158.29 80.0145 158.306 80.0307 158.322 80.0468C157.885 79.5452 157.448 79.0517 157.019 78.542C156.793 78.275 156.566 78 156.34 77.7411C156.105 77.4741 155.879 77.2152 155.652 76.9482C155.199 76.398 154.762 75.8317 154.301 75.2978C153.88 74.8204 153.435 74.3512 152.99 73.89C153.007 73.9062 153.023 73.9224 153.039 73.9386C152.521 73.4127 151.987 72.903 151.461 72.3852C150.895 71.8189 150.345 71.2364 149.787 70.67C149.317 70.2008 148.864 69.7234 148.403 69.2542C148.152 68.9872 147.877 68.7364 147.618 68.4856C147.343 68.2267 147.076 67.9597 146.809 67.6847C146.397 67.2801 145.976 66.8756 145.555 66.4792C145.207 66.1556 144.876 65.8158 144.528 65.4922C143.921 64.9339 143.355 64.3271 142.748 63.7608C142.764 63.777 142.78 63.7932 142.796 63.8094C142.319 63.3644 141.85 62.9194 141.397 62.4502C140.984 62.0214 140.572 61.5845 140.151 61.1638C140.167 61.18 140.183 61.1961 140.199 61.2123C139.795 60.8159 139.374 60.4276 138.97 60.0311C138.46 59.5295 137.942 59.036 137.441 58.5263C136.729 57.8063 136.049 57.0619 135.369 56.3014C135.086 55.9859 134.787 55.6947 134.496 55.3953C133.59 54.5377 132.675 53.6801 131.761 52.8307C140.661 54.028 149.957 52.4909 157.893 48.3243C157.505 48.4618 157.125 48.5994 156.736 48.7045C156.113 48.8825 155.49 49.0524 154.859 49.2061C154.568 49.279 154.285 49.3437 153.994 49.4165C153.694 49.4974 153.403 49.5864 153.104 49.6592C152.497 49.8129 151.898 49.9505 151.291 50.0961C151.308 50.0961 151.316 50.088 151.332 50.0799C151.049 50.1446 150.774 50.2174 150.49 50.2822C147.942 51.0912 145.313 51.609 142.643 51.7465C138.614 52.2481 134.455 52.2562 130.418 51.5847C127.344 48.7126 124.237 45.8729 121.106 43.0655C114.472 37.6935 108.525 30.5739 99.8202 28.7293C98.3234 28.1468 96.7701 28.082 95.2005 27.9607C95.0711 27.9688 94.9416 27.9769 94.8203 27.9931C94.8041 27.9931 94.796 27.9931 94.7798 27.9931C94.7637 27.9931 94.7475 27.9931 94.7313 27.9931C94.5128 28.0173 94.2944 28.0335 94.0679 28.0497C94.2378 28.074 94.4077 28.0982 94.5776 28.1306C94.7313 28.1549 94.8931 28.1872 95.0468 28.2196C95.2653 28.2681 95.4756 28.349 95.6779 28.4218C96.0581 28.5513 96.4141 28.705 96.7701 28.8749C97.029 29.0044 97.304 29.1257 97.5548 29.2713C97.5629 29.2713 97.571 29.2794 97.5791 29.2875C97.6519 29.328 97.7328 29.3684 97.8056 29.417C97.838 29.4331 97.8704 29.4574 97.9027 29.4736C98.1374 29.6111 98.3639 29.7568 98.5823 29.9105C98.736 30.0238 98.8817 30.137 99.0354 30.2584C103.558 33.0415 107.352 36.9734 111.389 40.4038C117.603 46.2693 123.315 52.6041 129.666 58.324C140.191 68.5908 150.159 79.343 159.56 90.6291C159.681 90.5886 159.803 90.5401 159.924 90.4997C160.037 90.4673 160.15 90.4268 160.264 90.3864C160.377 90.3459 160.49 90.3136 160.604 90.2812C160.62 90.2731 160.636 90.265 160.652 90.265C160.652 90.265 160.66 90.265 160.668 90.265C160.676 90.265 160.692 90.265 160.701 90.265C160.838 90.2165 160.976 90.1679 161.105 90.1194C161.615 89.9414 162.116 89.7553 162.626 89.5612C162.626 89.5612 162.634 89.5612 162.642 89.5612C162.642 89.5612 162.645 89.5612 162.65 89.5612H162.658C163.087 89.3913 163.516 89.2214 163.937 89.0353C164.398 88.8411 164.851 88.6308 165.312 88.4447C164.916 87.9754 164.511 87.4981 164.115 87.0289C164.131 87.045 164.147 87.0612 164.163 87.0774L164.171 87.037Z" fill="#2E296D"/>
</svg>
