<svg width="178" height="242" viewBox="0 0 178 242" fill="none" xmlns="http://www.w3.org/2000/svg">
<path d="M87.7059 175.879C87.7059 175.879 87.6882 175.861 87.6882 175.844C87.6793 175.844 87.6704 175.826 87.6704 175.817C87.6704 175.817 87.6704 175.817 87.6793 175.817C87.6527 175.764 87.6261 175.711 87.5995 175.649C87.5995 175.631 87.5818 175.613 87.573 175.604C87.4223 175.356 87.2716 175.108 87.1387 174.842C87.1564 174.869 87.1653 174.887 87.183 174.913C87.121 174.807 87.0589 174.692 87.0057 174.576C86.9703 174.514 86.9437 174.452 86.9171 174.399C86.8994 174.372 86.8817 174.346 86.8728 174.319C86.8285 174.257 86.793 174.186 86.7664 174.115C86.5981 173.779 86.4651 173.433 86.3233 173.079C86.3233 173.079 86.3233 173.087 86.3322 173.096C86.2967 173.025 86.2701 172.954 86.2524 172.884C85.2155 170.757 84.1608 168.621 82.9378 166.6C80.8994 162.931 79.4548 159.005 77.3455 155.344C77.115 155.034 76.8935 154.343 76.5744 153.971C76.5478 153.9 76.5124 153.82 76.4592 153.767C76.4149 153.802 76.3706 153.829 76.3174 153.864C76.1579 153.971 75.9895 154.068 75.8211 154.157H75.8122C75.8122 154.157 75.8034 154.157 75.7945 154.166C75.5375 154.307 75.2982 154.458 75.05 154.609C74.8551 154.742 74.6512 154.857 74.4562 154.981C74.0574 155.229 73.6763 155.504 73.2775 155.761C73.2775 155.761 73.2775 155.761 73.2687 155.761V155.77C73.2687 155.77 73.2598 155.77 73.2509 155.779H73.2421C73.2421 155.779 73.2243 155.788 73.2155 155.796C73.2155 155.796 73.2155 155.796 73.2066 155.805C73.2066 155.805 73.2066 155.814 73.1978 155.814C73.1978 155.814 73.1889 155.814 73.1889 155.823C73.1889 155.823 73.1712 155.832 73.1712 155.841C73.1712 155.841 73.18 155.832 73.1889 155.823C73.1712 155.832 73.1623 155.841 73.1534 155.85C73.1534 155.85 73.1534 155.85 73.1623 155.85C73.1446 155.858 73.1357 155.867 73.1269 155.876C73.1269 155.876 73.1091 155.885 73.1091 155.894C73.1091 155.894 73.1003 155.894 73.0914 155.903C72.7458 156.133 72.4001 156.355 72.0633 156.594C71.7354 156.833 71.3986 157.073 71.0619 157.303C70.4415 157.728 69.8477 158.18 69.245 158.624C68.7133 159.014 68.1726 159.377 67.6409 159.758C67.1269 160.13 66.6128 160.502 66.0899 160.857C66.1165 160.839 66.1342 160.83 66.152 160.813C66.0811 160.866 66.0013 160.91 65.9304 160.963C65.957 160.946 65.9747 160.937 65.9924 160.919C65.9658 160.937 65.9393 160.954 65.9127 160.972C65.9393 160.954 65.957 160.946 65.9747 160.928C65.5582 161.211 65.1593 161.495 64.7339 161.77C64.2997 162.053 63.8565 162.337 63.4223 162.638C62.6867 163.144 61.9422 163.613 61.2066 164.11C60.5331 164.562 59.8772 165.058 59.2125 165.528C58.5301 166.006 57.8654 166.494 57.2096 167.008C56.9791 167.194 56.7576 167.389 56.5271 167.566C56.3056 167.743 56.084 167.929 55.8536 168.098C55.4282 168.426 55.0116 168.754 54.5951 169.081C54.5951 169.081 54.6039 169.081 54.6128 169.081C54.5862 169.108 54.5596 169.126 54.533 169.144C54.5508 169.135 54.5596 169.126 54.5685 169.117C54.4267 169.223 54.2938 169.338 54.152 169.445C51.9363 176.774 49.7206 184.095 47.7709 191.495C44.7753 203.734 41.5138 215.894 37.2686 227.761C37.0559 228.514 36.7812 229.25 36.5242 230.003C36.8698 229.808 37.2155 229.64 37.57 229.463C37.9067 229.285 38.2524 229.099 38.5892 228.913C38.5892 228.913 38.5803 228.913 38.5714 228.913C38.5803 228.913 38.5892 228.904 38.598 228.895C38.6246 228.878 38.6512 228.869 38.6778 228.851C38.6867 228.851 38.6955 228.833 38.7044 228.833C38.731 228.816 38.7487 228.807 38.7664 228.789C38.8019 228.771 38.8373 228.754 38.8728 228.745C40.2022 228 41.5138 227.238 42.8344 226.476C47.762 223.711 52.7251 221.114 57.8211 218.641C57.8654 218.615 57.892 218.588 57.9274 218.562C59.4518 220.981 61.118 223.303 62.7664 225.687C63.9097 227.185 64.9289 228.771 65.9747 230.34C66.3203 230.792 66.666 231.235 67.0382 231.678C67.5168 232.254 67.9334 232.875 68.3588 233.477C68.341 233.451 68.3322 233.433 68.3144 233.415C68.5006 233.681 68.6867 233.947 68.8816 234.213C68.8816 234.195 68.8639 234.186 68.8551 234.169C69.1121 234.523 69.378 234.869 69.6527 235.214C70.1579 235.826 70.6542 236.429 71.1416 237.049C71.2303 237.155 71.3277 237.262 71.4164 237.368C71.7266 237.74 72.0368 238.121 72.3381 238.503C72.9762 239.309 73.5877 240.133 74.1992 240.949C74.3499 241.152 74.5006 241.356 74.6512 241.56C74.8108 240.86 74.988 240.169 75.1741 239.477C75.3337 238.565 75.5198 237.678 75.7236 236.703C76.7339 231.226 78.214 225.767 78.9319 220.219C80.1283 212.881 82.0249 205.622 83.4341 198.319C84.7103 190.857 86.2613 183.386 87.7857 175.932C87.7679 175.906 87.7591 175.879 87.7502 175.853L87.7059 175.879Z" fill="#A4BEFB"/>
<path d="M151.34 226.263C151.34 226.263 151.358 226.317 151.358 226.343C151.207 225.802 151.057 225.253 150.915 224.712C150.552 223.932 150.41 223.02 150.144 222.187C149.648 220.077 148.868 218.065 148.247 216C145.704 207.209 143.018 198.47 140.129 189.785C136.956 179.814 133.5 169.932 130.664 159.856C129.813 156.887 128.989 153.891 128.067 150.922C128.032 150.869 128.014 150.816 127.996 150.754C127.996 150.727 127.987 150.709 127.978 150.692C127.943 150.594 127.916 150.497 127.89 150.399C127.89 150.373 127.881 150.355 127.872 150.337C127.872 150.337 127.872 150.337 127.872 150.328C127.872 150.328 127.872 150.328 127.872 150.319C127.872 150.319 127.872 150.302 127.872 150.293C127.872 150.284 127.872 150.293 127.872 150.284C127.845 150.186 127.81 150.08 127.783 149.974C127.695 149.681 127.597 149.38 127.5 149.088C127.5 149.114 127.5 149.132 127.491 149.15C127.464 149.371 127.447 149.61 127.42 149.841C127.42 149.85 127.42 149.867 127.42 149.876C127.42 149.876 127.42 149.894 127.42 149.903C127.367 150.302 127.34 150.701 127.314 151.108C127.314 151.126 127.314 151.144 127.314 151.161V151.135C127.269 151.711 127.234 152.287 127.216 152.872V152.854C127.199 153.164 127.19 153.475 127.172 153.785C127.154 154.077 127.119 154.379 127.101 154.671C127.057 155.238 127.048 155.814 127.021 156.381C127.021 156.381 127.021 156.435 127.021 156.461V156.444C127.021 156.444 127.021 156.488 127.021 156.506C127.021 156.523 127.021 156.541 127.021 156.559C127.004 156.896 126.977 157.241 126.968 157.587C126.959 157.959 126.942 158.322 126.906 158.695C126.906 160.937 126.862 163.179 126.64 165.412C126.676 165.625 126.64 165.962 126.614 166.325C125.825 165.838 125.027 165.35 124.247 164.836C118.664 161.504 112.841 158.606 107.258 155.274C105.715 154.316 104.147 153.404 102.614 152.446C102.569 152.429 102.525 152.42 102.481 152.393C102.17 152.234 101.878 152.03 101.594 151.835C101.426 151.729 101.275 151.613 101.116 151.498C101.089 151.542 101.071 151.587 101.054 151.64C100.894 151.977 100.744 152.314 100.566 152.633C100.345 153.04 100.097 153.448 99.8484 153.847C99.556 154.316 99.3167 154.813 99.0508 155.291C99.0508 155.291 99.0419 155.309 99.0331 155.318V155.336C99.0331 155.336 99.0331 155.339 99.0331 155.345C99.0331 155.345 99.0331 155.353 99.0242 155.362C99.0242 155.362 99.0242 155.359 99.0242 155.353C98.4924 156.328 97.9607 157.312 97.4644 158.305C97.1453 158.934 96.8351 159.572 96.4983 160.201C96.3122 160.547 96.1084 160.893 95.9223 161.238C95.7627 161.531 95.5855 161.832 95.4171 162.133C95.2487 162.452 95.0892 162.78 94.9119 163.099C94.7524 163.383 94.584 163.658 94.4156 163.932C94.1054 164.464 93.8218 165.014 93.5028 165.537C93.5205 165.51 93.5294 165.492 93.5471 165.466C93.5205 165.519 93.4851 165.572 93.4496 165.643C93.4496 165.643 93.4496 165.652 93.4407 165.661C93.4407 165.661 93.4319 165.687 93.423 165.696C93.423 165.696 93.4141 165.705 93.4141 165.714C93.2635 165.971 93.1305 166.228 92.9887 166.485C92.8381 166.768 92.6697 167.043 92.5102 167.318C92.4747 167.38 92.4393 167.442 92.4038 167.504C94.0257 173.274 95.9046 178.999 97.615 184.733C102.959 202.485 108.773 220.068 114.879 237.563C114.968 237.776 115.066 237.989 115.154 238.21C115.314 238.582 115.473 238.955 115.624 239.327C115.775 238.946 115.925 238.556 116.067 238.175C119.258 229.817 122.634 221.442 126.578 213.386C127.881 214.006 129.184 214.644 130.469 215.309C136.611 218.5 142.664 221.894 148.859 225.031C148.877 225.031 148.894 225.049 148.903 225.049C148.956 225.129 149.036 225.2 149.125 225.253C149.151 225.271 149.187 225.28 149.213 225.297C149.213 225.297 149.222 225.297 149.231 225.297C149.231 225.297 149.24 225.297 149.249 225.306C149.355 225.359 149.47 225.421 149.577 225.475C149.683 225.528 149.789 225.572 149.896 225.625C150.17 225.767 150.445 225.909 150.729 226.051C150.959 226.175 151.199 226.299 151.429 226.423C151.411 226.37 151.402 226.317 151.385 226.263H151.34ZM99.0242 155.291C99.0242 155.291 99.0242 155.291 99.0242 155.283C99.0242 155.283 99.0331 155.265 99.0419 155.256C99.0331 155.274 99.0242 155.283 99.0242 155.291Z" fill="#A4BEFB"/>
<path d="M0.738294 95.9292C0.915547 95.7962 1.08394 95.6544 1.26119 95.5215C1.46503 95.362 1.67773 95.2024 1.88157 95.0429C1.93475 95.0075 1.9702 94.9631 2.01451 94.91C8.47538 89.6456 14.9274 84.3634 21.3971 79.1168C22.0352 78.5584 22.6733 77.9912 23.3114 77.424C21.8757 75.4653 20.5374 73.4269 19.084 71.5037C15.0337 66.6293 11.5596 61.3117 7.96134 56.1094C7.00418 54.8331 6.16223 53.4683 5.30255 52.1212C5.28483 52.1212 5.27596 52.1212 5.25824 52.1212C5.1962 51.9971 5.1253 51.8819 5.0544 51.7578C4.89487 51.4831 4.72648 51.2172 4.55809 50.9513C4.59354 50.9513 4.62013 50.9513 4.64672 50.9513C4.74421 50.9424 4.85056 50.9247 4.95691 50.9158C5.01895 50.907 5.08985 50.8981 5.15189 50.8981C5.32028 50.8981 5.48867 50.9158 5.65706 50.8981C5.67478 50.8981 5.68365 50.8981 5.70137 50.8981C5.70137 50.8981 5.7191 50.8981 5.72796 50.8981C5.77227 50.8893 5.81658 50.8804 5.86976 50.8804C5.89635 50.8804 5.91407 50.8715 5.94066 50.8715C5.98497 50.8715 6.02043 50.8627 6.06474 50.8538C6.08246 50.8538 6.09133 50.8538 6.10019 50.8538C11.9673 50.1271 17.728 49.1699 23.6128 48.5052C27.7782 48.2127 31.9614 47.9203 36.0825 47.3265C35.6925 44.6943 35.1608 42.0532 34.8772 39.4387C33.7782 32.8627 32.821 26.2068 31.7221 19.6219C31.7043 19.6219 31.6866 19.613 31.6778 19.6042C31.6512 19.4446 31.6246 19.294 31.598 19.1344C31.5448 18.842 31.5005 18.5406 31.4562 18.2482C31.6246 18.3102 31.793 18.3811 31.9614 18.4254C32.2095 18.4963 32.4665 18.5584 32.7147 18.6204C34.8063 19.2762 36.8801 19.9852 38.9806 20.6145C46.053 22.7415 53.1342 24.8774 60.1977 27.0222C61.3499 23.6898 62.9629 20.4816 64.3897 17.2556C65.8787 13.4269 67.2258 9.54506 69.0958 5.87593C69.7073 4.64402 70.2479 3.38553 70.7708 2.11817C70.8152 2.01182 70.8506 1.90547 70.9038 1.79912C70.9481 1.70163 70.9924 1.59527 71.0367 1.48892C71.1253 1.30281 71.2228 1.10783 71.3203 0.921714C71.4887 1.14328 71.6482 1.34712 71.8166 1.56869C71.9318 1.72821 72.0382 1.87888 72.1534 2.02954C72.1977 2.08272 72.2332 2.1359 72.2686 2.18907C74.3691 5.16692 76.5404 8.09159 78.7738 10.9808C81.2022 14.3043 83.4001 17.7962 85.8285 21.1108C90.2952 17.0251 94.4695 12.647 98.9806 8.60562C101.648 6.05318 104.174 3.26145 106.913 0.744461C106.913 0.744461 106.913 0.726736 106.904 0.717874C106.984 0.655835 107.063 0.593797 107.134 0.531758C107.338 0.363368 107.542 0.186115 107.746 0C107.817 0.141802 107.896 0.274742 107.967 0.416544C108.153 0.815363 108.331 1.22304 108.472 1.64845C108.472 1.63073 108.464 1.613 108.455 1.59527C108.464 1.63073 108.472 1.65731 108.481 1.6839C108.481 1.69276 108.481 1.70163 108.481 1.71049C108.481 1.71935 108.49 1.72821 108.49 1.74594C108.517 1.8257 108.552 1.90547 108.614 1.96751C111.353 9.4653 113.666 17.0872 116.413 24.5406C116.732 25.418 117.034 26.2866 117.317 27.1728C125.365 23.2733 133.474 19.5421 141.521 15.6514V15.6071C141.521 15.6071 141.566 15.5805 141.583 15.5717C141.752 15.483 141.911 15.4033 142.088 15.3146C142.266 15.2349 142.434 15.1462 142.611 15.0576C142.611 15.1462 142.62 15.2349 142.629 15.3146C142.629 15.5096 142.629 15.7135 142.629 15.9173C142.629 16.2364 142.62 16.5554 142.629 16.8745V16.9099C142.629 16.9099 142.629 16.9631 142.629 16.9897C142.629 17.0606 142.647 17.1226 142.673 17.1758C142.425 26.0916 141.636 34.972 141.025 43.8612C144.995 44.2511 148.904 44.9956 152.883 45.3324C157.687 45.6337 162.419 46.3427 167.17 46.9099C167.312 46.972 167.471 46.9897 167.639 46.9986C167.843 47.0163 168.047 47.0252 168.251 47.0429C168.34 47.0606 168.437 47.0695 168.526 47.0872C168.694 47.1049 168.862 47.1226 169.031 47.1404C169.111 47.1492 169.19 47.167 169.261 47.1758C169.235 47.2201 169.199 47.2556 169.173 47.2999C169.173 47.291 169.182 47.2822 169.19 47.2733C169.022 47.486 168.845 47.681 168.668 47.8848C168.597 47.9734 168.526 48.0709 168.455 48.1596C168.455 48.1596 168.464 48.1507 168.473 48.1418C168.455 48.1596 168.446 48.1684 168.437 48.1861C168.437 48.1861 168.437 48.195 168.428 48.195C168.428 48.195 168.428 48.195 168.428 48.2039C168.428 48.2039 168.419 48.2127 168.411 48.2216C168.411 48.2216 168.419 48.2127 168.419 48.2039C168.419 48.2039 168.393 48.2393 168.384 48.2571C168.393 48.2393 168.402 48.2305 168.411 48.2216C168.393 48.2393 168.384 48.2571 168.366 48.2748C168.348 48.3014 168.331 48.328 168.313 48.3545C162.827 55.8966 157.314 63.4299 151.554 70.7682C153.681 72.0798 156.012 73.0015 158.121 74.3398C164.165 77.7165 170.272 81.0399 176.476 84.1241L176.493 84.1153C176.546 84.1419 176.6 84.1685 176.653 84.195C176.759 84.2482 176.874 84.3014 176.99 84.3634C177.176 84.4609 177.371 84.5584 177.557 84.647C177.628 84.6825 177.699 84.7091 177.761 84.7445C177.761 84.7445 177.752 84.7445 177.743 84.7534C177.761 84.7534 177.769 84.7711 177.787 84.7711C177.716 84.8154 177.637 84.8597 177.566 84.9129C177.353 85.037 177.149 85.1699 176.945 85.3117C176.883 85.356 176.821 85.4004 176.759 85.4535C176.715 85.4801 176.679 85.5067 176.644 85.5244H176.635C168.535 91.0813 160.283 96.3014 151.873 101.389C152.83 102.133 153.876 102.753 154.753 103.595C160 108.027 165.273 112.44 170.546 116.854H170.564C170.733 117.005 170.91 117.164 171.078 117.315C171.264 117.483 171.45 117.651 171.637 117.829C171.45 117.864 171.273 117.909 171.096 117.962C170.901 118.024 170.715 118.095 170.529 118.157C170.449 118.183 170.369 118.201 170.298 118.219C170.281 118.201 170.272 118.192 170.254 118.183C161.657 120.833 152.963 123.102 144.357 125.69C144.162 125.743 143.958 125.787 143.755 125.849C146.369 131.309 149.099 136.706 151.501 142.263C152.174 143.752 152.768 145.294 153.406 146.818H153.424C153.539 147.164 153.654 147.51 153.805 147.838C153.831 147.9 153.858 147.962 153.885 148.015C153.867 148.015 153.849 148.006 153.831 148.006C153.645 147.979 153.45 147.953 153.264 147.935C153.149 147.917 153.034 147.909 152.919 147.909C152.715 147.882 152.502 147.864 152.298 147.855C151.997 147.811 151.696 147.776 151.394 147.731C144.18 146.712 137.081 145.126 129.964 143.663C129.069 143.486 128.174 143.318 127.279 143.149C127.43 146.756 127.651 150.363 127.412 153.979C127.447 155.743 127.43 157.507 127.412 159.262C127.394 161.557 127.376 163.852 127.456 166.148C127.456 166.396 127.456 166.644 127.474 166.892C127.474 167.016 127.492 167.132 127.492 167.256V167.566C127.492 167.566 127.447 167.539 127.43 167.522C127.279 167.415 127.119 167.309 126.969 167.211C126.933 167.185 126.898 167.158 126.862 167.14C126.738 167.061 126.605 166.972 126.481 166.901C126.419 166.866 126.366 166.839 126.304 166.813C126.233 166.768 126.162 166.724 126.083 166.688C118.585 162.346 110.83 158.446 103.607 153.678C102.809 153.226 102.047 152.73 101.294 152.242C96.9777 159.607 92.8299 167.087 88.6113 174.523C88.5582 174.585 88.5138 174.656 88.4695 174.727C88.4075 174.798 88.3632 174.886 88.3189 174.975C88.31 174.993 88.2923 175.01 88.2834 175.028C88.1771 175.197 88.0796 175.374 87.9732 175.542C87.8757 175.702 87.7782 175.861 87.6808 176.021C87.5567 175.764 87.4237 175.507 87.2908 175.268C87.2376 175.17 87.1933 175.064 87.1401 174.957C87.087 174.842 87.0426 174.718 86.9629 174.629C86.9363 174.594 86.9008 174.567 86.8743 174.541C84.2775 169.844 81.8314 165.146 79.279 160.44C78.1268 158.411 77.081 156.293 75.9732 154.219C69.0249 159.244 62.0234 164.216 55.084 169.267V169.285C54.8801 169.436 54.6674 169.587 54.4636 169.737C54.2952 169.844 54.1268 169.95 53.9584 170.065C53.9584 169.844 53.9496 169.631 53.9496 169.409V169.445C53.9496 169.152 53.9496 168.851 53.8964 168.567C53.8964 168.576 53.8964 168.585 53.9052 168.603C53.9052 168.585 53.9053 168.567 53.8964 168.55C53.8875 168.496 53.8787 168.443 53.8609 168.399C53.7369 163.994 53.8609 159.519 53.9762 155.149C53.8875 152.561 53.8166 149.965 53.6837 147.377C51.8491 147.988 50.0057 148.564 48.1445 148.99C43.1903 150.55 38.2361 152.127 33.3794 153.979C33.211 153.971 33.0515 154.033 32.8919 154.112C32.7147 154.192 32.5374 154.281 32.369 154.361C32.0057 154.485 31.6423 154.618 31.2789 154.733C31.2967 154.644 31.3144 154.556 31.3321 154.458C31.3321 154.485 31.3233 154.511 31.3144 154.538C31.341 154.405 31.3764 154.263 31.4119 154.13C31.4916 153.891 31.5448 153.643 31.5891 153.386C31.5891 153.386 31.598 153.386 31.6069 153.386C32.8565 146.464 34.115 139.533 35.8432 132.727C35.985 131.92 36.1445 131.114 36.3218 130.316C28.6113 130.555 20.9097 131.105 13.208 131.513C13.1992 131.53 13.1903 131.548 13.1814 131.566H13.1283C13.0662 131.566 13.0042 131.566 12.9421 131.566H12.9244C12.9244 131.566 12.889 131.566 12.8801 131.566C12.7117 131.566 12.5522 131.575 12.3927 131.584C12.2065 131.592 12.0204 131.601 11.8432 131.619C11.852 131.601 11.8609 131.584 11.8698 131.575C11.9229 131.477 11.9761 131.371 12.0293 131.273C12.0825 131.176 12.1268 131.087 12.18 130.99C12.1977 130.954 12.2154 130.928 12.2243 130.901C12.242 130.866 12.2597 130.839 12.2774 130.804C12.3572 130.662 12.4281 130.511 12.5079 130.369C16.0707 123.598 20.0766 117.04 23.7014 110.304C24.1888 109.365 24.6586 108.434 25.1283 107.486C21.9909 105.926 18.7915 104.49 15.6098 103.019C11.3912 100.972 7.11053 99.1109 2.75011 97.4092C2.564 97.2674 2.15632 97.0724 1.62456 96.8332C1.62456 96.8332 1.62456 96.8332 1.6157 96.8332C1.40299 96.7268 1.19029 96.6293 0.968723 96.5318C0.773745 96.4432 0.578767 96.3634 0.383789 96.2748C0.516729 96.1596 0.649668 96.0355 0.782608 95.9203L0.738294 95.9292Z" fill="#FDB01A"/>
<path d="M107.621 132.798C107.745 132.736 107.869 132.674 107.994 132.612C108.481 132.363 108.977 132.115 109.465 131.867C109.5 131.849 109.536 131.832 109.571 131.814C109.669 131.761 109.775 131.708 109.881 131.645C109.899 131.637 109.926 131.628 109.943 131.619C110.014 131.583 110.094 131.539 110.156 131.504C110.324 131.415 110.484 131.309 110.67 131.238C111.255 130.928 111.822 130.609 112.381 130.254C124.983 122.074 134.697 109.117 137.382 94.1743C143.382 74.3308 133.899 51.3057 116.511 40.3515C116.44 40.316 116.378 40.2717 116.316 40.2363C116.271 40.2097 116.236 40.192 116.191 40.1654C116.156 40.1476 116.121 40.1211 116.085 40.1033C116.076 40.1033 116.059 40.0856 116.05 40.0767C115.988 40.0502 115.934 40.0147 115.881 39.9793C115.713 39.8818 115.544 39.7931 115.385 39.6957C115.385 39.6957 115.376 39.6868 115.367 39.6868C115.367 39.6868 115.35 39.6868 115.341 39.6779C115.341 39.6779 115.341 39.6779 115.332 39.6779C115.332 39.6779 115.332 39.6779 115.323 39.6779C115.323 39.6779 115.323 39.6691 115.314 39.6691C115.314 39.6691 115.305 39.6602 115.296 39.6602C115.279 39.6513 115.261 39.6336 115.243 39.6247C115.243 39.6247 115.234 39.6247 115.225 39.6159C115.225 39.6159 115.225 39.6159 115.225 39.607C115.225 39.607 115.217 39.607 115.208 39.5982H115.225C115.048 39.5095 114.88 39.412 114.711 39.3146C114.383 39.1373 114.056 38.9512 113.728 38.7651C113.728 38.7651 113.719 38.7651 113.71 38.7651C113.71 38.7651 113.71 38.7651 113.701 38.7651L113.683 38.7562C113.329 38.5701 112.974 38.3751 112.629 38.189C112.629 38.189 112.62 38.189 112.611 38.189C112.611 38.189 112.602 38.189 112.593 38.189C112.576 38.189 112.558 38.1801 112.54 38.1713C112.451 38.1447 112.372 38.1004 112.292 38.0649C112.115 37.9763 111.946 37.8965 111.769 37.8168C111.601 37.737 111.415 37.6661 111.255 37.5598C110.466 37.1964 109.66 36.8685 108.835 36.5671C107.869 36.2038 106.895 35.8936 105.902 35.6011C105.237 35.3707 104.564 35.1491 103.881 34.9719C103.137 34.768 102.392 34.5819 101.648 34.4047C101.347 34.3249 101.036 34.2363 100.735 34.1565C100.673 34.1388 100.611 34.1211 100.549 34.1033H100.54C100.54 34.1033 100.487 34.0945 100.46 34.0856C100.372 34.0679 100.283 34.0502 100.194 34.0324C99.9197 33.9793 99.6449 33.9438 99.3613 33.8906C99.3613 33.8906 99.3525 33.8995 99.3436 33.8995C77.382 29.6366 55.6065 37.8877 44.3155 56.2333C44.3066 56.2333 44.2978 56.2333 44.2889 56.2422C44.2623 56.3042 44.2269 56.3663 44.2003 56.4283C44.1737 56.4726 44.156 56.5169 44.1294 56.5701C44.0319 56.7562 43.9255 56.9512 43.8192 57.1373C43.7749 57.2171 43.7306 57.2968 43.6597 57.3677C43.6419 57.4032 43.6153 57.4475 43.5976 57.483C43.4381 57.7754 43.2874 58.0679 43.1368 58.3604C43.1368 58.3692 43.119 58.3869 43.1102 58.4047C43.1102 58.4047 43.1102 58.4047 43.1102 58.4135C43.1102 58.4135 43.1102 58.4135 43.1102 58.4224C43.0215 58.5997 42.9329 58.7769 42.8443 58.9453C42.7468 59.1403 42.6493 59.3264 42.5607 59.5214C42.5607 59.5302 42.5518 59.5391 42.543 59.5568C42.4809 59.6809 42.4189 59.8138 42.3568 59.9379C42.2505 60.1683 42.1441 60.4165 42.0467 60.6558C42.0023 60.7621 41.958 60.8596 41.9137 60.966C41.9137 60.966 41.8871 61.0457 41.8694 61.0723C41.8605 61.0989 41.8428 61.1255 41.8339 61.1609C41.8339 61.1698 41.8251 61.1875 41.8162 61.1964C41.8162 61.1964 41.8162 61.2053 41.8162 61.2141C41.8162 61.223 41.8074 61.2318 41.7985 61.2496C41.639 61.675 41.4617 62.0827 41.2756 62.4992C41.2756 62.4992 41.2756 62.5081 41.2756 62.5169C41.2756 62.5169 41.2756 62.5169 41.2756 62.5258C41.1781 62.7385 41.0983 62.9778 41.0097 63.2171C41.0097 63.2348 41.0009 63.2525 40.992 63.2703C40.992 63.2703 40.992 63.2791 40.992 63.288C40.992 63.288 40.992 63.2969 40.9831 63.3057C40.9034 63.5096 40.8325 63.7223 40.7438 63.9261C40.6552 64.1388 40.5577 64.3515 40.4602 64.5642C40.4071 64.6794 40.3539 64.7946 40.3007 64.901C40.2032 65.1669 40.0969 65.4327 39.9905 65.6986C39.9728 65.7341 39.9639 65.7695 39.9462 65.7961C39.769 66.3456 39.5651 66.8951 39.3701 67.4446C39.2461 67.7991 39.122 68.1536 38.9979 68.5081C38.9979 68.5258 38.989 68.5435 38.9802 68.5612C38.9093 68.8803 38.8118 69.2082 38.7232 69.5273C38.732 69.5007 38.7409 69.483 38.7498 69.4564C38.7143 69.5982 38.67 69.7311 38.6345 69.8641C38.6345 69.8641 38.6345 69.8641 38.6434 69.8729C38.6168 69.9615 38.5902 70.059 38.5636 70.1477C38.537 70.2717 38.5016 70.3958 38.475 70.5199C38.3687 70.9364 38.2534 71.353 38.1471 71.7695C38.1471 71.7961 38.1382 71.8138 38.1294 71.8316C38.1205 71.8759 38.1116 71.9113 38.1028 71.9556C38.0762 72.062 38.0496 72.1772 38.023 72.2836C38.023 72.2836 38.023 72.3013 38.0142 72.3101C37.9876 72.4697 37.9698 72.6292 37.9078 72.771V72.7799C37.1456 76.1122 36.6316 79.4889 36.3834 82.8833C36.2948 84.0709 36.2505 85.2585 36.2505 86.4372C36.2505 100.387 42.4632 113.858 52.8945 123.155C62.2889 132.266 75.4411 137.087 88.4691 137.025C92.9802 136.857 97.4913 136.245 101.843 135.013C103.855 134.428 105.787 133.64 107.719 132.833L107.621 132.798ZM42.4455 107.849C35.0009 93.545 36.4455 76.2363 42.6404 61.7104C42.8443 61.2319 43.057 60.7621 43.2697 60.2924C53.9935 39.5893 76.2564 30.9128 98.4042 34.8655C98.4839 34.8478 98.5637 34.8478 98.6434 34.8655C98.7587 34.8832 98.865 34.9098 98.9802 34.9276C98.9536 34.9276 98.9359 34.9187 98.9093 34.9098C99.1043 34.9453 99.2993 34.9896 99.4943 35.0339C99.5386 35.0428 99.5829 35.0516 99.6272 35.0605C99.6449 35.0605 99.6626 35.0605 99.6804 35.0605C99.6981 35.0605 99.7247 35.0605 99.7424 35.0605C99.9551 35.0782 100.159 35.1403 100.354 35.1934C100.354 35.1934 100.372 35.1934 100.381 35.2023C100.434 35.2112 100.487 35.2289 100.54 35.2377C100.593 35.2555 100.655 35.2643 100.717 35.2821C100.824 35.3086 100.93 35.3441 101.027 35.3707C101.045 35.3707 101.072 35.3795 101.09 35.3884C101.249 35.4239 101.409 35.4593 101.533 35.5125C101.604 35.5302 101.683 35.5568 101.754 35.5745C102.18 35.6809 102.605 35.7961 103.039 35.9113C105.087 36.5406 107.24 37.223 109.358 38.0029C112.7 39.35 115.881 41.0605 118.735 43.3205C133.119 54.0354 141.131 73.6839 136.903 91.2762C136.886 91.3648 136.877 91.4623 136.868 91.5598C136.824 91.9054 136.735 92.2599 136.655 92.6056C136.576 92.9246 136.505 93.2526 136.425 93.5716C136.283 94.0945 136.15 94.6174 136.017 95.1492C136.008 95.2023 135.991 95.2555 135.973 95.3087C135.911 95.5568 135.84 95.8139 135.778 96.0532C135.707 96.3545 135.618 96.6558 135.539 96.9483C135.459 97.2407 135.379 97.5243 135.299 97.8257C135.308 97.7991 135.317 97.7725 135.326 97.7548C135.175 98.3043 135.016 98.8537 134.847 99.4032C134.847 99.3766 134.865 99.3589 134.865 99.3323C134.776 99.6514 134.661 99.9616 134.564 100.281C134.564 100.281 134.555 100.298 134.555 100.307C134.555 100.307 134.555 100.334 134.546 100.334C134.546 100.334 134.546 100.334 134.546 100.343C134.502 100.467 134.466 100.591 134.431 100.724C134.422 100.759 134.404 100.804 134.395 100.839C134.262 101.264 134.121 101.681 133.979 102.097C133.81 102.585 133.624 103.081 133.42 103.569C133.217 104.047 132.995 104.526 132.8 105.013C132.8 104.996 132.809 104.978 132.818 104.96C132.818 104.96 132.818 104.978 132.809 104.978V104.96C132.437 105.882 132.02 106.777 131.559 107.663C131.559 107.663 131.559 107.654 131.568 107.645C131.568 107.645 131.568 107.654 131.559 107.663C131.568 107.645 131.577 107.628 131.586 107.601C131.426 107.92 131.293 108.248 131.125 108.558C130.939 108.913 130.717 109.241 130.513 109.586C130.407 109.773 130.301 109.95 130.194 110.136C130.168 110.18 130.141 110.233 130.106 110.287C129.982 110.473 129.867 110.668 129.751 110.863C129.716 110.925 129.672 110.996 129.636 111.058C129.485 111.306 129.352 111.563 129.184 111.784C125.028 118.422 119.409 124.183 112.85 128.402C112.602 128.57 112.336 128.73 112.079 128.898C112.079 128.898 112.07 128.898 112.061 128.907C112.061 128.907 112.053 128.916 112.044 128.916C112.044 128.916 112.044 128.916 112.035 128.925C112.035 128.925 112.035 128.925 112.044 128.916C111.769 129.093 111.494 129.279 111.22 129.448C111.087 129.527 110.954 129.607 110.83 129.687C110.785 129.713 110.741 129.749 110.688 129.775C110.626 129.829 110.564 129.864 110.502 129.908C110.307 130.032 110.103 130.157 109.89 130.272C109.899 130.272 109.908 130.263 109.917 130.263C109.252 130.644 108.561 130.99 107.878 131.335C107.621 131.468 107.373 131.601 107.116 131.734C107.09 131.743 107.063 131.761 107.036 131.77C106.815 131.876 106.593 131.982 106.363 132.071C105.742 132.319 105.122 132.567 104.493 132.798C104.448 132.815 104.413 132.824 104.369 132.824C80.6612 141.43 54.286 130.422 42.4366 107.814L42.4455 107.849Z" fill="#2E296D"/>
<path d="M115.323 39.6518C115.323 39.6518 115.296 39.6338 115.287 39.6338C115.296 39.6338 115.305 39.6518 115.314 39.6518H115.323Z" fill="#2E296D"/>
<path d="M77.2308 154.68C77.1688 154.52 77.089 154.343 76.9827 154.174C76.9827 154.166 76.9827 154.157 76.9915 154.148C76.9206 154.024 76.8586 153.9 76.7877 153.776C76.6902 153.589 76.5927 153.394 76.4952 153.208C76.4421 153.244 76.3889 153.288 76.3357 153.324C76.1673 153.448 75.9989 153.563 75.8305 153.687C75.7242 153.758 75.6178 153.838 75.5115 153.9C75.4583 153.935 75.414 153.971 75.3608 154.006C75.3254 154.033 75.2988 154.059 75.2633 154.077C75.157 154.157 75.0595 154.236 74.9354 154.29C67.7212 159.173 60.9236 164.659 53.9487 169.87C53.9487 169.897 53.931 169.914 53.931 169.932C53.7448 170.544 53.5587 171.155 53.346 171.758C53.3372 171.802 53.3194 171.846 53.3017 171.891V171.9V171.917V171.935V171.944C53.3017 171.953 53.3017 171.962 53.3017 171.971C53.284 172.015 53.2751 172.059 53.2574 172.104C53.2574 172.104 53.2397 172.157 53.2308 172.183C53.2219 172.201 53.2131 172.219 53.2042 172.236C53.151 172.414 53.1067 172.582 53.0536 172.759C53.0358 172.83 53.027 172.901 53.0004 172.963C52.9029 173.335 52.8054 173.69 52.7168 173.974C52.7079 174.044 52.6902 174.106 52.6813 174.169C52.6547 174.301 52.6193 174.426 52.575 174.567C52.575 174.585 52.5661 174.594 52.5572 174.612C52.5572 174.612 52.5572 174.621 52.5572 174.629V174.647C52.5572 174.647 52.5484 174.683 52.5395 174.691C52.5395 174.691 52.5395 174.718 52.5395 174.727C52.5395 174.727 52.5395 174.727 52.5395 174.736C52.5395 174.745 52.5395 174.745 52.5395 174.753C52.5307 174.78 52.5218 174.798 52.5129 174.824C52.4952 174.895 52.4775 174.957 52.4509 175.028C52.2914 175.569 52.1141 176.109 51.928 176.641C53.7094 175.374 55.4996 174.08 57.2899 172.786C55.2515 179.761 53.4346 186.7 51.4849 193.994C48.1348 205.081 44.5454 216.115 41.5144 227.309C41.6651 227.211 41.8157 227.123 41.9753 227.034C42.0639 226.981 42.1614 226.937 42.2589 226.883C42.2855 226.866 42.3032 226.857 42.3298 226.839C42.3829 226.804 42.4361 226.777 42.4982 226.742C42.5779 226.697 42.6577 226.653 42.7374 226.6C42.7906 226.564 42.8438 226.538 42.897 226.511C43.7832 223.312 44.829 220.157 45.671 216.94C48.6045 207.554 51.5292 198.177 54.188 188.703C55.4996 182.951 57.1038 177.288 58.8409 171.66C59.1599 171.43 59.4701 171.2 59.7892 170.969C64.2471 167.681 68.8822 164.632 73.4642 161.451C73.7478 161.176 74.2796 160.928 74.6872 160.618C75.3165 161.743 75.866 162.922 76.5307 164.03C78.3387 167.486 80.3505 170.827 82.3446 174.169C80.5986 183.483 78.6932 192.78 76.7257 202.059C74.4568 213.395 72.5514 224.818 70.3711 236.18C70.3711 236.18 70.38 236.189 70.3889 236.198C70.5218 236.358 70.6547 236.526 70.7877 236.686C70.7966 236.694 70.8054 236.712 70.8143 236.721C70.8409 236.756 70.8675 236.783 70.894 236.818C71.027 236.978 71.1599 237.138 71.2929 237.297C71.3372 237.058 71.3815 236.81 71.4347 236.561C72.8881 229.64 74.1466 222.691 75.3608 215.725C77.6917 202.334 80.7227 189.084 83.284 175.737C84.4096 177.634 85.5351 179.53 86.5986 181.462C86.6252 181.338 86.6607 181.205 86.6873 181.081C86.7404 180.869 86.7936 180.647 86.8468 180.434C86.8645 180.363 86.8734 180.293 86.8911 180.222C86.9088 180.106 86.9354 180 86.962 179.885V179.876C86.962 179.858 86.9709 179.832 86.9797 179.814C86.9797 179.814 86.9797 179.805 86.9797 179.796C86.9797 179.787 86.9797 179.796 86.9797 179.787C87.0506 179.504 87.1038 179.22 87.1658 178.928C87.2367 178.538 87.352 178.157 87.4406 177.767C87.4672 177.643 87.4938 177.519 87.5203 177.403C87.5203 177.403 87.5203 177.395 87.5203 177.386C87.5203 177.377 87.5292 177.359 87.5381 177.35C87.5381 177.35 87.5647 177.27 87.5735 177.217C87.5824 177.182 87.5912 177.155 87.6001 177.12V177.102C87.609 177.049 87.6178 177.005 87.6356 176.951C87.6533 176.898 87.6621 176.854 87.671 176.801C87.6799 176.748 87.6976 176.694 87.7065 176.641C87.7153 176.588 87.7331 176.535 87.7419 176.482C87.7419 176.455 87.7596 176.428 87.7596 176.411C87.7862 176.313 87.8128 176.207 87.8394 176.101C87.8394 176.101 87.8394 176.092 87.8394 176.083C87.8394 176.056 87.8571 176.03 87.8571 176.003C87.8749 175.95 87.8837 175.906 87.9014 175.852C87.9014 175.844 87.9014 175.835 87.9103 175.826C87.9458 175.711 87.9723 175.595 88.0078 175.489C87.2988 174.133 86.5632 172.777 85.7655 171.483C82.7611 165.988 79.8985 160.387 77.2663 154.697L77.2308 154.68Z" fill="#2E296D"/>
<path d="M132.889 181.746C131.949 178.414 131.01 175.09 130.017 171.776C130.469 168.222 130.549 164.597 131.01 161.034C130.948 160.83 130.886 160.618 130.824 160.414C130.824 160.44 130.842 160.467 130.842 160.485C130.709 160.05 130.585 159.607 130.46 159.164C130.425 159.04 130.39 158.907 130.354 158.783C130.354 158.783 130.354 158.765 130.354 158.756C130.345 158.712 130.328 158.677 130.319 158.632C130.15 158.039 129.982 157.454 129.84 156.86C129.645 156.089 129.415 155.318 129.211 154.547C129.211 154.573 129.229 154.6 129.229 154.618C129.069 154.059 128.901 153.492 128.723 152.925C128.723 152.925 128.723 152.925 128.723 152.907C128.715 152.889 128.706 152.872 128.706 152.854V152.872C128.599 152.535 128.475 152.207 128.369 151.87C128.369 151.879 128.369 151.888 128.369 151.897C128.174 151.321 127.997 150.745 127.819 150.151C127.731 149.849 127.633 149.539 127.536 149.238C127.438 150.186 127.359 151.135 127.297 152.083C127.279 152.118 127.279 152.163 127.279 152.207C127.279 152.216 127.279 152.225 127.288 152.233C126.977 157.046 127.093 161.876 126.969 166.706C126.782 166.6 126.614 166.502 126.49 166.387C120.065 162.718 113.462 159.279 107.294 155.185C107.258 155.158 107.223 155.14 107.187 155.123C106.921 154.981 106.655 154.821 106.39 154.68H106.407C106.124 154.529 105.849 154.369 105.574 154.201C105.326 154.059 105.069 153.917 104.812 153.776C104.564 153.643 104.333 153.51 104.094 153.359C103.722 153.137 103.35 152.934 102.977 152.721C102.632 152.526 102.313 152.304 101.985 152.083C101.843 152.003 101.701 151.914 101.559 151.826C101.471 151.968 101.382 152.101 101.294 152.233C101.081 152.553 100.859 152.854 100.647 153.173C100.398 153.536 100.159 153.909 99.9198 154.272C99.9376 154.254 99.9464 154.228 99.9641 154.21C99.8578 154.378 99.7426 154.547 99.6362 154.724C99.6362 154.724 99.6362 154.724 99.6362 154.715C99.6362 154.715 99.6362 154.706 99.6451 154.697C99.1399 155.548 98.617 156.381 98.1119 157.232C98.1296 157.205 98.1384 157.188 98.1562 157.17C97.908 157.578 97.6953 158.012 97.456 158.428C97.2345 158.81 96.9952 159.191 96.7913 159.572V159.581C96.7913 159.581 96.7913 159.589 96.7825 159.598C96.7825 159.598 96.7825 159.598 96.7825 159.607C96.7825 159.616 96.7825 159.616 96.7736 159.625V159.643C96.7736 159.643 96.7736 159.646 96.7736 159.652C96.7736 159.652 96.7736 159.652 96.7736 159.66C96.4989 160.174 96.2064 160.68 95.9051 161.185C95.8873 161.22 95.8696 161.247 95.8519 161.282C95.8519 161.291 95.843 161.3 95.8342 161.309C95.8342 161.309 95.8342 161.309 95.843 161.3C95.843 161.309 95.8342 161.318 95.8253 161.318C95.7278 161.513 95.6303 161.717 95.5417 161.92C95.3999 162.231 95.2404 162.523 95.0808 162.807C95.0808 162.807 95.0631 162.833 95.0542 162.851V162.86C94.815 163.303 94.5668 163.746 94.3275 164.189C94.3275 164.189 94.3098 164.216 94.3009 164.233C94.3009 164.233 94.3009 164.242 94.3009 164.251C94.3009 164.251 94.2921 164.26 94.2832 164.269C94.2832 164.269 94.2832 164.272 94.2832 164.278C94.2832 164.278 94.2832 164.278 94.2832 164.287C94.035 164.748 93.8046 165.217 93.5653 165.678C93.4058 165.997 93.2374 166.307 93.069 166.626C92.8829 166.981 92.7056 167.318 92.5195 167.672C92.5816 167.867 92.6347 168.071 92.6968 168.275C92.6879 168.248 92.6791 168.222 92.6702 168.204C92.8209 168.727 92.9627 169.241 93.1045 169.773C93.0956 169.746 93.0867 169.719 93.0779 169.693C93.0956 169.737 93.1045 169.782 93.1133 169.826C93.1045 169.799 93.0956 169.773 93.0867 169.746C93.2108 170.189 93.3349 170.632 93.459 171.075C93.459 171.049 93.4412 171.022 93.4412 170.996C93.5742 171.439 93.6894 171.891 93.8046 172.343V172.361C93.8046 172.387 93.8135 172.396 93.8223 172.414C93.8223 172.423 93.8223 172.431 93.8223 172.44C93.8223 172.44 93.8223 172.44 93.8223 172.449V172.458V172.476V172.493C93.8223 172.493 93.8312 172.52 93.8401 172.529C93.8401 172.529 93.8578 172.573 93.8578 172.591C93.9464 172.892 94.035 173.211 94.1237 173.513C94.62 172.618 95.1251 171.731 95.6215 170.836C96.0912 170.039 96.5609 169.25 97.0395 168.461C98.1562 172.361 99.3083 176.251 100.558 180.124C105.973 198.142 111.636 216.089 117.689 233.885C117.76 233.672 117.84 233.46 117.92 233.256C118.062 232.892 118.195 232.538 118.336 232.183C112.824 216 107.79 199.666 102.694 183.332C101.116 177.909 99.4324 172.52 97.8548 167.096C99.6805 164.083 101.533 161.105 103.341 158.021C111.743 162.869 120.401 167.194 128.83 171.988C128.847 171.997 128.874 172.015 128.892 172.024C130.655 177.962 132.242 183.979 134.254 189.82C137.932 200.818 141.202 211.959 144.818 222.957C144.907 223.01 145.004 223.073 145.102 223.126C145.243 223.188 145.376 223.259 145.509 223.321C145.793 223.462 146.059 223.604 146.333 223.746C141.76 209.796 137.489 195.722 132.907 181.764L132.889 181.746Z" fill="#2E296D"/>
<path d="M57.5745 76.2982C57.6986 76.2805 57.8227 76.2627 57.9467 76.245C58.0354 76.2362 58.124 76.2184 58.2126 76.2096C58.2303 76.2184 58.2392 76.2362 58.2569 76.245C64.0531 75.3765 69.9202 74.7738 75.6986 73.8167C76.5051 73.6217 77.3205 73.4533 78.1358 73.3026C79.9527 65.6719 82.2215 58.183 84.251 50.6054C84.3219 50.4104 84.3663 50.2155 84.4194 50.0293C84.4549 49.9407 84.4815 49.8521 84.5081 49.7635C84.4992 49.7901 84.4903 49.8166 84.4815 49.8344C84.5346 49.6926 84.579 49.5508 84.6233 49.409C84.6764 49.2672 84.7208 49.1342 84.7739 49.0013C84.8005 48.9304 84.8271 48.8595 84.8537 48.7886C84.9512 49.0279 85.0575 49.2672 85.1639 49.4887C85.3057 49.7635 85.4475 50.0205 85.5982 50.2864C86.8301 53.0604 88.1329 55.7723 89.4445 58.5198C91.2171 61.9939 92.6617 65.6187 94.3633 69.1283C100.195 68.0294 106.097 67.2229 112.009 66.7177C112.097 66.7443 112.195 66.7354 112.275 66.7177C112.372 66.7177 112.461 66.7 112.567 66.6911C112.868 66.6557 113.17 66.6291 113.462 66.6113C113.719 66.5936 113.976 66.5848 114.224 66.5582C114.428 66.5316 114.641 66.505 114.845 66.4695C115.137 66.4252 115.439 66.3809 115.731 66.3455C115.545 66.5493 115.359 66.7531 115.19 66.9658C115.049 67.1342 114.907 67.3115 114.756 67.4799C114.65 67.5862 114.552 67.6926 114.446 67.8078C114.393 67.861 114.357 67.9319 114.331 67.9939C110.351 72.3277 106.665 76.9009 102.801 81.3676C102.428 81.8108 102.056 82.245 101.684 82.6793C101.79 83.087 101.897 83.4858 102.012 83.8935C103.988 90.6734 106.23 97.347 108.038 104.18C108.083 104.322 108.118 104.455 108.171 104.588V104.605C108.428 105.944 108.765 107.264 109.12 108.576C108.73 108.372 108.34 108.159 107.95 107.938C107.427 107.645 106.904 107.335 106.381 107.043C105.92 106.777 105.45 106.529 104.998 106.245C104.502 105.935 104.006 105.634 103.51 105.323C103.527 105.341 103.554 105.35 103.572 105.368C103.27 105.173 102.969 104.969 102.65 104.792C102.278 104.588 101.905 104.357 101.533 104.145C101.258 103.985 101.001 103.79 100.736 103.622C98.2983 101.84 95.9143 100.015 93.477 98.2244C91.9527 97.2229 90.5524 96.0619 89.1787 94.8654C83.9231 99.1106 79.3943 104.269 74.1919 108.576C74.0945 108.603 73.997 108.656 73.9261 108.735L73.9172 108.753C73.6779 108.957 73.4386 109.152 73.2082 109.356C73.1196 109.436 73.0309 109.515 72.9423 109.586C72.9069 109.622 72.8625 109.657 72.8271 109.684C72.8005 109.701 72.7828 109.719 72.7651 109.746C72.7651 109.746 72.7562 109.737 72.7473 109.737C72.6587 109.808 72.5701 109.879 72.4726 109.941C72.5169 109.701 72.5612 109.462 72.6055 109.214C72.6498 108.93 72.6942 108.647 72.7296 108.354C72.7473 108.257 72.7562 108.151 72.7739 108.044C73.9261 101.388 74.9807 94.6882 75.6366 87.9614C73.8995 86.96 72.1624 85.9053 70.5671 84.762C69.4682 83.8137 62.7148 80.5788 58.6823 77.9998C58.6557 77.9732 58.6292 77.9467 58.5937 77.9289C58.5228 77.8846 58.4608 77.8492 58.3987 77.796C58.4076 77.8048 58.4165 77.8137 58.4342 77.8226C58.3987 77.796 58.3633 77.7783 58.3278 77.7517C58.3544 77.7694 58.3721 77.7783 58.3899 77.7871C58.1151 77.6099 57.8404 77.4238 57.5568 77.2465C57.5568 77.2465 57.5479 77.2465 57.5391 77.2465C57.5302 77.2376 57.5125 77.2288 57.5036 77.2199C57.5213 77.2288 57.5302 77.2376 57.5479 77.2465C57.2643 77.0338 56.9807 76.8211 56.6971 76.5907C56.6351 76.5375 56.5642 76.4843 56.511 76.4311C56.8744 76.3957 57.2377 76.3602 57.6011 76.3071L57.5745 76.2982Z" fill="#EE5857"/>
</svg>
