<svg width="151" height="189" viewBox="0 0 151 189" fill="none" xmlns="http://www.w3.org/2000/svg">
<path d="M119.267 49.2243C108.414 41.5433 95.5962 35.4564 82.2825 34.2588C75.5513 33.1934 68.721 33.2842 61.9898 34.5726C53.9454 35.8693 46.0992 38.2397 38.9633 42.2371C14.9953 54.4359 1.35124 76.3639 0.0545566 103.148C-0.209736 109.673 0.492291 116.256 2.02849 122.64C2.10282 123.177 2.17715 123.714 2.24323 124.25C4.95222 136.846 11.1631 148.507 20.1077 157.782C25.8478 163.126 32.2156 168.007 39.0542 171.897C45.3146 175.135 52.1367 177.241 58.8926 179.157C61.519 179.785 64.1867 180.223 66.8875 180.528C84.6116 184.559 103.897 180.586 118.92 170.411C126.527 164.794 132.952 157.477 137.949 149.465C142.343 143.205 145.374 136.21 147.389 128.851C148.323 124.44 149.124 119.931 149.545 115.405C149.553 115.347 149.561 115.289 149.561 115.24C149.586 115.041 149.603 114.843 149.619 114.645C152.419 89.3225 139.865 63.8595 119.275 49.2161L119.267 49.2243Z" fill="#FFFFFA"/>
<path d="M95.6043 101.852C94.2333 95.2116 88.7905 89.7523 82.8109 87.0928C70.3726 82.699 56.1586 91.7097 55.6466 105.04C55.3245 114.018 60.5029 123.557 69.5632 125.927C73.7341 127.067 78.5326 127.645 82.5053 125.613C90.178 121.806 95.8273 113.439 95.8273 104.8C95.8273 103.818 95.7529 102.835 95.6043 101.852ZM27.5738 102.158C28.1932 87.9766 36.7497 75.2658 48.139 67.2379C54.5646 62.5467 62.3117 59.5817 70.2487 58.5162C70.4304 58.5328 70.6204 58.4749 70.7938 58.4502C70.9095 58.4254 71.0251 58.4006 71.1407 58.3841C71.2233 58.3676 71.3059 58.3593 71.3885 58.3428C71.438 58.3345 71.4876 58.3263 71.5372 58.318C72.0575 58.2519 72.5778 58.1941 73.0981 58.1115C73.3872 58.062 73.6845 58.0372 73.9736 58.0042C74.304 57.9629 74.6261 57.9298 74.9564 57.9051C75.3198 57.872 75.675 57.8307 76.0384 57.8059C93.3661 57.4838 110.669 69.3853 119.291 84.8381C119.886 85.2511 120.241 86.7625 120.621 87.192C122.182 90.0496 123.528 93.0312 124.379 96.1862C130.375 115.19 122.446 137.341 106.052 148.144C105.895 148.318 105.656 148.45 105.474 148.549C104.615 149.135 103.781 149.804 102.905 150.383C90.0954 158.691 73.4202 158.757 59.5944 152.993C54.6307 151.266 50.2947 148.376 46.3633 144.973C42.2998 142.049 38.8392 138.242 35.709 134.36C29.8037 125.68 27.5325 114.959 27.5325 104.544C27.5325 103.743 27.549 102.95 27.5738 102.158Z" fill="#EE5857"/>
<path d="M99.025 0C98.2156 0.925023 97.4228 1.85831 96.5886 2.76681C96.316 3.06414 96.027 3.36147 95.7462 3.6588C95.4323 3.99742 95.1019 4.31953 94.7963 4.65815C94.4577 5.02981 94.1191 5.39322 93.7805 5.77314C93.5079 6.07047 93.2354 6.37605 92.9628 6.67338H92.9711C92.5829 7.10286 92.1699 7.52407 91.7818 7.96181C91.3605 8.43258 90.9311 8.89509 90.5099 9.3576C90.5016 9.37412 90.4851 9.38238 90.4768 9.3989C90.0473 9.87793 89.6261 10.357 89.1967 10.8277C89.1636 10.8608 89.1306 10.8938 89.0975 10.9351C89.0562 10.9764 89.0232 11.0177 88.9819 11.059C88.602 11.4719 88.2303 11.8766 87.8504 12.2896C87.5944 12.5704 87.3301 12.8595 87.0493 13.1403C86.9997 13.1981 86.9419 13.2477 86.8924 13.3055C86.7272 13.4707 86.5703 13.6358 86.4051 13.801C86.4051 13.801 86.4133 13.7928 86.4216 13.7845C86.4216 13.7845 86.4051 13.801 86.3968 13.8093C86.3968 13.8093 86.3968 13.8175 86.3803 13.8258C86.2894 13.9166 86.2068 14.0158 86.116 14.1149C86.0582 14.1727 86.0004 14.2388 85.9426 14.2966C85.7278 14.5278 85.5131 14.7591 85.2983 14.9903C84.9102 15.4033 84.5137 15.8162 84.1255 16.2375C83.7208 16.6669 83.2996 17.0882 82.8949 17.5176C82.4655 17.9719 82.0442 18.4261 81.6148 18.8886C81.6313 18.8721 81.6478 18.8556 81.6643 18.8391C80.5989 19.9954 79.5665 21.1929 78.5176 22.374L78.5341 22.3575C78.1294 22.8035 77.7165 23.233 77.3283 23.6872C77.1714 23.8689 77.0227 24.0589 76.8658 24.2488C76.7667 24.3645 76.6758 24.4966 76.5519 24.5875C76.3124 24.7609 75.9655 24.7361 75.7756 24.4883C75.759 24.4636 75.7425 24.447 75.7343 24.4305C75.6434 24.4223 75.5526 24.3892 75.47 24.3314C75.4204 24.2984 75.3709 24.2571 75.3213 24.2158C75.3378 24.2323 75.3626 24.2488 75.3791 24.2571C74.9579 23.9019 74.5532 23.5385 74.1402 23.1669C74.1568 23.1834 74.1733 23.1999 74.1898 23.2164C73.5621 22.6548 72.9262 22.1097 72.2985 21.5563C71.4891 20.8295 70.6797 20.1027 69.8455 19.4007C69.8703 19.4172 69.8868 19.4338 69.9033 19.442C69.5977 19.186 69.2921 18.9299 68.9865 18.6574C68.6562 18.3683 68.3423 18.0545 68.012 17.7654C68.0285 17.7819 68.045 17.7984 68.0615 17.815C67.9624 17.7324 67.8633 17.6415 67.7642 17.5589C67.7807 17.5754 67.8055 17.592 67.822 17.6002C67.7807 17.5672 67.7394 17.5341 67.6981 17.5011C67.7064 17.5176 67.7229 17.5259 67.7312 17.5341C67.6073 17.4268 67.4834 17.3194 67.3678 17.212C67.3678 17.212 67.3595 17.212 67.3595 17.2038C67.3595 17.2038 67.3595 17.1955 67.3512 17.1955C66.5997 16.5265 65.8563 15.8658 65.1048 15.2051C64.3945 14.5939 63.7172 13.9579 62.9987 13.3633C63.0152 13.3798 63.04 13.3963 63.0565 13.4046C62.6931 13.1073 62.3132 12.8182 61.9498 12.5209C61.5616 12.1987 61.1899 11.8684 60.8017 11.5545C59.918 10.836 59.0508 10.0844 58.2332 9.29153C58.2497 9.30805 58.2662 9.32457 58.2827 9.34108C57.878 8.96116 57.4568 8.59776 57.0356 8.2261C56.6639 7.90399 56.317 7.56537 55.9536 7.235C55.6563 6.97071 55.3425 6.71468 55.0369 6.45039C55.0699 6.68164 55.1029 6.9129 55.1195 7.13589C55.1442 7.40845 55.1773 7.66448 55.2186 7.93703C55.2516 8.10221 55.2599 8.27565 55.2681 8.4491C55.4416 9.45671 55.6398 10.4561 55.805 11.4637C57.0356 18.4427 57.9936 25.4794 59.3068 32.4336C59.9263 36.0016 60.7026 39.5448 61.5451 43.0714C61.5781 43.1292 61.6029 43.1953 61.6111 43.2614C61.6359 43.3935 61.6607 43.5339 61.6855 43.6661C61.735 43.8808 61.7846 44.0955 61.8424 44.302C61.8176 44.2772 61.8011 44.2607 61.7846 44.2442C61.8754 44.6654 61.958 45.0866 62.0406 45.5161C62.0571 45.5904 62.0736 45.673 62.0819 45.7474C62.2306 45.8712 62.371 45.9869 62.5114 46.1108C62.8996 46.4494 63.2712 46.8045 63.6346 47.1597C64.1384 47.6552 64.6505 48.1343 65.1543 48.6298C66.1124 49.5796 67.1613 50.4303 68.1854 51.314C68.4662 51.5618 68.7388 51.8013 69.0113 52.0491C69.0113 52.0491 69.0031 52.0408 68.9948 52.0326C68.9948 52.0326 69.0113 52.0408 69.0113 52.0491C69.0113 52.0491 69.0196 52.0491 69.0278 52.0573C69.5234 52.5033 70.0189 52.9576 70.5062 53.3953C71.0679 53.8991 71.6295 54.4029 72.2076 54.8902C72.7279 55.328 73.2565 55.7657 73.7438 56.2365C74.3715 56.8476 75.057 57.4093 75.693 58.0122C76.362 58.6399 77.0392 59.2676 77.6999 59.8953C78.0138 60.1926 78.3276 60.4899 78.6497 60.7955C78.8645 60.4899 79.0792 60.1761 79.294 59.854C79.5335 59.5071 79.7978 59.1767 80.0455 58.8464C80.3346 58.4499 80.6072 58.0535 80.8962 57.657C81.1275 57.3514 81.3587 57.0459 81.59 56.7485C81.7304 56.5503 81.8625 56.3438 81.9947 56.1456C84.9184 51.9995 87.8009 47.8039 90.9063 43.7817C91.0302 43.154 91.1623 42.5263 91.2862 41.8903C91.2945 41.8078 91.311 41.7252 91.3193 41.6343C91.3275 41.5682 91.344 41.5104 91.3523 41.4444C91.344 41.4609 91.3358 41.4691 91.3275 41.4774C91.3605 41.3535 91.3853 41.2296 91.4184 41.114C91.4349 41.0562 91.4431 41.0066 91.4514 40.9571C91.4679 40.9075 91.4762 40.8662 91.4844 40.8167C91.5009 40.7506 91.5092 40.6845 91.5175 40.6267C91.534 40.5606 91.5505 40.5028 91.5753 40.445C93.8383 31.0709 95.3249 21.5151 97.4641 12.1162C97.4971 11.8601 97.5301 11.6041 97.5632 11.3481V11.3646C97.687 10.423 97.8522 9.48149 97.9761 8.53995C97.9926 8.43258 98.0092 8.33347 98.0174 8.2261C98.0257 8.16003 98.0339 8.09395 98.0422 8.01962C98.0917 7.681 98.1413 7.34237 98.1826 7.01201C98.1991 6.89638 98.2156 6.78901 98.2322 6.67338C98.2322 6.66512 98.2322 6.64861 98.2322 6.64035C98.2734 6.36779 98.3065 6.08698 98.3478 5.81443C98.356 5.74836 98.3643 5.67403 98.3726 5.60795C98.3726 5.5997 98.3726 5.59144 98.3726 5.58318V5.60795C98.5295 4.36908 98.6864 3.12195 98.8598 1.88308C98.9424 1.27191 99.0085 0.652472 99.1076 0.0412957C99.1076 0.0330365 99.1076 0.0165183 99.1076 0.00825914C99.0746 0.00825914 99.0415 0.00825914 99.0003 0.00825914L99.025 0Z" fill="#A4BEFB"/>
<path d="M57.2019 20.9531C57.268 21.2504 57.3341 21.5478 57.3919 21.8451C57.4249 21.9855 57.4497 22.1176 57.4827 22.2498C63.6441 27.9073 69.9127 33.4739 76.2888 38.8919C76.3549 38.958 76.4209 38.9993 76.487 39.0241C76.6439 41.1549 76.8091 43.2858 76.9578 45.4167C77.0156 46.9776 77.0652 48.5386 77.123 50.0996C72.2666 46.1022 67.6167 41.8735 63.0577 37.5374C61.8931 36.4885 60.7864 35.3818 59.6136 34.3577C59.6714 34.6302 59.7292 34.9028 59.787 35.1836C59.8531 35.5222 59.9192 35.8608 59.977 36.2077C65.0068 40.742 69.8219 45.5323 75.0664 49.8188C75.7767 50.4052 76.4044 51.0246 77.1808 51.5202C77.8415 70.4584 78.3866 89.3966 79.1134 108.326C79.0804 108.822 79.3777 109.037 79.6668 109.029C79.9806 109.02 80.3027 108.756 80.2036 108.302C79.898 95.4918 79.0969 82.7067 78.8822 69.8885C78.6757 63.5868 78.527 57.2685 78.2793 50.9503C78.3784 50.8016 78.4527 50.6282 78.5518 50.4878C83.3504 44.0704 88.2976 37.7357 93.5174 31.6487C93.5587 31.4092 93.5917 31.1614 93.633 30.9219C93.7073 30.5172 93.7817 30.1207 93.8725 29.716C93.889 29.6252 93.9138 29.5343 93.9386 29.4435C92.7823 30.7649 91.6673 32.1277 90.5523 33.4739C86.3319 38.6359 82.1032 43.7813 78.2132 49.1828C78.0645 45.6231 77.8663 42.0634 77.6103 38.5038C77.6598 38.4459 77.7011 38.3716 77.7176 38.2808C81.5086 33.7052 85.7207 29.4104 89.553 24.8514C91.9812 22.3819 94.2524 19.7638 96.5072 17.1456C96.5154 17.0961 96.5237 17.0383 96.5319 16.9887C96.6393 16.3362 96.7384 15.692 96.8375 15.0396C96.8375 15.0561 96.8375 15.0726 96.8293 15.0891C96.8293 15.0726 96.8293 15.0561 96.8293 15.0478C96.3172 15.6259 95.8299 16.2289 95.3509 16.84C94.1533 18.2524 92.8566 19.6812 91.593 21.0522C88.3471 24.4963 85.2995 28.1138 82.1198 31.6239C80.6579 33.3831 78.8491 34.9771 77.4781 36.8272C77.3377 35.0184 77.1808 33.2179 76.9908 31.4092C76.8009 29.1131 76.71 26.8006 76.6605 24.488C76.5531 24.5789 76.4127 24.6284 76.264 24.6284C76.1814 24.6284 76.1071 24.6119 76.0328 24.5789C75.9254 24.5623 75.8345 24.521 75.7354 24.4632C75.7354 24.4632 75.7327 24.4605 75.7272 24.455C75.7272 24.455 75.6528 24.4054 75.6116 24.3806C75.595 24.3806 75.5785 24.3641 75.562 24.3559C75.7354 28.758 76.0493 33.1601 76.3714 37.554C74.2736 35.8195 72.2749 33.953 70.2266 32.1607C65.8575 28.5102 61.6784 24.6449 57.5075 20.7714C57.3754 20.6558 57.2432 20.5319 57.1111 20.408C57.1111 20.441 57.1193 20.4823 57.1276 20.5154C57.1524 20.664 57.1772 20.8127 57.1937 20.9614L57.2019 20.9531Z" fill="#2E296D"/>
<path d="M150.298 112.572C150.281 111.919 150.281 111.267 150.281 110.614C150.281 109.359 150.19 108.104 150.091 106.857C150.091 106.881 150.091 106.906 150.091 106.931C150.034 106.221 149.976 105.502 149.91 104.8C149.901 105.543 149.893 106.295 149.852 107.047C149.827 107.484 149.802 107.93 149.786 108.368C149.778 108.657 149.769 108.946 149.761 109.235C149.761 109.235 149.761 109.227 149.761 109.219C149.753 109.458 149.744 109.698 149.736 109.937C149.736 110.012 149.736 110.094 149.736 110.177C149.736 110.664 149.736 111.151 149.736 111.639C149.488 117.552 148.514 123.457 147.275 129.239C146.466 132.319 145.177 135.26 143.914 138.208C143.74 138.663 143.558 139.109 143.36 139.555C143.278 139.744 143.195 139.926 143.104 140.116C142.823 140.802 142.543 141.479 142.278 142.164C141.997 142.718 141.708 143.271 141.411 143.816C141.403 143.841 141.386 143.866 141.378 143.882C135.58 154.033 127.271 162.887 118.062 169.915C109.432 175.82 99.4381 179.529 89.1389 181.23C89.1224 181.23 89.1142 181.23 89.0976 181.23C89.0316 181.238 88.9738 181.247 88.9077 181.255C85.2984 181.618 81.7305 182.205 78.0882 182.122C74.7681 181.949 71.4148 181.445 68.1194 180.891C47.0339 177.282 27.1128 167.487 14.2781 150.919C12.618 148.722 11.1149 146.377 9.83471 143.948C9.60346 143.527 9.38046 143.098 9.15747 142.66C8.59584 141.776 8.07552 140.876 7.55519 139.976C7.2909 139.521 7.05965 139.042 6.81187 138.572C6.57236 138.109 6.39891 137.614 6.2007 137.126C6.07681 136.821 5.94466 136.515 5.82903 136.201C5.71341 135.92 5.62256 135.631 5.51519 135.351C5.25089 134.64 5.0279 133.905 4.78838 133.195C4.78838 133.195 4.78838 133.211 4.78838 133.22C4.69753 132.947 4.59842 132.683 4.51583 132.402C4.44976 132.196 4.4002 131.981 4.34239 131.774C4.2185 131.304 4.06984 130.841 3.93769 130.37C3.93769 130.379 3.94595 130.395 3.95421 130.403C3.83858 130.032 3.71469 129.66 3.61559 129.288C3.52473 128.917 3.44214 128.545 3.35129 128.165C3.21915 127.678 3.07874 127.207 2.93834 126.72C2.85574 126.439 2.78141 126.15 2.69882 125.861C2.66578 125.753 2.63275 125.654 2.59971 125.547C2.59145 125.514 2.57493 125.473 2.56667 125.44C2.53364 125.357 2.50886 125.274 2.47582 125.192C2.46757 125.481 2.45105 125.762 2.42627 126.051C2.44279 126.183 2.45931 126.307 2.47582 126.431C2.64927 127.562 2.84749 128.685 3.02093 129.817C3.10352 130.37 3.21915 130.915 3.35129 131.461C3.40085 131.692 3.46692 131.923 3.52473 132.154C3.54951 132.229 3.56603 132.303 3.58255 132.377C3.61559 132.493 3.6321 132.609 3.65688 132.724C3.68992 132.873 3.72295 133.03 3.75599 133.178C3.95421 134.062 4.09461 134.954 4.30935 135.821C4.40846 136.243 4.52409 136.664 4.65624 137.085C4.78012 137.481 4.87097 137.878 4.96182 138.283C4.96182 138.283 4.96182 138.274 4.95357 138.266C5.00312 138.464 5.04442 138.663 5.09397 138.869C5.11875 138.96 5.14353 139.059 5.1683 139.158C5.1683 139.166 5.17656 139.183 5.17656 139.191C5.18482 139.216 5.19308 139.232 5.19308 139.249C5.22612 139.365 5.25089 139.464 5.28393 139.579C5.27567 139.555 5.26741 139.538 5.25915 139.513C5.27567 139.579 5.29219 139.637 5.30871 139.703C5.30871 139.678 5.29219 139.654 5.29219 139.637C5.31697 139.711 5.33349 139.786 5.35826 139.852C5.46563 140.199 5.58126 140.546 5.68863 140.892C5.70515 140.934 5.72167 140.975 5.72992 141.025C5.72167 141 5.71341 140.983 5.70515 140.959C5.73818 141.049 5.77122 141.132 5.796 141.231C5.796 141.231 5.796 141.231 5.796 141.239C5.796 141.239 5.80426 141.256 5.81252 141.272C5.83729 141.347 5.86207 141.421 5.88685 141.495C5.88685 141.495 5.88685 141.495 5.88685 141.504C5.88685 141.504 5.88685 141.512 5.89511 141.52C5.89511 141.528 5.89511 141.537 5.90337 141.545V141.561C6.06029 141.991 6.22547 142.412 6.3824 142.842C6.3824 142.825 6.3824 142.817 6.37414 142.809C6.37414 142.809 6.37414 142.817 6.3824 142.825C6.3824 142.833 6.3824 142.842 6.39065 142.85C6.5641 143.304 6.73754 143.758 6.90272 144.213C7.08442 144.692 7.28264 145.154 7.48912 145.617C7.6543 145.988 7.81949 146.36 7.99293 146.732C10.7597 152.43 14.3359 157.758 18.3912 162.606C29.6319 176.456 44.1432 184.17 61.4461 187.821C63.0814 188.118 64.7332 188.374 66.385 188.548C66.8558 188.969 68.0451 188.705 68.6976 188.845C73.397 189.118 78.1626 188.985 82.8785 188.795C99.0912 188.234 114.445 181.47 126.165 170.303C137.769 159.93 145.417 145.724 148.844 130.61C148.902 130.189 148.96 129.767 149.018 129.346C149.158 128.363 149.307 127.381 149.439 126.398C149.563 125.456 149.596 124.506 149.687 123.565C149.786 122.557 149.885 121.558 149.984 120.558C149.984 120.583 149.984 120.608 149.976 120.633C149.976 120.592 149.984 120.55 149.992 120.509C149.992 120.534 149.992 120.558 149.992 120.575C150.091 119.518 150.166 118.461 150.207 117.395C150.257 116.363 150.248 115.33 150.265 114.29V114.364C150.281 113.761 150.281 113.158 150.265 112.564L150.298 112.572Z" fill="#2E296D"/>
<path d="M5.83756 141.313C5.83756 141.313 5.83756 141.289 5.83756 141.28C5.83756 141.264 5.8293 141.256 5.82104 141.247C5.8293 141.264 5.83756 141.289 5.83756 141.305V141.313Z" fill="#2E296D"/>
</svg>
