<svg xmlns="http://www.w3.org/2000/svg" width="696" height="418" fill="none" xmlns:v="https://vecta.io/nano"><style><![CDATA[.B{fill:#ef9e7b}.C{stroke-miterlimit:10}.D{stroke-width:1.13}.E{fill:#060e38}.F{stroke:#2d2d2d}.G{stroke:#060e38}.H{stroke-width:.84}.I{stroke-linecap:round}.J{stroke-linejoin:round}]]></style><path d="M113.352 273.638H5.223L0 225.947 98.988 89.391h77.748v131.98h27.11v52.267h-27.11v39.856h-63.373v-39.856h-.011zm0-52.267v-67.29l-48.35 67.29h48.35z" fill="#2d2d2d"/><path d="M164.544 417h364.08" class="C D F"/><path d="M604.88 273.638H496.752l-5.224-47.691 98.988-136.556h77.748v131.98h27.11v52.267h-27.11v39.856h-63.373v-39.856h-.011zm0-52.267v-67.29l-48.35 67.29h48.35zm-174.134 62.782c46.536-46.537 46.536-121.987 0-168.524s-121.987-46.536-168.524 0-46.536 121.987 0 168.524 121.987 46.536 168.524 0z" fill="#2d2d2d"/><path d="M478.875 199.888c0 73.137-59.294 132.431-132.431 132.431m123.625-267.23a9.33 9.33 0 0 1-9.776 8.852 9.33 9.33 0 0 1-8.852-9.776 9.33 9.33 0 0 1 9.777-8.852 9.33 9.33 0 0 1 8.851 9.776z" stroke-width="1.17" class="C F"/><path d="M322.305 51.8c.369 1.225 17.877 25.007 17.518 24.395L352.2 61.645l-20.697-16.051-9.198 6.217V51.8z" class="B"/><path d="M334.52 44.693l-2.393 21.066-10.284-14.48 12.677-6.587z" fill="#d67f61"/><path d="M324.037 58.779c10.307 0 18.663-8.356 18.663-18.663s-8.356-18.663-18.663-18.663-18.662 8.356-18.662 18.663 8.355 18.663 18.662 18.663z" class="B"/><mask id="A" maskUnits="userSpaceOnUse" x="305" y="21" width="38" height="38"><path d="M324.036 58.779c10.307 0 18.663-8.356 18.663-18.663s-8.356-18.663-18.663-18.663-18.662 8.356-18.662 18.663 8.355 18.663 18.662 18.663z" fill="#fff"/></mask><g mask="url(#A)" class="E"><path d="M307.454 28.087s2.52 8.644 17.6 12.804l3.397 1.641s7.685 13.555 20.801 7.997c0 0 4.738-16.178-14.687-28-14.122-8.598-27.122 5.558-27.122 5.558h.011z"/></g><path d="M307.084 48.032l-.716 4.484c-.081.543.404.994.936.867l3.027-.716-3.247-4.634zm28.117-7.927c-.15 3.282-2.924 5.836-6.217 5.686-3.282-.15-5.836-2.924-5.686-6.217.151-3.282 2.924-5.836 6.217-5.686 3.282.15 5.836 2.924 5.686 6.217z" class="B"/><path d="M326.926 41.885s-.254-3.744 3.71-4.576" class="G H I J"/><path d="M358.81 21.396c.15 7.072-5.455 12.931-12.527 13.093-7.072.15-12.931-5.454-13.093-12.527A12.82 12.82 0 0 1 345.717 8.87c7.072-.15 12.931 5.454 13.093 12.527zm-48.386 22.719c.208.578-.092 1.202-.67 1.41s-1.202-.092-1.41-.67a1.1 1.1 0 1 1 2.08-.74z" class="E"/><path d="M307.051 40.498s1.606-1.433 3.94-.393m2.392 13.555s0-1.41 1.919-1.572" class="G H I J"/><path d="M428.296 349.005l15.138 10.77 9.014-16.224-15.682-11.233-8.47 16.687z" class="B"/><path d="M438.639 361.185l14.341-20.165 21.401 14.583-27.283 38.354c-1.272 1.792-4.103.728-3.883-1.456l3.374-25.469-7.95-5.847z" class="E"/><g stroke="#ffdabc" class="C D"><path d="M442.983 391.843l27.677-38.886"/><path d="M444.543 378.715l3.837-1.34m-3.189-3.652l3.848-1.329"/></g><path d="M381.298 159.939l-39.752 6.888s-34.645 107.111 83.121 190.429c0 0 12.781-9.661 23.135-28.427 0 0-90.217-54.278-66.504-168.878" fill="#012442"/><path d="M291.163 374.255v18.582h19.113l.058-19.299-19.171.717z" class="B"/><path d="M287.673 391.103h24.741l.52 25.885h-47.067c-2.207 0-2.981-2.923-1.063-4.01l22.707-12.018.15-9.857h.012z" class="E"/><path d="M265.22 412.435h47.725m-36.134-6.355l3.328 2.357m1.12-4.715l3.316 2.358" stroke="#ffdabc" class="C D"/><path d="M339.627 134.459l1.641 8.204s-55.561 79.805-58.369 236.503c0 0 19.344 4.264 35.997 0 0 0-2.219-132.35 52.914-192.741 0 0 25.873-21.632 11.128-56.808l-43.323 4.842h.012z" fill="#005482"/><path d="M283.188 367.934s17.265 2.23 35.824 0m22.649-225.328l44.097-3.987" class="G H I J"/><path d="M314.609 141.785c-19.149.486-40.989-13.624-58.866-30.681-5.293-5.038-2.381-7.673 2.669-12.965 5.039-5.293 13.417-5.489 18.709-.439 13.798 13.162 27.411 18.998 40.481 17.356 24.302-3.05 41.508-30.137 41.682-30.415 3.859-6.182 12.018-8.089 18.212-4.241s8.112 11.96 4.287 18.166c-.959 1.549-23.817 37.973-60.692 42.722-2.161.278-4.321.451-6.482.497z" class="B"/><mask id="B" maskUnits="userSpaceOnUse" x="252" y="78" width="132" height="64"><path d="M314.609 141.785c-19.149.486-40.989-13.624-58.866-30.681-5.293-5.038-2.381-7.673 2.669-12.965 5.039-5.293 13.417-5.489 18.709-.439 13.798 13.162 27.411 18.997 40.481 17.357 24.302-3.051 41.508-30.138 41.682-30.416 3.859-6.182 12.018-8.089 18.212-4.241s8.112 11.96 4.287 18.166c-.959 1.549-23.817 37.973-60.692 42.722-2.161.278-4.321.451-6.482.497z" fill="#fff"/></mask><g mask="url(#B)"><path d="M334.681 103.431l-.717 43.185 32.819-11.002-19.46-38.55-12.642 6.367z" fill="#d67f61"/></g><path d="M277.571 102.749l-.508-4.229 1.849.844-5.824-11.66c-.486-.959-1.144-1.849-2.023-2.461-2.022-1.433-3.651-.797-5.096-.959-2.426-.266-1.675.462-1.71 2.901-2.531.046-7.765 1.179-10.643-10.019-.612-2.392-3.097-3.86-5.5-3.27-3.629.901 2.657-.774 2.484.867v.208c-.867-.809-2.103-1.167-3.328-.867a3.6 3.6 0 0 0-2.716 3.12c-.023.197-.023.393 0 .589-.566-.15-1.178-.185-1.779-.023a3.6 3.6 0 0 0-2.716 3.12c-.046.404-.011.832.093 1.26.034.15.08.289.115.439-.069.011-.127.011-.196.023-1.514.381-1.584 1.052-1.745 2.519-.047.404-.012.832.092 1.26.786 3.178 1.572 4.449 2.762 6.818 0 0 .023.046.058.104a25.96 25.96 0 0 0 1.814 3.074c3.663 5.836 12.85 17.276 23.297 19.853 13.901 3.432 11.232-13.509 11.232-13.509h-.012z" class="B"/><path d="M232.711 68.752l.07 2.092c.023.659.254 1.283.67 1.791l26.139 31.362c.74.89 2.161 2.046 3.329 2.011l11.463-.289c1.26-.034 2.623-1.225 3.201-2.762L243.17 69.885l-10.459-1.132z" fill="#03081d"/><path d="M233.001 69.549l28.566 33.524c.577.682 1.433 1.063 2.322 1.052l12.469-.151c.959 0 1.479-1.144.844-1.872l-28.509-33.165c-.774-.901-1.906-1.41-3.097-1.398l-11.74.139c-.959 0-1.468 1.132-.855 1.872z" class="E"/><path d="M238.05 70.693l25.896 30.392a2.12 2.12 0 0 0 1.653.751l7.095-.08a1.01 1.01 0 0 0 .751-1.664l-25.319-29.456a3.6 3.6 0 0 0-2.75-1.248l-6.772.081c-.624 0-.959.739-.554 1.225z" fill="#f7f4ed"/><path d="M268.685 84.318l-6.31-.959c-2.646-.404-4.738 2.219-3.756 4.715a3.52 3.52 0 0 0 1.699 1.837l11.336 5.547-1.675-7.303-1.306-3.825.012-.012z" class="B"/><path d="M335.192 77.257s-4.218-4.634 3.455-13.127c8.852-9.811 13.752-6.691 17.912-4.784l-21.367 17.912z" fill="#d80650"/><path d="M382.94 129.617s-11.868-16.93-10.331-30.115 4.726-36.239-13.521-42.144c0 0-8.054.023-15.08 6.98-6.044 5.235-20.489 19.98-12.792 35.638.947 1.941 1.918 3.455 2.877 4.611.693 8.389 2.415 18.246 5.535 29.872l43.323-4.842h-.011z" fill="#f03c3a"/><path d="M362.161 97.572l10.712 33.166 16.04-1.768-30.577-48.165 3.825 16.768z" fill="#d9004b"/><path d="M399.209 191.614c.069.578.185 1.132.324 1.687l-6.634 12.099a4.23 4.23 0 0 0 .624 4.923c1.699 1.814 4.6 1.78 6.252-.081l1.352-1.525c1.999 1.664 4.426 5.708-1.005 16.501-.913 1.815-.185 4.033 1.629 4.946a3.67 3.67 0 0 0 4.172-.6c.046-.047.092-.104.139-.162.127 1.19.843 2.299 1.999 2.889a3.67 3.67 0 0 0 4.171-.601 3.6 3.6 0 0 0 .393-.451c.335.497.786.925 1.364 1.213a3.67 3.67 0 0 0 4.172-.6c.312-.289.566-.636.762-1.029.07-.139.127-.277.197-.416.057.035.104.081.162.104 1.421.717 3.085.428 4.171-.601a3.57 3.57 0 0 0 .763-1.028c1.502-2.982 2.577-5.79 3.236-8.413 0 0 0-.046.023-.116.312-1.236.52-2.426.635-3.582.855-5.662 1.907-16.733-1.178-25.481.104-1.028.104-2.091-.035-3.166-6.194-49.02-27.376-86.276-42.364-107.296l-22.43 16.768c12.977 18.351 31.628 51.181 37.048 94.031l.058-.012z" class="B"/><path d="M368.933 61.518c-5.42-5.501-14.26-5.558-19.784-.162a13.99 13.99 0 0 0-.162 19.784c.15.15 5.732 5.917 13.174 16.433l22.43-16.768c-8.459-11.868-14.953-18.559-15.67-19.287h.012z" fill="#f03c3a"/><path d="M362.161 97.572l-13.162-16.421" class="G H I J"/><path d="M183.196 13.896l6.68 2.831m10.133-13.046V9.54M186.791 1l6.182 9.464" class="C D F"/><g class="B"><path d="M268.408 15.791h-69.462a2.67 2.67 0 0 0-2.67 2.669v21.344a2.67 2.67 0 0 0 2.67 2.669h69.462a2.67 2.67 0 0 0 2.67-2.669V18.461a2.67 2.67 0 0 0-2.67-2.669z"/><path d="M226.554 40.036l7.014 7.939 7.234-7.939h-14.248z"/></g><path d="M204.135 25.498H260.4m-56.265 5.998h31.074" class="C D F"/></svg>