<svg xmlns="http://www.w3.org/2000/svg" width="453" height="235" fill="none" xmlns:v="https://vecta.io/nano"><path opacity=".182" d="M452.89 217.126c0 95.827-68.277 176.466-161.023 200.238-1.785.462-3.569.889-5.365 1.304l-1.46.335a222.53 222.53 0 0 1-14.007 2.666 229.97 229.97 0 0 1-35.906 2.815c-10.358 0-20.565-.692-30.541-2.031-3.777-.496-7.519-1.096-11.227-1.777a220.73 220.73 0 0 1-7.299-1.477C89.422 398.001 17.356 315.572 17.356 217.126c0-114.521 97.509-207.347 217.773-207.347S452.89 102.605 452.89 217.126z" fill="#c9d2f2"/><path d="M426.961 171.313h-55.949v20.934h55.949v-20.934zm-68.602-78.759h-55.95v20.934h55.95V92.554z" fill="#ede9f6"/><path d="M381.913 328.612l-2.108.992v-203.25l2.108-.992v203.25z" fill="#6f82b2"/><path d="M387.73 104.544c-3.175-.75-14.275 0-14.275 0l-23.253 46.99h61.302l-23.786-46.99h.012zM231.618 355.073l19.245 1.973c43.471 4.454 87.301 4.039 130.668-1.235l6.083-.738c10.682-6.266 25.848-18.129 28.907-36.189 4.832-28.457-26.833-96.507-67.095-101.966-40.25-5.458-86.954 79.971-86.954 79.971s-40.795 6.428-44.016 33.119c-1.888 15.614 6.153 22.249 13.139 25.076l.023-.011z" fill="#ede9f6"/><path opacity=".49" d="M378.252 303.271s-2.526-68.27-17.368-71.039c-14.841-2.781-40.725 6.07-45.313 14.24-4.576 8.17-37.643 78.136-37.643 78.136l35.198 1.742 52.949-25.249 12.154 2.181.023-.011z" fill="#94a3d3"/><path d="M329.834 133.901h-62.959c-3.321 0-6.014 2.682-6.014 5.99v55.379c0 3.308 2.693 5.989 6.014 5.989h62.959c3.321 0 6.013-2.681 6.013-5.989v-55.379c0-3.308-2.692-5.99-6.013-5.99z" fill="#ede9f6"/><path d="M328.977 193.666v-52.171h-61.233v52.171h61.233z" fill="#b9c3ea"/><path opacity=".25" d="M255.289 216.249c0 59.465-30.692 109.19-71.741 121.48-6.373 1.915-13 2.931-19.801 2.931-17.669 0-34.156-6.797-48.14-18.579-26.058-21.926-43.402-61.127-43.402-105.832 0-68.708 40.98-124.422 91.542-124.422s91.53 55.703 91.53 124.422h.012z" fill="#fff"/><path d="M192.527 238.152s2.444-53.753 1.367-55.207c-1.066-1.454-18.283-23.887-18.283-23.887l-10.277 27.776 27.204 51.329-.011-.011z" fill="#f83d48"/><path d="M41.953 92.047l5.04 15.014s15.421-4.039 15.236-4.674-6.558-13.951-6.558-13.951-10.926-.035-13.718 3.612z" fill="#f3a080"/><path d="M120.682 165.278l-34.967-22.941-20.172-51.064-29.545 4.951s14.946 54.606 25.698 70.369c5.978 8.782 47.874 33.316 47.874 33.316l11.123-34.631h-.012z" fill="#f83d48"/><path d="M76.029 145.672l6.396-2.147c1.159-.369 2.224.993 1.39 1.974-.939 1.096-1.703 2.319-2.294 3.623-.544 1.212-.788 2.527-1.344 3.727-.266.589-1.147.404-1.217-.207-.232-1.847.371-3.82 1.217-5.643l-2.92 1.038c-.915.335-3.035 1.385-3.592-.127-.521-1.419 1.46-1.938 2.364-2.238z" fill="#101233"/><path d="M45.244 47.03c1.587-.323 11.841 23.518 11.841 23.518 1.251-3.924 3.905-7.397 7.357-9.659.035-.023.07-.046.093-.058.324-.196.707-.346 1.019-.173.151.081.255.231.348.369.765 1.258.649 2.873.174 4.27-.475 1.385-1.298 2.631-1.923 3.958-1.217 2.539-1.413 5.377-1.587 8.182-.313 4.743-7.821 8.978-7.821 8.978l.348 1.593-12.594 3.82-1.634-5.528-2.92-2.25c-1.865-1.881-9.373-25.572-7.994-26.495.371-.254.811-.485 1.24-.704a24.18 24.18 0 0 1 1.749-.762c.324-.127.521-.185.521-.185s.568-.739 1.321-1.489c.44-.462.95-.923 1.448-1.258.533-.369 1.066-.566 1.471-.438s1.356 1.396 2.491 3.116c2.815 4.258 6.847 11.298 7.114 10.755.359-.762-4.391-18.025-4.391-18.025s.29-.485.892-.912c.359-.254.823-.508 1.413-.623h.023z" fill="#f3a080"/><path d="M37.713 52.707c.406.127 1.356 1.396 2.491 3.116-.718 1.316-1.9 2.55-2.479 3.808-.892 1.962-1.356 4.131-1.274 6.289.127 3.531 1.564 6.889 3.302 9.982 1.738 3.081 3.777 6.001 5.272 9.209.8 1.731 1.437 3.52 1.958 5.343l-5.04 1.593-1.078-5.758-2.92-2.25c-1.865-1.881-9.373-25.572-7.994-26.495.371-.254.811-.485 1.24-.704a24.14 24.14 0 0 1 1.749-.762c.324-.127.521-.185.521-.185s.568-.739 1.321-1.489c.44-.462.95-.923 1.448-1.258.533-.369 1.066-.565 1.471-.439h.012z" fill="#ea7c6f"/><path d="M34.792 54.404l.579 1.304c1.193 2.539 2.584 4.697 3.661 6.197l1.842 2.354c-.035-.127-.394-1.189-1.008-2.804L37.098 54.9l-.846-1.742c-.498.335-1.008.796-1.46 1.258v-.012zm-3.591 2.446c1.831 4.085 3.997 7.039 4.136 7.224-.035-.231-.684-3.843-2.387-7.986l-1.738.762H31.2z" fill="#b54b57"/><path d="M52.069 88.931c-.012-.069-.046-.162-.058-.231l-.22-1.189c-.012-.335 0-.646.093-.969.232-.854.939-1.477 1.634-2.031 2.236-1.812 4.704-3.497 6.129-5.989 1.68-2.954 1.599-6.566 2.7-9.774.799-2.331 2.225-4.535 2.236-7.005 0-.288-.023-.6-.035-.912.313-.185.695-.346 1.02-.173.151.092.255.231.348.381.765 1.258.66 2.873.174 4.27-.475 1.385-1.298 2.631-1.923 3.958-1.228 2.539-1.413 5.377-1.599 8.182-.301 4.754-7.809 8.99-7.809 8.99a18.85 18.85 0 0 0 .591 1.327c.023.046.058.104.081.173l.243.531-3.603.485v-.023z" fill="#f8bf92"/><path d="M46.426 84.419l-.174-.485c-.116-.311-.22-.785-.29-1.385-.151-1.189 0-2.943.834-4.627.846-1.685 2.178-2.839 3.221-3.439.521-.3.973-.496 1.286-.6l.498-.15-.336.392c-.22.242-.51.6-.846 1.05-.684.889-1.471 2.135-2.201 3.566-.718 1.431-1.251 2.816-1.552 3.889l-.336 1.304-.116.496.012-.012z" fill="#b54b57"/><path d="M176.387 173.933c-.034-.15-.127-.335-.255-.554 1.866-2.539 3.302-5.332 3.824-8.413.95-5.55-1.947-12.059-7.404-13.513 4.6-3.658 9.339-9.093 6.755-14.828-.672-1.501-1.819-2.758-3.175-3.705-3.429-2.388-7.531-2.781-11.539-3.092-8.157-.624-16.592-.901-24.273 1.927-7.67 2.827-14.448 9.497-15.028 17.621-5.109-.162-10.103 3.473-11.493 8.378-.857 3.012-.405 5.666.834 7.974-7.681 8.562-10.265 78.563-8.991 99.369.904 14.944.51 28.803.221 35.427a3.35 3.35 0 0 0 3.869 3.45l93.002-14.205s-6.198-29.369-7.299-38.081-18.851-76.89-19.048-77.755z" fill="#f83d48"/><path d="M137.899 152.769s-6.778 2.608-7.531 8.366 5.249 7.72 5.249 7.72l19.441-8.124s11.262-2.619 12.629-8.158-12.154-7.04-12.154-7.04l-17.645 7.224.011.012z" fill="#101233"/><path d="M135.616 168.856l19.442-8.124c.648-3.128.718-7.986.59-12.313-.139-5.032-.532-9.359-.532-9.359l-18.272 3.635 1.008 11.759.29 3.393-2.538 11.009h.012z" fill="#f3a080"/><path d="M136.855 142.695l1.008 11.759c3.917.6 7.96-.404 11.517-2.135 2.248-1.096 4.252-2.481 6.28-3.889-.139-5.031-.533-9.359-.533-9.359l-18.272 3.635v-.011z" fill="#ea7c6f"/><path d="M159.08 140.237s-.637 1.338-3.024 3a17.34 17.34 0 0 1-1.692 1.05c-2.456 1.362-24.725 8.044-27.945 7.236s-5.04-12.348-5.075-13.548l-.591-30.003c10.833-23.426 38.211-7.582 41.212-4.824s-2.885 37.089-2.885 37.089z" fill="#f3a080"/><path d="M156.056 143.237a17.34 17.34 0 0 1-1.692 1.05c-2.456 1.362-24.725 8.043-27.946 7.236s-5.039-12.348-5.074-13.548c1.483 5.147 3.012 12.209 5.353 12.255 3.533.069 26.624-5.931 29.359-6.993z" fill="#f8bf92"/><path d="M123.498 115.022s2.004-6.243 4.762-4.996 1.9 1.777 1.9 1.777l-6.65 3.219h-.012zm30.264-1.673s-7.728-7.905-10.532-4.777c-1.634 1.823-.359 2.931-.359 2.931l10.891 1.846z" fill="#4a0f2f"/><path d="M125.259 131.64c-.44.854-2.375.738-4.345-.254s-3.197-2.493-2.757-3.347 2.375-.738 4.345.254c1.958.993 3.197 2.493 2.757 3.347zm28.409-3.035c.197 1.385-2.224 2.873-5.399 3.323-3.186.45-5.92-.311-6.117-1.696s2.224-2.873 5.399-3.324 5.92.312 6.117 1.697zm-23.346 2.031c.15.461.614.704 1.066.9.637.3 1.286.588 1.993.692.695.104 1.251-.323 1.923-.531.591-.196 1.101-.646 1.379-1.188a2.43 2.43 0 0 0 .115-1.801c-1.714.866-3.777 1.028-5.596.427-.324.427-1.031 1.004-.869 1.501h-.011z" fill="#ea7c6f"/><path d="M134.088 119.061a16.31 16.31 0 0 1-3.152 11.552c1.495 1.027 3.43 1.327 5.121.669-.834 1.016-2.166 1.5-3.476 1.339-1.297-.173-2.491-1.039-3.035-2.239 1.946-3.381 3.8-7.501 4.53-11.321h.012z" fill="#dd5b67"/><path d="M151.896 123.089s-5.84-7.109-12.363-.854c0 0 6.141-1.697 12.363.854zm-22.952-.6s-3.302-4.582-7.149-.416c0 0 3.58-1.177 7.149.416z" fill="#1d1e1e"/><path d="M127.773 137.779l15.561-3.22s1.483 8.17-6.419 8.851c-7.89.681-9.142-5.631-9.142-5.631z" fill="#fff"/><path d="M155.858 140.744c4.415.15 7.891-2.077 9.849-4.05a10.63 10.63 0 0 0 1.077-1.27c1.506-2.111 2.758-9.901-.255-12.082-2.108-1.523-3.962.139-4.878 1.27-.393.484-.614.877-.614.877l-5.167 15.255h-.012z" fill="#f8bf92"/><path d="M155.858 140.745c4.415.15 7.891-2.078 9.849-4.051.173-.208.324-.404.463-.588 1.506-2.112 2.758-9.902-.255-12.083-1.703-1.234-3.244-.38-4.264.589-.393.485-.614.877-.614.877l-5.167 15.256h-.012z" fill="#f3a080"/><path d="M166.831 129.678c.092.646-.082 1.281-.36 1.881-1.181 2.527-4.043 4.235-6.766 5.816a6.69 6.69 0 0 0 1.356-4.016v-1.477c.208-1.973 5.248-6.001 5.781-2.193l-.011-.011z" fill="#ea7c6f"/><path d="M158.337 137.975s.058-.023.151-.069l.428-.197a5.73 5.73 0 0 0 1.367-.98c.499-.485.974-1.154 1.263-1.974.267-.819.336-1.8 0-2.792-.035-.127-.092-.243-.139-.37l-.046-.092.046-.081.105-.138.208-.277c.278-.358.579-.693.881-.993.301-.311.614-.588.915-.83.301-.254.602-.485.88-.647.279-.173.58-.265.858-.265a1.29 1.29 0 0 1 .683.196.71.71 0 0 1 .278.312c.035.092.024.138.035.138 0 0 .023-.046 0-.138 0-.093-.058-.243-.22-.381s-.417-.289-.765-.335c-.359-.046-.753.035-1.112.185-.371.15-.707.358-1.066.588s-.718.497-1.077.797a10.35 10.35 0 0 0-1.02 1.004l-.232.288-.115.15-.151.208-.104.15.069.161.104.243.128.323c.301.865.29 1.731.127 2.481-.173.761-.521 1.408-.892 1.915-.382.508-.788.866-1.089 1.108-.151.116-.278.196-.371.254l-.127.092v-.034z" fill="#b54b57"/><path d="M132.814 87.558s10.428-4.604 20.137 0 11.644 11.194 11.644 11.194 7.346 1.697 8.991 5.447-2.514 10.536-2.514 10.536l-38.258-27.176z" fill="#5f1234"/><path d="M122.549 96.686c-2.329.75-4.009 2.885-4.797 5.192-.8 2.308-.834 4.789-.823 7.224.023 2.435.081 4.905-.544 7.282 3.058-.785 5.376-3.474 6.129-6.508 4.136.069 10.369-7.155 10.369-7.155l1.495 5.112c4.623.75 16.336-3.393 16.336-3.393l1.588 3.439c4.379.081 7.635-1.765 7.635-1.765l-1.529 10.258 2.63 9.094c4.704-2.885 7.114.865 7.114.865l1.332-5.089.336-1.269 1.159-4.431c.197.196-.105-.993.092-.797.383-2.273-.857-4.558-2.514-6.197-1.263-1.257-2.769-2.25-4.206-3.277a38.64 38.64 0 0 1-1.286-.992 19.85 19.85 0 0 1-1.552-1.408c-2.167-2.066-4.021-4.478-6.176-6.589-3.997-3.947-9.037-6.901-14.54-8.147-5.492-1.246-11.413-.727-16.476 1.742-1.564.75-3.035 1.696-4.646 2.331-.069.023-.139.058-.197.081-1.552.588-3.29.865-4.889.392 1.413 2.85 4.82 4.57 7.971 4.027l-.011-.023z" fill="#38102b"/><path d="M164.351 105.26c-1.356 4.304-1.796 8.874-1.275 13.34 2.317-.381 4.751.15 6.743 1.373l1.159-4.431c.197.196-.104-.993.093-.797.382-2.273-.858-4.558-2.515-6.196-1.262-1.258-2.769-2.251-4.205-3.278v-.011zm-42.185-2.089l2.746.069a6.09 6.09 0 0 1-1.83 3.693c3.336-1.269 6.117-3.912 7.542-7.166 3.395-.035 6.778-1.362 9.269-3.658l-.904 8.008c5.851-.531 11.621-1.927 17.078-4.085.139 1.523-.173 3.104-.915 4.466l6.361-1.662c-2.167-2.065-4.021-4.477-6.176-6.589-.521-.519-1.077-1.027-1.622-1.5-3.707-3.185-8.145-5.562-12.918-6.647-5.063-1.154-10.486-.796-15.271 1.189-.405.173-.811.346-1.216.542-1.564.75-3.036 1.696-4.646 2.331-.07.023-.139.058-.197.081 2.294 1.708 4.889 3 7.647 3.773a37.05 37.05 0 0 1-4.948 7.132v.023z" fill="#4a0f2f"/><path d="M144.574 92.035c.382 2.227.313 4.535-.22 6.716 3.383-.565 6.615-1.962 9.35-3.993-3.708-3.185-8.145-5.562-12.919-6.647-5.063-1.154-10.485-.796-15.27 1.189 3.163 1.604 6.708 2.573 10.219 2.169l-2.63 3.681a28.2 28.2 0 0 0 11.458-3.116h.012z" fill="#5f1234"/><path d="M169.378 169.317c-10.462 8.793-24.273 12.382-37.214 15.856-5.597-4.293-10.08-8.182-13.672-14.356-.243-.427-.823-.127-.684.323 2.097 6.37 8.192 11.528 13.371 15.498.486.369.996.115 1.216-.3 12.733-1.823 28.745-6.52 38.177-15.636.845-.82-.29-2.158-1.205-1.397l.011.012z" fill="#101233"/><path d="M217.599 272.402c0 2.273-43.424 14.955-52.369 16.917-.765.162-1.274.254-1.494.254-2.77 0-26.614-71.258-26.394-72.355 0 0 49.473-18.129 51.06-17.298.244.127 1.147 1.962 2.468 4.962 7.126 16.029 26.718 65.443 26.718 67.52h.011z" fill="#c9d2f2"/><g style="mix-blend-mode:overlay" opacity=".59"><path d="M149.044 223.173l16.186 66.157-1.494.254c-2.77 0-26.614-71.258-26.394-72.354 0 0 49.473-18.129 51.06-17.298.244.127 1.147 1.962 2.468 4.962l-41.826 18.279z" fill="#fff"/></g><path d="M190.998 271.075s61.858-16.491 64.21-32.519-49.82-71.697-60.051-78.771c-10.231-7.062-19.557-.738-19.557-.738l17.587 38.312 25.096 32.703-35.813 15.948 7.021 20.668 1.495 4.397h.012z" fill="#f83d48"/><path d="M182.47 245.999l36.878-16.779s-27.702-34.239-30.68-40.966c0 0 2.283 9.082 11.332 21.51s14.239 18.198 14.239 18.198l-31.769 18.025v.012z" fill="#101233"/><path d="M218.143 91.285l-8.238 13.144 15.328.392s13.208 21.914 17.692 22.987 39.057-15.671 39.057-20.24-10.01-41.624-13.011-42.351c-2.989-.715-39.926-21.348-46.773-15.925-6.836 5.424-18.793 20.829-15.7 25.041s11.645 16.94 11.645 16.94v.011z" fill="#fff"/><path d="M229.648 97.909s-7.833-37.539 9.153-35.242c16.996 2.308 5.26 18.637 5.26 18.637s13.764-8.897 19.65 2.873c5.886 11.782-34.063 13.721-34.063 13.721v.012z" fill="#f83d48"/><path d="M126.52 68.552l-12.223-33.996-16.14 12.082 28.363 21.914zm11.412 2.896l12.895-18.706-11.76-4.339-1.135 23.045zM118.12 81.996l-21.435-11.17-4.368 10.605 25.803.566zM86.699 229.208l-12.988-18.636-8.249 9.416 21.237 9.22z" fill="#fff"/><path d="M295.516 133.37l1.784-5.596 1.785 5.596c1.946 6.105 6.175 11.229 11.817 14.31-5.642 3.069-9.871 8.193-11.817 14.309l-1.785 5.597-1.784-5.597c-1.946-6.104-6.175-11.228-11.818-14.309 5.643-3.07 9.872-8.193 11.818-14.31zm139.601 84.448l1.228-3.865 1.228 3.865c1.344 4.212 4.264 7.755 8.156 9.879a17.18 17.18 0 0 0-8.156 9.878l-1.228 3.865-1.228-3.865c-1.344-4.212-4.264-7.755-8.157-9.878 3.893-2.124 6.824-5.655 8.157-9.879zM159.449 3.79l.903-2.85.904 2.85c.985 3.116 3.151 5.724 6.025 7.293a12.72 12.72 0 0 0-6.025 7.293l-.904 2.85-.903-2.85c-.985-3.116-3.152-5.724-6.025-7.293 2.873-1.569 5.028-4.177 6.025-7.293zm145.254 47.152l1.229-3.866 1.228 3.866c1.344 4.212 4.263 7.755 8.156 9.878a17.18 17.18 0 0 0-8.156 9.878l-1.228 3.866-1.229-3.866a17.21 17.21 0 0 0-8.156-9.878c3.893-2.123 6.824-5.654 8.156-9.878zm22.316-46.021l.765-2.412.764 2.412c.835 2.631 2.665 4.835 5.087 6.162-2.433 1.327-4.252 3.531-5.087 6.162l-.764 2.412-.765-2.412c-.834-2.631-2.665-4.835-5.086-6.162a10.7 10.7 0 0 0 5.086-6.162zm-40.517 212.978l.903-2.838.904 2.838c.985 3.105 3.14 5.701 6.002 7.259-2.862 1.558-5.017 4.166-6.002 7.258l-.904 2.839-.903-2.839c-.985-3.104-3.14-5.7-6.002-7.258a12.65 12.65 0 0 0 6.002-7.259zM182.029 45.957l1.1-3.462 1.101 3.462a15.4 15.4 0 0 0 7.299 8.84c-3.487 1.904-6.106 5.066-7.299 8.84l-1.101 3.462-1.1-3.462a15.4 15.4 0 0 0-7.3-8.84c3.488-1.904 6.106-5.066 7.3-8.84zM44.606 174.521l.788-2.481.788 2.481c.857 2.701 2.734 4.974 5.237 6.336a11.02 11.02 0 0 0-5.237 6.335l-.788 2.481-.788-2.481a11.01 11.01 0 0 0-5.237-6.335c2.503-1.362 4.368-3.624 5.237-6.336z" fill="#f83d48"/></svg>