<svg width="738" height="407" viewBox="0 0 738 407" fill="none" xmlns="http://www.w3.org/2000/svg">
<g clip-path="url(#clip0_4929_8924)">
<path opacity="0.5" d="M213.408 221.53H120.563V383.045H213.408H238.796H347.948V101.396H213.408V221.53Z" fill="#D1D1D1"/>
<path opacity="0.5" d="M500.99 231.317V0H366.449V383.045H495.684H500.99H599.753V231.317H500.99Z" fill="#D1D1D1"/>
<path d="M738 377.93H0V381.34H738V377.93Z" fill="#6D4DA3"/>
<path d="M486.009 140.935H161.697V396.497H486.009V140.935Z" fill="#B6A2DE"/>
<path d="M486.009 169.886H161.697V396.497H486.009V169.886Z" fill="#F8F6FC"/>
<path d="M173.311 159.605C175.922 159.605 178.038 157.483 178.038 154.865C178.038 152.247 175.922 150.125 173.311 150.125C170.7 150.125 168.584 152.247 168.584 154.865C168.584 157.483 170.7 159.605 173.311 159.605Z" fill="#F8F6FC"/>
<path d="M198.172 154.865C198.172 157.491 196.046 159.605 193.444 159.605C190.826 159.605 188.717 157.474 188.717 154.865C188.717 152.239 190.843 150.125 193.444 150.125C196.046 150.125 198.172 152.239 198.172 154.865Z" fill="#F8F6FC"/>
<path d="M218.288 154.865C218.288 157.491 216.163 159.605 213.561 159.605C210.942 159.605 208.834 157.474 208.834 154.865C208.834 152.239 210.959 150.125 213.561 150.125C216.163 150.125 218.288 152.239 218.288 154.865Z" fill="#F8F6FC"/>
<path d="M374.441 163.39H240.955C236.5 163.39 232.878 159.758 232.878 155.291C232.878 150.824 236.5 147.192 240.955 147.192H374.441C378.897 147.192 382.519 150.824 382.519 155.291C382.519 159.775 378.897 163.39 374.441 163.39Z" fill="#F8F6FC"/>
<path d="M466.249 163.39H403.06C398.605 163.39 394.983 159.758 394.983 155.291C394.983 150.824 398.605 147.192 403.06 147.192H466.249C470.705 147.192 474.327 150.824 474.327 155.291C474.344 159.775 470.722 163.39 466.249 163.39Z" fill="#F8F6FC"/>
<path d="M302.954 270.856H187.578V336.14H302.954V270.856Z" fill="#B6A2DE"/>
<path d="M302.954 190.721H187.578V256.005H302.954V190.721Z" fill="#B6A2DE"/>
<path d="M301.951 352.645H188.581V357.76H301.951V352.645Z" fill="#B6A2DE"/>
<path d="M301.951 369.695H188.581V374.81H301.951V369.695Z" fill="#B6A2DE"/>
<path d="M456.217 352.645H342.847V357.76H456.217V352.645Z" fill="#B6A2DE"/>
<path d="M456.217 369.695H342.847V374.81H456.217V369.695Z" fill="#B6A2DE"/>
<path d="M487.709 398.219H159.996V139.23H487.709V398.219ZM163.397 394.809H484.308V142.64H163.397V394.809Z" fill="#6D4DA3"/>
<path d="M565.42 359.755H532.142V78.9926H565.42V359.755ZM535.543 356.345H562.019V82.4025H535.543V356.345Z" fill="#6D4DA3"/>
<path d="M569.96 343.506H527.585V373.957H569.96V343.506Z" fill="#B6A2DE"/>
<path d="M563.89 327.36H534.421C533.741 327.36 533.128 326.95 532.856 326.337C532.584 325.723 532.703 324.99 533.163 324.495L561.509 293.805L564.009 296.124L538.315 323.95H563.89V327.36Z" fill="#6D4DA3"/>
<path d="M563.89 296.601H534.421C533.741 296.601 533.128 296.192 532.856 295.578C532.584 294.965 532.703 294.232 533.163 293.737L561.509 263.047L564.009 265.366L538.315 293.191H563.89V296.601Z" fill="#6D4DA3"/>
<path d="M563.89 265.86H534.421C533.741 265.86 533.128 265.451 532.856 264.837C532.584 264.223 532.703 263.49 533.163 262.996L561.509 232.306L564.009 234.625L538.315 262.45H563.89V265.86Z" fill="#6D4DA3"/>
<path d="M563.89 235.119H534.421C533.741 235.119 533.128 234.71 532.856 234.096C532.584 233.482 532.703 232.749 533.163 232.255L561.509 201.565L564.009 203.884L538.315 231.709H563.89V235.119Z" fill="#6D4DA3"/>
<path d="M563.89 204.361H534.421C533.741 204.361 533.128 203.952 532.856 203.338C532.584 202.724 532.703 201.991 533.163 201.497L561.509 170.807L564.009 173.125L538.315 200.951H563.89V204.361Z" fill="#6D4DA3"/>
<path d="M563.89 173.62H534.421C533.741 173.62 533.128 173.211 532.856 172.597C532.584 171.983 532.703 171.25 533.163 170.756L561.509 140.066L564.009 142.384L538.315 170.21H563.89V173.62Z" fill="#6D4DA3"/>
<path d="M563.89 142.862H534.421C533.741 142.862 533.128 142.453 532.856 141.839C532.584 141.225 532.703 140.492 533.163 139.997L561.509 109.307L564.009 111.626L538.315 139.452H563.89V142.862Z" fill="#6D4DA3"/>
<path d="M563.89 112.121H534.421C533.741 112.121 533.128 111.711 532.856 111.098C532.584 110.484 532.703 109.751 533.163 109.256L561.509 78.5663L564.009 80.8851L538.315 108.711H563.89V112.121Z" fill="#6D4DA3"/>
<path d="M565.369 67.1428H511.431V112.734H565.369V67.1428Z" fill="#FF6A73"/>
<path d="M646.413 67.1428H592.475V93.3316H646.413V67.1428Z" fill="#FF6A73"/>
<path d="M645.512 70.4675H379.118C378.182 70.4675 377.417 69.7002 377.417 68.7625C377.417 67.8247 378.182 67.0575 379.118 67.0575H645.529C646.464 67.0575 647.229 67.8247 647.229 68.7625C647.212 69.7002 646.464 70.4675 645.512 70.4675Z" fill="#6D4DA3"/>
<path d="M393.198 76.7249H391.497V187.55H393.198V76.7249Z" fill="#6D4DA3"/>
<path d="M584.414 368.518H513.131V381.919H584.414V368.518Z" fill="#6D4DA3"/>
<path d="M538.587 70.0242C538.366 70.0242 538.145 69.939 537.992 69.7685L523.793 55.5317H393.555L380.206 68.916C379.866 69.257 379.339 69.257 378.999 68.916C378.659 68.575 378.659 68.0464 378.999 67.7054L392.857 53.8097H524.49L539.199 68.5579C539.539 68.8989 539.539 69.4275 539.199 69.7685C539.029 69.939 538.808 70.0242 538.587 70.0242Z" fill="#6D4DA3"/>
<path d="M646.651 70.0243C646.345 70.0243 646.056 69.8538 645.903 69.5639L631.687 42.3351H597.202L583.836 68.6944C583.615 69.1206 583.105 69.2741 582.697 69.0695C582.272 68.8649 582.119 68.3363 582.323 67.9271L596.165 40.6301H632.707L647.399 68.7796C647.621 69.1888 647.45 69.7174 647.042 69.922C646.923 69.9902 646.787 70.0243 646.651 70.0243Z" fill="#6D4DA3"/>
<path d="M398.571 76.7249C398.571 80.186 395.782 82.9822 392.33 82.9822C388.878 82.9822 386.09 80.186 386.09 76.7249C386.09 73.2808 388.878 70.4675 392.33 70.4675C395.782 70.4675 398.571 73.2637 398.571 76.7249Z" fill="#B6A2DE"/>
<path d="M458.883 185.351L316.489 198.515L323.281 272.081L465.675 258.917L458.883 185.351Z" fill="#B6A2DE"/>
<path d="M429.196 55.5147C428.839 55.5147 428.499 55.276 428.38 54.9179C428.244 54.4746 428.499 53.9972 428.941 53.8608L554.826 15.379C555.013 15.3279 555.217 15.3279 555.404 15.4131L615.074 40.6641C615.499 40.8517 615.703 41.3461 615.533 41.7724C615.346 42.1986 614.853 42.4032 614.427 42.2327L555.047 17.1011L429.451 55.4976C429.366 55.4976 429.281 55.5147 429.196 55.5147Z" fill="#6D4DA3"/>
<path d="M535.288 70.1436C535.084 70.1436 534.88 70.1095 534.676 70.0243C533.792 69.6833 533.35 68.7114 533.69 67.8248L553.517 15.5325C553.789 14.8164 554.486 14.3731 555.251 14.4413C556 14.5095 556.629 15.0551 556.782 15.8053L567.036 66.8189C567.223 67.7396 566.628 68.6432 565.709 68.8308C564.791 69.0183 563.89 68.4216 563.703 67.5009L554.622 22.2843L536.886 69.0695C536.614 69.7174 535.968 70.1436 535.288 70.1436Z" fill="#6D4DA3"/>
<path d="M558.533 16.1293C558.533 18.0218 557.003 19.5734 555.098 19.5734C553.211 19.5734 551.664 18.0389 551.664 16.1293C551.664 14.2197 553.194 12.6852 555.098 12.6852C557.003 12.7022 558.533 14.2367 558.533 16.1293Z" fill="#B6A2DE"/>
<path d="M411.273 70.1777C411.086 70.1777 410.899 70.1095 410.746 69.9901L394.048 56.4524V69.1035C394.048 69.5809 393.674 69.956 393.198 69.956C392.721 69.956 392.347 69.5809 392.347 69.1035V54.6622C392.347 54.3383 392.534 54.0314 392.823 53.895C393.113 53.7586 393.47 53.7926 393.725 53.9972L411.801 68.6602C412.158 68.9501 412.226 69.4957 411.92 69.8537C411.767 70.0754 411.529 70.1777 411.273 70.1777Z" fill="#6D4DA3"/>
<path d="M427.428 70.1777C427.241 70.1777 427.054 70.1095 426.901 69.9901L410.202 56.4524V69.1035C410.202 69.5809 409.828 69.956 409.352 69.956C408.876 69.956 408.502 69.5809 408.502 69.1035V54.6622C408.502 54.3383 408.689 54.0314 408.978 53.895C409.267 53.7586 409.624 53.7926 409.879 53.9972L427.955 68.6602C428.312 68.9501 428.38 69.4957 428.074 69.8537C427.921 70.0754 427.683 70.1777 427.428 70.1777Z" fill="#6D4DA3"/>
<path d="M443.582 70.1777C443.395 70.1777 443.208 70.1095 443.055 69.9901L426.357 56.4524V69.1035C426.357 69.5809 425.982 69.956 425.506 69.956C425.03 69.956 424.656 69.5809 424.656 69.1035V54.6622C424.656 54.3383 424.843 54.0314 425.132 53.895C425.421 53.7586 425.778 53.7926 426.033 53.9972L444.109 68.6602C444.466 68.9501 444.534 69.4957 444.228 69.8537C444.075 70.0754 443.82 70.1777 443.582 70.1777Z" fill="#6D4DA3"/>
<path d="M459.72 70.1777C459.533 70.1777 459.345 70.1095 459.192 69.9901L442.494 56.4524V69.1035C442.494 69.5809 442.12 69.956 441.644 69.956C441.168 69.956 440.793 69.5809 440.793 69.1035V54.6622C440.793 54.3383 440.981 54.0314 441.27 53.895C441.559 53.7586 441.916 53.7926 442.171 53.9972L460.247 68.6602C460.604 68.9501 460.672 69.4957 460.366 69.8537C460.213 70.0754 459.975 70.1777 459.72 70.1777Z" fill="#6D4DA3"/>
<path d="M475.874 70.1777C475.687 70.1777 475.5 70.1095 475.347 69.9901L458.648 56.4524V69.1035C458.648 69.5809 458.274 69.956 457.798 69.956C457.322 69.956 456.948 69.5809 456.948 69.1035V54.6622C456.948 54.3383 457.135 54.0314 457.424 53.895C457.713 53.7586 458.07 53.7926 458.325 53.9972L476.401 68.6602C476.758 68.9501 476.826 69.4957 476.52 69.8537C476.367 70.0754 476.112 70.1777 475.874 70.1777Z" fill="#6D4DA3"/>
<path d="M492.011 70.1777C491.824 70.1777 491.637 70.1095 491.484 69.9901L474.786 56.4524V69.1035C474.786 69.5809 474.412 69.956 473.935 69.956C473.459 69.956 473.085 69.5809 473.085 69.1035V54.6622C473.085 54.3383 473.272 54.0314 473.561 53.895C473.85 53.7586 474.208 53.7926 474.463 53.9972L492.538 68.6602C492.896 68.9501 492.964 69.4957 492.658 69.8537C492.504 70.0754 492.266 70.1777 492.011 70.1777Z" fill="#6D4DA3"/>
<path d="M508.166 70.1777C507.979 70.1777 507.792 70.1095 507.639 69.9901L490.94 56.4524V69.1035C490.94 69.5809 490.566 69.956 490.09 69.956C489.614 69.956 489.24 69.5809 489.24 69.1035V54.6622C489.24 54.3383 489.427 54.0314 489.716 53.895C490.005 53.7586 490.362 53.7926 490.617 53.9972L508.693 68.6602C509.05 68.9501 509.118 69.4957 508.812 69.8537C508.659 70.0754 508.404 70.1777 508.166 70.1777Z" fill="#6D4DA3"/>
<path d="M524.303 70.1777C524.116 70.1777 523.929 70.1095 523.776 69.9901L507.077 56.4524V69.1035C507.077 69.5809 506.703 69.956 506.227 69.956C505.751 69.956 505.377 69.5809 505.377 69.1035V54.6622C505.377 54.3383 505.564 54.0314 505.853 53.895C506.142 53.7586 506.499 53.7926 506.754 53.9972L524.83 68.6602C525.187 68.9501 525.255 69.4957 524.949 69.8537C524.796 70.0754 524.558 70.1777 524.303 70.1777Z" fill="#6D4DA3"/>
<path d="M619.767 70.1776C619.529 70.1776 619.291 70.0753 619.121 69.8707L597.44 44.2105V69.1035C597.44 69.5809 597.066 69.956 596.59 69.956C596.114 69.956 595.739 69.5809 595.739 69.1035V41.8917C595.739 41.5337 595.961 41.2097 596.301 41.0904C596.641 40.971 597.015 41.0733 597.236 41.3461L620.413 68.7795C620.719 69.1376 620.668 69.6832 620.311 69.973C620.158 70.1094 619.954 70.1776 619.767 70.1776Z" fill="#6D4DA3"/>
<path d="M636.448 70.1777C636.176 70.1777 635.904 70.0413 635.734 69.8026L619.206 44.7391V69.1206C619.206 69.598 618.832 69.9731 618.356 69.9731C617.879 69.9731 617.505 69.598 617.505 69.1206V41.8918C617.505 41.5167 617.743 41.1757 618.118 41.0734C618.475 40.9711 618.866 41.1075 619.07 41.4144L637.146 68.8478C637.401 69.2399 637.299 69.7685 636.908 70.0242C636.772 70.1436 636.602 70.1777 636.448 70.1777Z" fill="#6D4DA3"/>
<path d="M397.687 189.817C397.687 192.784 395.289 195.188 392.33 195.188C389.372 195.188 386.974 192.784 386.974 189.817C386.974 186.851 389.372 184.447 392.33 184.447C395.289 184.447 397.687 186.851 397.687 189.817Z" fill="#FF6A73"/>
<path d="M105.633 296.942H102.232V378.782H105.633V296.942Z" fill="#6D4DA3"/>
<path d="M41.0151 296.942H37.6142V378.782H41.0151V296.942Z" fill="#6D4DA3"/>
<path d="M114.509 304.615H29.1119V336.157H114.509V304.615Z" fill="#B0B0B0"/>
<path d="M114.492 336.157V306.32L98.7968 336.157H114.492Z" fill="#FF6A73"/>
<path d="M60.5364 336.157H78.7994L95.3959 304.615H77.1329L60.5364 336.157Z" fill="#FF6A73"/>
<path d="M38.8725 304.615L29.1119 323.182V336.157H40.539L57.1355 304.615H38.8725Z" fill="#FF6A73"/>
<path d="M118.386 354.929H24.8607V358.339H118.386V354.929Z" fill="#6D4DA3"/>
<path d="M697.376 296.942H693.975V378.782H697.376V296.942Z" fill="#6D4DA3"/>
<path d="M632.758 296.942H629.358V378.782H632.758V296.942Z" fill="#6D4DA3"/>
<path d="M706.252 304.615H620.855V336.157H706.252V304.615Z" fill="#B0B0B0"/>
<path d="M706.252 336.157V306.32L690.557 336.157H706.252Z" fill="#FF6A73"/>
<path d="M652.297 336.157H670.56L687.156 304.615H668.893L652.297 336.157Z" fill="#FF6A73"/>
<path d="M630.633 304.615L620.855 323.182V336.157H632.299L648.896 304.615H630.633Z" fill="#FF6A73"/>
<path d="M710.129 354.929H616.604V358.339H710.129V354.929Z" fill="#6D4DA3"/>
<path d="M155.592 402.362H116.856C115.58 402.362 114.543 403.402 114.543 404.681C114.543 405.96 115.58 407 116.856 407H155.592C156.868 407 157.905 405.96 157.905 404.681C157.905 403.402 156.868 402.362 155.592 402.362Z" fill="#FF6A73"/>
<path d="M139.37 369.354C139.183 368.859 138.707 368.518 138.179 368.518H133.741C133.197 368.518 132.721 368.859 132.551 369.371L120.053 405.227H152.395L139.37 369.354Z" fill="#FF6A73"/>
<path d="M130.238 376.003L128.266 381.664H143.842L141.784 376.003H130.238Z" fill="#F1EEF9"/>
<path d="M125.205 390.427L123.232 396.088H149.079L147.022 390.427H125.205Z" fill="#F1EEF9"/>
<path opacity="0.5" d="M149.794 100.493C146.954 100.493 144.335 101.396 142.176 102.914V99.1627C142.176 88.3359 133.418 79.5552 122.62 79.5552C111.822 79.5552 103.065 88.3359 103.065 99.1627V106.579C101.296 104.891 98.9158 103.851 96.2801 103.851C90.8216 103.851 86.4004 108.284 86.4004 113.757H163.023C163.023 106.443 157.106 100.493 149.794 100.493Z" fill="#D1D1D1"/>
<path opacity="0.5" d="M307.698 47.058C305.641 47.058 303.719 47.7229 302.155 48.8312V46.0861C302.155 38.2091 295.778 31.8153 287.922 31.8153C280.066 31.8153 273.689 38.2091 273.689 46.0861V51.4739C272.397 50.2463 270.662 49.4961 268.741 49.4961C264.762 49.4961 261.548 52.7186 261.548 56.7083H317.323C317.34 51.3887 313.021 47.058 307.698 47.058Z" fill="#D1D1D1"/>
</g>
<defs>
<clipPath id="clip0_4929_8924">
<rect width="738" height="407" fill="white"/>
</clipPath>
</defs>
</svg>
